%FSLAX45Y45*%
G04 Gerber Fmt 4.5, Leading zero omitted, Abs format (unit mm)*
G04 Created by KiCad (PCBNEW 4.0.6-e0-6349~53~ubuntu14.04.1) date Thu Jun  8 11:33:24 2017*
%MOMM*%
%LPD*%
G01*
G04 APERTURE LIST*
%ADD10C,0.127000*%
%ADD11C,0.150000*%
%ADD12C,0.200000*%
%ADD13C,0.300000*%
G04 APERTURE END LIST*
D10*
D11*
X16281400Y-5588000D02*
X16281400Y-13563600D01*
X7391400Y-5588000D02*
X16281400Y-5588000D01*
X7391400Y-13563600D02*
X7391400Y-5588000D01*
X16281400Y-13563600D02*
X7391400Y-13563600D01*
D12*
X15337000Y-11552400D02*
X15397000Y-11612400D01*
X15397000Y-11552400D02*
X15337000Y-11612400D01*
X15413200Y-9139400D02*
X15473200Y-9199400D01*
X15473200Y-9139400D02*
X15413200Y-9199400D01*
X15413200Y-9393400D02*
X15473200Y-9453400D01*
X15473200Y-9393400D02*
X15413200Y-9453400D01*
X15464000Y-11425400D02*
X15524000Y-11485400D01*
X15524000Y-11425400D02*
X15464000Y-11485400D01*
X15464000Y-11679400D02*
X15524000Y-11739400D01*
X15524000Y-11679400D02*
X15464000Y-11739400D01*
X15540200Y-9266400D02*
X15600200Y-9326400D01*
X15600200Y-9266400D02*
X15540200Y-9326400D01*
X8879200Y-9652000D02*
G75*
G03X8879200Y-9652000I-40000J0D01*
G01*
X8879200Y-10287000D02*
G75*
G03X8879200Y-10287000I-40000J0D01*
G01*
X9171300Y-7518400D02*
G75*
G03X9171300Y-7518400I-40000J0D01*
G01*
X9209400Y-8775700D02*
G75*
G03X9209400Y-8775700I-40000J0D01*
G01*
X9379200Y-9652000D02*
G75*
G03X9379200Y-9652000I-40000J0D01*
G01*
X9379200Y-10287000D02*
G75*
G03X9379200Y-10287000I-40000J0D01*
G01*
X9421300Y-7518400D02*
G75*
G03X9421300Y-7518400I-40000J0D01*
G01*
X9459400Y-8775700D02*
G75*
G03X9459400Y-8775700I-40000J0D01*
G01*
X10149200Y-6604000D02*
G75*
G03X10149200Y-6604000I-40000J0D01*
G01*
X10174600Y-6997700D02*
G75*
G03X10174600Y-6997700I-40000J0D01*
G01*
X10174600Y-8013700D02*
G75*
G03X10174600Y-8013700I-40000J0D01*
G01*
X10225400Y-9482200D02*
G75*
G03X10225400Y-9482200I-40000J0D01*
G01*
X10225400Y-9982200D02*
G75*
G03X10225400Y-9982200I-40000J0D01*
G01*
X11165200Y-6604000D02*
G75*
G03X11165200Y-6604000I-40000J0D01*
G01*
X11292200Y-7620000D02*
G75*
G03X11292200Y-7620000I-40000J0D01*
G01*
X11292200Y-7874000D02*
G75*
G03X11292200Y-7874000I-40000J0D01*
G01*
X11292200Y-8128000D02*
G75*
G03X11292200Y-8128000I-40000J0D01*
G01*
X11292200Y-8382000D02*
G75*
G03X11292200Y-8382000I-40000J0D01*
G01*
X11292200Y-8636000D02*
G75*
G03X11292200Y-8636000I-40000J0D01*
G01*
X11292200Y-8890000D02*
G75*
G03X11292200Y-8890000I-40000J0D01*
G01*
X11292200Y-9144000D02*
G75*
G03X11292200Y-9144000I-40000J0D01*
G01*
X11292200Y-9398000D02*
G75*
G03X11292200Y-9398000I-40000J0D01*
G01*
X11292200Y-9652000D02*
G75*
G03X11292200Y-9652000I-40000J0D01*
G01*
X11292200Y-9906000D02*
G75*
G03X11292200Y-9906000I-40000J0D01*
G01*
X11292200Y-10160000D02*
G75*
G03X11292200Y-10160000I-40000J0D01*
G01*
X11292200Y-10414000D02*
G75*
G03X11292200Y-10414000I-40000J0D01*
G01*
X11292200Y-10668000D02*
G75*
G03X11292200Y-10668000I-40000J0D01*
G01*
X11292200Y-10922000D02*
G75*
G03X11292200Y-10922000I-40000J0D01*
G01*
X12054200Y-7620000D02*
G75*
G03X12054200Y-7620000I-40000J0D01*
G01*
X12054200Y-7874000D02*
G75*
G03X12054200Y-7874000I-40000J0D01*
G01*
X12054200Y-8128000D02*
G75*
G03X12054200Y-8128000I-40000J0D01*
G01*
X12054200Y-8382000D02*
G75*
G03X12054200Y-8382000I-40000J0D01*
G01*
X12054200Y-8636000D02*
G75*
G03X12054200Y-8636000I-40000J0D01*
G01*
X12054200Y-8890000D02*
G75*
G03X12054200Y-8890000I-40000J0D01*
G01*
X12054200Y-9144000D02*
G75*
G03X12054200Y-9144000I-40000J0D01*
G01*
X12054200Y-9398000D02*
G75*
G03X12054200Y-9398000I-40000J0D01*
G01*
X12054200Y-9652000D02*
G75*
G03X12054200Y-9652000I-40000J0D01*
G01*
X12054200Y-9906000D02*
G75*
G03X12054200Y-9906000I-40000J0D01*
G01*
X12054200Y-10160000D02*
G75*
G03X12054200Y-10160000I-40000J0D01*
G01*
X12054200Y-10414000D02*
G75*
G03X12054200Y-10414000I-40000J0D01*
G01*
X12054200Y-10668000D02*
G75*
G03X12054200Y-10668000I-40000J0D01*
G01*
X12054200Y-10922000D02*
G75*
G03X12054200Y-10922000I-40000J0D01*
G01*
X12486000Y-7594600D02*
G75*
G03X12486000Y-7594600I-40000J0D01*
G01*
X12515400Y-10414000D02*
G75*
G03X12515400Y-10414000I-40000J0D01*
G01*
X12613000Y-8839200D02*
G75*
G03X12613000Y-8839200I-40000J0D01*
G01*
X12613000Y-9855200D02*
G75*
G03X12613000Y-9855200I-40000J0D01*
G01*
X12765400Y-10414000D02*
G75*
G03X12765400Y-10414000I-40000J0D01*
G01*
X12968600Y-8051800D02*
G75*
G03X12968600Y-8051800I-40000J0D01*
G01*
X12968600Y-9067800D02*
G75*
G03X12968600Y-9067800I-40000J0D01*
G01*
X13095600Y-11074400D02*
G75*
G03X13095600Y-11074400I-40000J0D01*
G01*
X13298800Y-9677400D02*
G75*
G03X13298800Y-9677400I-40000J0D01*
G01*
X13298800Y-10439400D02*
G75*
G03X13298800Y-10439400I-40000J0D01*
G01*
X13476600Y-8051800D02*
G75*
G03X13476600Y-8051800I-40000J0D01*
G01*
X13476600Y-9067800D02*
G75*
G03X13476600Y-9067800I-40000J0D01*
G01*
X13502000Y-7594600D02*
G75*
G03X13502000Y-7594600I-40000J0D01*
G01*
X13552800Y-9677400D02*
G75*
G03X13552800Y-9677400I-40000J0D01*
G01*
X13552800Y-10439400D02*
G75*
G03X13552800Y-10439400I-40000J0D01*
G01*
X13552800Y-11658600D02*
G75*
G03X13552800Y-11658600I-40000J0D01*
G01*
X13578200Y-12115800D02*
G75*
G03X13578200Y-12115800I-40000J0D01*
G01*
X13578200Y-12315800D02*
G75*
G03X13578200Y-12315800I-40000J0D01*
G01*
X13806800Y-9677400D02*
G75*
G03X13806800Y-9677400I-40000J0D01*
G01*
X13806800Y-10439400D02*
G75*
G03X13806800Y-10439400I-40000J0D01*
G01*
X13857600Y-6248400D02*
G75*
G03X13857600Y-6248400I-40000J0D01*
G01*
X13857600Y-7264400D02*
G75*
G03X13857600Y-7264400I-40000J0D01*
G01*
X14060800Y-9677400D02*
G75*
G03X14060800Y-9677400I-40000J0D01*
G01*
X14060800Y-10439400D02*
G75*
G03X14060800Y-10439400I-40000J0D01*
G01*
X14111600Y-11074400D02*
G75*
G03X14111600Y-11074400I-40000J0D01*
G01*
X14264000Y-6248400D02*
G75*
G03X14264000Y-6248400I-40000J0D01*
G01*
X14264000Y-7264400D02*
G75*
G03X14264000Y-7264400I-40000J0D01*
G01*
X14492600Y-10261600D02*
G75*
G03X14492600Y-10261600I-40000J0D01*
G01*
X14492600Y-11277600D02*
G75*
G03X14492600Y-11277600I-40000J0D01*
G01*
X14568800Y-11658600D02*
G75*
G03X14568800Y-11658600I-40000J0D01*
G01*
X14670400Y-6248400D02*
G75*
G03X14670400Y-6248400I-40000J0D01*
G01*
X14670400Y-7264400D02*
G75*
G03X14670400Y-7264400I-40000J0D01*
G01*
X15432400Y-9855200D02*
G75*
G03X15432400Y-9855200I-40000J0D01*
G01*
X15432400Y-10871200D02*
G75*
G03X15432400Y-10871200I-40000J0D01*
G01*
X10502900Y-8502100D02*
X10502900Y-8592100D01*
X10457900Y-8547100D02*
X10547900Y-8547100D01*
X10502900Y-8756100D02*
X10502900Y-8846100D01*
X10457900Y-8801100D02*
X10547900Y-8801100D01*
X8303056Y-8919006D02*
X8303056Y-8848294D01*
X8232344Y-8848294D01*
X8232344Y-8919006D01*
X8303056Y-8919006D01*
X8303056Y-9173006D02*
X8303056Y-9102294D01*
X8232344Y-9102294D01*
X8232344Y-9173006D01*
X8303056Y-9173006D01*
X8341156Y-9865156D02*
X8341156Y-9794444D01*
X8270444Y-9794444D01*
X8270444Y-9865156D01*
X8341156Y-9865156D01*
X8341156Y-10119156D02*
X8341156Y-10048444D01*
X8270444Y-10048444D01*
X8270444Y-10119156D01*
X8341156Y-10119156D01*
X8341156Y-10373156D02*
X8341156Y-10302444D01*
X8270444Y-10302444D01*
X8270444Y-10373156D01*
X8341156Y-10373156D01*
X8385606Y-7693456D02*
X8385606Y-7622744D01*
X8314894Y-7622744D01*
X8314894Y-7693456D01*
X8385606Y-7693456D01*
X8385606Y-7947456D02*
X8385606Y-7876744D01*
X8314894Y-7876744D01*
X8314894Y-7947456D01*
X8385606Y-7947456D01*
X8385606Y-8201456D02*
X8385606Y-8130744D01*
X8314894Y-8130744D01*
X8314894Y-8201456D01*
X8385606Y-8201456D01*
X9458756Y-11490756D02*
X9458756Y-11420044D01*
X9388044Y-11420044D01*
X9388044Y-11490756D01*
X9458756Y-11490756D01*
X9458756Y-11744756D02*
X9458756Y-11674044D01*
X9388044Y-11674044D01*
X9388044Y-11744756D01*
X9458756Y-11744756D01*
X9458756Y-11998756D02*
X9458756Y-11928044D01*
X9388044Y-11928044D01*
X9388044Y-11998756D01*
X9458756Y-11998756D01*
X9687356Y-12760756D02*
X9687356Y-12690044D01*
X9616644Y-12690044D01*
X9616644Y-12760756D01*
X9687356Y-12760756D01*
X10169956Y-11490756D02*
X10169956Y-11420044D01*
X10099244Y-11420044D01*
X10099244Y-11490756D01*
X10169956Y-11490756D01*
X10169956Y-11744756D02*
X10169956Y-11674044D01*
X10099244Y-11674044D01*
X10099244Y-11744756D01*
X10169956Y-11744756D01*
X10169956Y-11998756D02*
X10169956Y-11928044D01*
X10099244Y-11928044D01*
X10099244Y-11998756D01*
X10169956Y-11998756D01*
X10187356Y-12760756D02*
X10187356Y-12690044D01*
X10116644Y-12690044D01*
X10116644Y-12760756D01*
X10187356Y-12760756D01*
X10931956Y-11490756D02*
X10931956Y-11420044D01*
X10861244Y-11420044D01*
X10861244Y-11490756D01*
X10931956Y-11490756D01*
X10931956Y-11744756D02*
X10931956Y-11674044D01*
X10861244Y-11674044D01*
X10861244Y-11744756D01*
X10931956Y-11744756D01*
X10931956Y-11998756D02*
X10931956Y-11928044D01*
X10861244Y-11928044D01*
X10861244Y-11998756D01*
X10931956Y-11998756D01*
X11541556Y-6766356D02*
X11541556Y-6695644D01*
X11470844Y-6695644D01*
X11470844Y-6766356D01*
X11541556Y-6766356D01*
X11630456Y-11490756D02*
X11630456Y-11420044D01*
X11559744Y-11420044D01*
X11559744Y-11490756D01*
X11630456Y-11490756D01*
X11630456Y-11744756D02*
X11630456Y-11674044D01*
X11559744Y-11674044D01*
X11559744Y-11744756D01*
X11630456Y-11744756D01*
X11630456Y-11998756D02*
X11630456Y-11928044D01*
X11559744Y-11928044D01*
X11559744Y-11998756D01*
X11630456Y-11998756D01*
X11795556Y-6766356D02*
X11795556Y-6695644D01*
X11724844Y-6695644D01*
X11724844Y-6766356D01*
X11795556Y-6766356D01*
X12049556Y-6766356D02*
X12049556Y-6695644D01*
X11978844Y-6695644D01*
X11978844Y-6766356D01*
X12049556Y-6766356D01*
X12303556Y-6766356D02*
X12303556Y-6695644D01*
X12232844Y-6695644D01*
X12232844Y-6766356D01*
X12303556Y-6766356D01*
X12557556Y-11744756D02*
X12557556Y-11674044D01*
X12486844Y-11674044D01*
X12486844Y-11744756D01*
X12557556Y-11744756D01*
X12811556Y-11744756D02*
X12811556Y-11674044D01*
X12740844Y-11674044D01*
X12740844Y-11744756D01*
X12811556Y-11744756D01*
X13903756Y-7858556D02*
X13903756Y-7787844D01*
X13833044Y-7787844D01*
X13833044Y-7858556D01*
X13903756Y-7858556D01*
X13903756Y-8112556D02*
X13903756Y-8041844D01*
X13833044Y-8041844D01*
X13833044Y-8112556D01*
X13903756Y-8112556D01*
X14157756Y-7858556D02*
X14157756Y-7787844D01*
X14087044Y-7787844D01*
X14087044Y-7858556D01*
X14157756Y-7858556D01*
X14157756Y-8112556D02*
X14157756Y-8041844D01*
X14087044Y-8041844D01*
X14087044Y-8112556D01*
X14157756Y-8112556D01*
X14343556Y-12506756D02*
X14343556Y-12436044D01*
X14272844Y-12436044D01*
X14272844Y-12506756D01*
X14343556Y-12506756D01*
X14411756Y-7858556D02*
X14411756Y-7787844D01*
X14341044Y-7787844D01*
X14341044Y-7858556D01*
X14411756Y-7858556D01*
X14411756Y-8112556D02*
X14411756Y-8041844D01*
X14341044Y-8041844D01*
X14341044Y-8112556D01*
X14411756Y-8112556D01*
X14665756Y-7858556D02*
X14665756Y-7787844D01*
X14595044Y-7787844D01*
X14595044Y-7858556D01*
X14665756Y-7858556D01*
X14665756Y-8112556D02*
X14665756Y-8041844D01*
X14595044Y-8041844D01*
X14595044Y-8112556D01*
X14665756Y-8112556D01*
X14843556Y-12506756D02*
X14843556Y-12436044D01*
X14772844Y-12436044D01*
X14772844Y-12506756D01*
X14843556Y-12506756D01*
X14970556Y-9881156D02*
X14970556Y-9810444D01*
X14899844Y-9810444D01*
X14899844Y-9881156D01*
X14970556Y-9881156D01*
X14970556Y-10881156D02*
X14970556Y-10810444D01*
X14899844Y-10810444D01*
X14899844Y-10881156D01*
X14970556Y-10881156D01*
X12710400Y-6666200D02*
X12765400Y-6611200D01*
X12710400Y-6556200D01*
X12655400Y-6611200D01*
X12710400Y-6666200D01*
X12710400Y-7116200D02*
X12765400Y-7061200D01*
X12710400Y-7006200D01*
X12655400Y-7061200D01*
X12710400Y-7116200D01*
X13360400Y-6666200D02*
X13415400Y-6611200D01*
X13360400Y-6556200D01*
X13305400Y-6611200D01*
X13360400Y-6666200D01*
X13360400Y-7116200D02*
X13415400Y-7061200D01*
X13360400Y-7006200D01*
X13305400Y-7061200D01*
X13360400Y-7116200D01*
X15849600Y-9935600D02*
X15904600Y-9880600D01*
X15849600Y-9825600D01*
X15794600Y-9880600D01*
X15849600Y-9935600D01*
X15849600Y-10951600D02*
X15904600Y-10896600D01*
X15849600Y-10841600D01*
X15794600Y-10896600D01*
X15849600Y-10951600D01*
X7942600Y-6037600D02*
X8262600Y-6357600D01*
X8262600Y-6037600D02*
X7942600Y-6357600D01*
X8262600Y-6197600D02*
G75*
G03X8262600Y-6197600I-160000J0D01*
G01*
X7942600Y-12768600D02*
X8262600Y-13088600D01*
X8262600Y-12768600D02*
X7942600Y-13088600D01*
X8262600Y-12928600D02*
G75*
G03X8262600Y-12928600I-160000J0D01*
G01*
X15486400Y-6037600D02*
X15806400Y-6357600D01*
X15806400Y-6037600D02*
X15486400Y-6357600D01*
X15806400Y-6197600D02*
G75*
G03X15806400Y-6197600I-160000J0D01*
G01*
X15486400Y-12743200D02*
X15806400Y-13063200D01*
X15806400Y-12743200D02*
X15486400Y-13063200D01*
X15806400Y-12903200D02*
G75*
G03X15806400Y-12903200I-160000J0D01*
G01*
D13*
X7655328Y-14036814D02*
X7655328Y-13736814D01*
X7726757Y-13736814D01*
X7769614Y-13751100D01*
X7798186Y-13779671D01*
X7812471Y-13808243D01*
X7826757Y-13865386D01*
X7826757Y-13908243D01*
X7812471Y-13965386D01*
X7798186Y-13993957D01*
X7769614Y-14022529D01*
X7726757Y-14036814D01*
X7655328Y-14036814D01*
X7955328Y-14036814D02*
X7955328Y-13836814D01*
X7955328Y-13893957D02*
X7969614Y-13865386D01*
X7983900Y-13851100D01*
X8012471Y-13836814D01*
X8041043Y-13836814D01*
X8141043Y-14036814D02*
X8141043Y-13836814D01*
X8141043Y-13736814D02*
X8126757Y-13751100D01*
X8141043Y-13765386D01*
X8155328Y-13751100D01*
X8141043Y-13736814D01*
X8141043Y-13765386D01*
X8326757Y-14036814D02*
X8298186Y-14022529D01*
X8283900Y-13993957D01*
X8283900Y-13736814D01*
X8483900Y-14036814D02*
X8455329Y-14022529D01*
X8441043Y-13993957D01*
X8441043Y-13736814D01*
X8826757Y-14036814D02*
X8826757Y-13736814D01*
X8926757Y-13951100D01*
X9026757Y-13736814D01*
X9026757Y-14036814D01*
X9298186Y-14036814D02*
X9298186Y-13879671D01*
X9283900Y-13851100D01*
X9255329Y-13836814D01*
X9198186Y-13836814D01*
X9169614Y-13851100D01*
X9298186Y-14022529D02*
X9269614Y-14036814D01*
X9198186Y-14036814D01*
X9169614Y-14022529D01*
X9155329Y-13993957D01*
X9155329Y-13965386D01*
X9169614Y-13936814D01*
X9198186Y-13922529D01*
X9269614Y-13922529D01*
X9298186Y-13908243D01*
X9441043Y-13836814D02*
X9441043Y-14136814D01*
X9441043Y-13851100D02*
X9469614Y-13836814D01*
X9526757Y-13836814D01*
X9555329Y-13851100D01*
X9569614Y-13865386D01*
X9583900Y-13893957D01*
X9583900Y-13979671D01*
X9569614Y-14008243D01*
X9555329Y-14022529D01*
X9526757Y-14036814D01*
X9469614Y-14036814D01*
X9441043Y-14022529D01*
X9712471Y-14008243D02*
X9726757Y-14022529D01*
X9712471Y-14036814D01*
X9698186Y-14022529D01*
X9712471Y-14008243D01*
X9712471Y-14036814D01*
X9712471Y-13851100D02*
X9726757Y-13865386D01*
X9712471Y-13879671D01*
X9698186Y-13865386D01*
X9712471Y-13851100D01*
X9712471Y-13879671D01*
X7323900Y-14501100D02*
X7383900Y-14561100D01*
X7383900Y-14501100D02*
X7323900Y-14561100D01*
X7712471Y-14366814D02*
X7741043Y-14366814D01*
X7769614Y-14381100D01*
X7783900Y-14395386D01*
X7798186Y-14423957D01*
X7812471Y-14481100D01*
X7812471Y-14552529D01*
X7798186Y-14609671D01*
X7783900Y-14638243D01*
X7769614Y-14652529D01*
X7741043Y-14666814D01*
X7712471Y-14666814D01*
X7683900Y-14652529D01*
X7669614Y-14638243D01*
X7655328Y-14609671D01*
X7641043Y-14552529D01*
X7641043Y-14481100D01*
X7655328Y-14423957D01*
X7669614Y-14395386D01*
X7683900Y-14381100D01*
X7712471Y-14366814D01*
X7941043Y-14638243D02*
X7955328Y-14652529D01*
X7941043Y-14666814D01*
X7926757Y-14652529D01*
X7941043Y-14638243D01*
X7941043Y-14666814D01*
X8212471Y-14366814D02*
X8155328Y-14366814D01*
X8126757Y-14381100D01*
X8112471Y-14395386D01*
X8083900Y-14438243D01*
X8069614Y-14495386D01*
X8069614Y-14609671D01*
X8083900Y-14638243D01*
X8098186Y-14652529D01*
X8126757Y-14666814D01*
X8183900Y-14666814D01*
X8212471Y-14652529D01*
X8226757Y-14638243D01*
X8241043Y-14609671D01*
X8241043Y-14538243D01*
X8226757Y-14509671D01*
X8212471Y-14495386D01*
X8183900Y-14481100D01*
X8126757Y-14481100D01*
X8098186Y-14495386D01*
X8083900Y-14509671D01*
X8069614Y-14538243D01*
X8426757Y-14366814D02*
X8455329Y-14366814D01*
X8483900Y-14381100D01*
X8498186Y-14395386D01*
X8512471Y-14423957D01*
X8526757Y-14481100D01*
X8526757Y-14552529D01*
X8512471Y-14609671D01*
X8498186Y-14638243D01*
X8483900Y-14652529D01*
X8455329Y-14666814D01*
X8426757Y-14666814D01*
X8398186Y-14652529D01*
X8383900Y-14638243D01*
X8369614Y-14609671D01*
X8355328Y-14552529D01*
X8355328Y-14481100D01*
X8369614Y-14423957D01*
X8383900Y-14395386D01*
X8398186Y-14381100D01*
X8426757Y-14366814D01*
X8655329Y-14666814D02*
X8655329Y-14466814D01*
X8655329Y-14495386D02*
X8669614Y-14481100D01*
X8698186Y-14466814D01*
X8741043Y-14466814D01*
X8769614Y-14481100D01*
X8783900Y-14509671D01*
X8783900Y-14666814D01*
X8783900Y-14509671D02*
X8798186Y-14481100D01*
X8826757Y-14466814D01*
X8869614Y-14466814D01*
X8898186Y-14481100D01*
X8912471Y-14509671D01*
X8912471Y-14666814D01*
X9055329Y-14666814D02*
X9055329Y-14466814D01*
X9055329Y-14495386D02*
X9069614Y-14481100D01*
X9098186Y-14466814D01*
X9141043Y-14466814D01*
X9169614Y-14481100D01*
X9183900Y-14509671D01*
X9183900Y-14666814D01*
X9183900Y-14509671D02*
X9198186Y-14481100D01*
X9226757Y-14466814D01*
X9269614Y-14466814D01*
X9298186Y-14481100D01*
X9312471Y-14509671D01*
X9312471Y-14666814D01*
X9898186Y-14352529D02*
X9641043Y-14738243D01*
X10283900Y-14366814D02*
X10312471Y-14366814D01*
X10341043Y-14381100D01*
X10355328Y-14395386D01*
X10369614Y-14423957D01*
X10383900Y-14481100D01*
X10383900Y-14552529D01*
X10369614Y-14609671D01*
X10355328Y-14638243D01*
X10341043Y-14652529D01*
X10312471Y-14666814D01*
X10283900Y-14666814D01*
X10255328Y-14652529D01*
X10241043Y-14638243D01*
X10226757Y-14609671D01*
X10212471Y-14552529D01*
X10212471Y-14481100D01*
X10226757Y-14423957D01*
X10241043Y-14395386D01*
X10255328Y-14381100D01*
X10283900Y-14366814D01*
X10512471Y-14638243D02*
X10526757Y-14652529D01*
X10512471Y-14666814D01*
X10498186Y-14652529D01*
X10512471Y-14638243D01*
X10512471Y-14666814D01*
X10712471Y-14366814D02*
X10741043Y-14366814D01*
X10769614Y-14381100D01*
X10783900Y-14395386D01*
X10798186Y-14423957D01*
X10812471Y-14481100D01*
X10812471Y-14552529D01*
X10798186Y-14609671D01*
X10783900Y-14638243D01*
X10769614Y-14652529D01*
X10741043Y-14666814D01*
X10712471Y-14666814D01*
X10683900Y-14652529D01*
X10669614Y-14638243D01*
X10655328Y-14609671D01*
X10641043Y-14552529D01*
X10641043Y-14481100D01*
X10655328Y-14423957D01*
X10669614Y-14395386D01*
X10683900Y-14381100D01*
X10712471Y-14366814D01*
X10926757Y-14395386D02*
X10941043Y-14381100D01*
X10969614Y-14366814D01*
X11041043Y-14366814D01*
X11069614Y-14381100D01*
X11083900Y-14395386D01*
X11098186Y-14423957D01*
X11098186Y-14452529D01*
X11083900Y-14495386D01*
X10912471Y-14666814D01*
X11098186Y-14666814D01*
X11355328Y-14466814D02*
X11355328Y-14666814D01*
X11283900Y-14352529D02*
X11212471Y-14566814D01*
X11398185Y-14566814D01*
X11498186Y-14366814D02*
X11498186Y-14423957D01*
X11612471Y-14366814D02*
X11612471Y-14423957D01*
X12055328Y-14781100D02*
X12041043Y-14766814D01*
X12012471Y-14723957D01*
X11998185Y-14695386D01*
X11983900Y-14652529D01*
X11969614Y-14581100D01*
X11969614Y-14523957D01*
X11983900Y-14452529D01*
X11998185Y-14409671D01*
X12012471Y-14381100D01*
X12041043Y-14338243D01*
X12055328Y-14323957D01*
X12298185Y-14366814D02*
X12241043Y-14366814D01*
X12212471Y-14381100D01*
X12198185Y-14395386D01*
X12169614Y-14438243D01*
X12155328Y-14495386D01*
X12155328Y-14609671D01*
X12169614Y-14638243D01*
X12183900Y-14652529D01*
X12212471Y-14666814D01*
X12269614Y-14666814D01*
X12298185Y-14652529D01*
X12312471Y-14638243D01*
X12326757Y-14609671D01*
X12326757Y-14538243D01*
X12312471Y-14509671D01*
X12298185Y-14495386D01*
X12269614Y-14481100D01*
X12212471Y-14481100D01*
X12183900Y-14495386D01*
X12169614Y-14509671D01*
X12155328Y-14538243D01*
X12683900Y-14666814D02*
X12683900Y-14366814D01*
X12812471Y-14666814D02*
X12812471Y-14509671D01*
X12798185Y-14481100D01*
X12769614Y-14466814D01*
X12726757Y-14466814D01*
X12698185Y-14481100D01*
X12683900Y-14495386D01*
X12998185Y-14666814D02*
X12969614Y-14652529D01*
X12955328Y-14638243D01*
X12941043Y-14609671D01*
X12941043Y-14523957D01*
X12955328Y-14495386D01*
X12969614Y-14481100D01*
X12998185Y-14466814D01*
X13041043Y-14466814D01*
X13069614Y-14481100D01*
X13083900Y-14495386D01*
X13098185Y-14523957D01*
X13098185Y-14609671D01*
X13083900Y-14638243D01*
X13069614Y-14652529D01*
X13041043Y-14666814D01*
X12998185Y-14666814D01*
X13269614Y-14666814D02*
X13241043Y-14652529D01*
X13226757Y-14623957D01*
X13226757Y-14366814D01*
X13498186Y-14652529D02*
X13469614Y-14666814D01*
X13412471Y-14666814D01*
X13383900Y-14652529D01*
X13369614Y-14623957D01*
X13369614Y-14509671D01*
X13383900Y-14481100D01*
X13412471Y-14466814D01*
X13469614Y-14466814D01*
X13498186Y-14481100D01*
X13512471Y-14509671D01*
X13512471Y-14538243D01*
X13369614Y-14566814D01*
X13626757Y-14652529D02*
X13655328Y-14666814D01*
X13712471Y-14666814D01*
X13741043Y-14652529D01*
X13755328Y-14623957D01*
X13755328Y-14609671D01*
X13741043Y-14581100D01*
X13712471Y-14566814D01*
X13669614Y-14566814D01*
X13641043Y-14552529D01*
X13626757Y-14523957D01*
X13626757Y-14509671D01*
X13641043Y-14481100D01*
X13669614Y-14466814D01*
X13712471Y-14466814D01*
X13741043Y-14481100D01*
X13855328Y-14781100D02*
X13869614Y-14766814D01*
X13898186Y-14723957D01*
X13912471Y-14695386D01*
X13926757Y-14652529D01*
X13941043Y-14581100D01*
X13941043Y-14523957D01*
X13926757Y-14452529D01*
X13912471Y-14409671D01*
X13898186Y-14381100D01*
X13869614Y-14338243D01*
X13855328Y-14323957D01*
X7383900Y-14927100D02*
G75*
G03X7383900Y-14927100I-40000J0D01*
G01*
X7712471Y-14762814D02*
X7741043Y-14762814D01*
X7769614Y-14777100D01*
X7783900Y-14791386D01*
X7798186Y-14819957D01*
X7812471Y-14877100D01*
X7812471Y-14948529D01*
X7798186Y-15005671D01*
X7783900Y-15034243D01*
X7769614Y-15048529D01*
X7741043Y-15062814D01*
X7712471Y-15062814D01*
X7683900Y-15048529D01*
X7669614Y-15034243D01*
X7655328Y-15005671D01*
X7641043Y-14948529D01*
X7641043Y-14877100D01*
X7655328Y-14819957D01*
X7669614Y-14791386D01*
X7683900Y-14777100D01*
X7712471Y-14762814D01*
X7941043Y-15034243D02*
X7955328Y-15048529D01*
X7941043Y-15062814D01*
X7926757Y-15048529D01*
X7941043Y-15034243D01*
X7941043Y-15062814D01*
X8126757Y-14891386D02*
X8098186Y-14877100D01*
X8083900Y-14862814D01*
X8069614Y-14834243D01*
X8069614Y-14819957D01*
X8083900Y-14791386D01*
X8098186Y-14777100D01*
X8126757Y-14762814D01*
X8183900Y-14762814D01*
X8212471Y-14777100D01*
X8226757Y-14791386D01*
X8241043Y-14819957D01*
X8241043Y-14834243D01*
X8226757Y-14862814D01*
X8212471Y-14877100D01*
X8183900Y-14891386D01*
X8126757Y-14891386D01*
X8098186Y-14905671D01*
X8083900Y-14919957D01*
X8069614Y-14948529D01*
X8069614Y-15005671D01*
X8083900Y-15034243D01*
X8098186Y-15048529D01*
X8126757Y-15062814D01*
X8183900Y-15062814D01*
X8212471Y-15048529D01*
X8226757Y-15034243D01*
X8241043Y-15005671D01*
X8241043Y-14948529D01*
X8226757Y-14919957D01*
X8212471Y-14905671D01*
X8183900Y-14891386D01*
X8426757Y-14762814D02*
X8455329Y-14762814D01*
X8483900Y-14777100D01*
X8498186Y-14791386D01*
X8512471Y-14819957D01*
X8526757Y-14877100D01*
X8526757Y-14948529D01*
X8512471Y-15005671D01*
X8498186Y-15034243D01*
X8483900Y-15048529D01*
X8455329Y-15062814D01*
X8426757Y-15062814D01*
X8398186Y-15048529D01*
X8383900Y-15034243D01*
X8369614Y-15005671D01*
X8355328Y-14948529D01*
X8355328Y-14877100D01*
X8369614Y-14819957D01*
X8383900Y-14791386D01*
X8398186Y-14777100D01*
X8426757Y-14762814D01*
X8655329Y-15062814D02*
X8655329Y-14862814D01*
X8655329Y-14891386D02*
X8669614Y-14877100D01*
X8698186Y-14862814D01*
X8741043Y-14862814D01*
X8769614Y-14877100D01*
X8783900Y-14905671D01*
X8783900Y-15062814D01*
X8783900Y-14905671D02*
X8798186Y-14877100D01*
X8826757Y-14862814D01*
X8869614Y-14862814D01*
X8898186Y-14877100D01*
X8912471Y-14905671D01*
X8912471Y-15062814D01*
X9055329Y-15062814D02*
X9055329Y-14862814D01*
X9055329Y-14891386D02*
X9069614Y-14877100D01*
X9098186Y-14862814D01*
X9141043Y-14862814D01*
X9169614Y-14877100D01*
X9183900Y-14905671D01*
X9183900Y-15062814D01*
X9183900Y-14905671D02*
X9198186Y-14877100D01*
X9226757Y-14862814D01*
X9269614Y-14862814D01*
X9298186Y-14877100D01*
X9312471Y-14905671D01*
X9312471Y-15062814D01*
X9898186Y-14748529D02*
X9641043Y-15134243D01*
X10283900Y-14762814D02*
X10312471Y-14762814D01*
X10341043Y-14777100D01*
X10355328Y-14791386D01*
X10369614Y-14819957D01*
X10383900Y-14877100D01*
X10383900Y-14948529D01*
X10369614Y-15005671D01*
X10355328Y-15034243D01*
X10341043Y-15048529D01*
X10312471Y-15062814D01*
X10283900Y-15062814D01*
X10255328Y-15048529D01*
X10241043Y-15034243D01*
X10226757Y-15005671D01*
X10212471Y-14948529D01*
X10212471Y-14877100D01*
X10226757Y-14819957D01*
X10241043Y-14791386D01*
X10255328Y-14777100D01*
X10283900Y-14762814D01*
X10512471Y-15034243D02*
X10526757Y-15048529D01*
X10512471Y-15062814D01*
X10498186Y-15048529D01*
X10512471Y-15034243D01*
X10512471Y-15062814D01*
X10712471Y-14762814D02*
X10741043Y-14762814D01*
X10769614Y-14777100D01*
X10783900Y-14791386D01*
X10798186Y-14819957D01*
X10812471Y-14877100D01*
X10812471Y-14948529D01*
X10798186Y-15005671D01*
X10783900Y-15034243D01*
X10769614Y-15048529D01*
X10741043Y-15062814D01*
X10712471Y-15062814D01*
X10683900Y-15048529D01*
X10669614Y-15034243D01*
X10655328Y-15005671D01*
X10641043Y-14948529D01*
X10641043Y-14877100D01*
X10655328Y-14819957D01*
X10669614Y-14791386D01*
X10683900Y-14777100D01*
X10712471Y-14762814D01*
X10912471Y-14762814D02*
X11098186Y-14762814D01*
X10998186Y-14877100D01*
X11041043Y-14877100D01*
X11069614Y-14891386D01*
X11083900Y-14905671D01*
X11098186Y-14934243D01*
X11098186Y-15005671D01*
X11083900Y-15034243D01*
X11069614Y-15048529D01*
X11041043Y-15062814D01*
X10955328Y-15062814D01*
X10926757Y-15048529D01*
X10912471Y-15034243D01*
X11383900Y-15062814D02*
X11212471Y-15062814D01*
X11298185Y-15062814D02*
X11298185Y-14762814D01*
X11269614Y-14805671D01*
X11241043Y-14834243D01*
X11212471Y-14848529D01*
X11498186Y-14762814D02*
X11498186Y-14819957D01*
X11612471Y-14762814D02*
X11612471Y-14819957D01*
X12055328Y-15177100D02*
X12041043Y-15162814D01*
X12012471Y-15119957D01*
X11998185Y-15091386D01*
X11983900Y-15048529D01*
X11969614Y-14977100D01*
X11969614Y-14919957D01*
X11983900Y-14848529D01*
X11998185Y-14805671D01*
X12012471Y-14777100D01*
X12041043Y-14734243D01*
X12055328Y-14719957D01*
X12141043Y-14762814D02*
X12341043Y-14762814D01*
X12212471Y-15062814D01*
X12583900Y-14762814D02*
X12526757Y-14762814D01*
X12498185Y-14777100D01*
X12483900Y-14791386D01*
X12455328Y-14834243D01*
X12441043Y-14891386D01*
X12441043Y-15005671D01*
X12455328Y-15034243D01*
X12469614Y-15048529D01*
X12498185Y-15062814D01*
X12555328Y-15062814D01*
X12583900Y-15048529D01*
X12598185Y-15034243D01*
X12612471Y-15005671D01*
X12612471Y-14934243D01*
X12598185Y-14905671D01*
X12583900Y-14891386D01*
X12555328Y-14877100D01*
X12498185Y-14877100D01*
X12469614Y-14891386D01*
X12455328Y-14905671D01*
X12441043Y-14934243D01*
X12969614Y-15062814D02*
X12969614Y-14762814D01*
X13098185Y-15062814D02*
X13098185Y-14905671D01*
X13083900Y-14877100D01*
X13055328Y-14862814D01*
X13012471Y-14862814D01*
X12983900Y-14877100D01*
X12969614Y-14891386D01*
X13283900Y-15062814D02*
X13255328Y-15048529D01*
X13241043Y-15034243D01*
X13226757Y-15005671D01*
X13226757Y-14919957D01*
X13241043Y-14891386D01*
X13255328Y-14877100D01*
X13283900Y-14862814D01*
X13326757Y-14862814D01*
X13355328Y-14877100D01*
X13369614Y-14891386D01*
X13383900Y-14919957D01*
X13383900Y-15005671D01*
X13369614Y-15034243D01*
X13355328Y-15048529D01*
X13326757Y-15062814D01*
X13283900Y-15062814D01*
X13555328Y-15062814D02*
X13526757Y-15048529D01*
X13512471Y-15019957D01*
X13512471Y-14762814D01*
X13783900Y-15048529D02*
X13755328Y-15062814D01*
X13698186Y-15062814D01*
X13669614Y-15048529D01*
X13655328Y-15019957D01*
X13655328Y-14905671D01*
X13669614Y-14877100D01*
X13698186Y-14862814D01*
X13755328Y-14862814D01*
X13783900Y-14877100D01*
X13798186Y-14905671D01*
X13798186Y-14934243D01*
X13655328Y-14962814D01*
X13912471Y-15048529D02*
X13941043Y-15062814D01*
X13998186Y-15062814D01*
X14026757Y-15048529D01*
X14041043Y-15019957D01*
X14041043Y-15005671D01*
X14026757Y-14977100D01*
X13998186Y-14962814D01*
X13955328Y-14962814D01*
X13926757Y-14948529D01*
X13912471Y-14919957D01*
X13912471Y-14905671D01*
X13926757Y-14877100D01*
X13955328Y-14862814D01*
X13998186Y-14862814D01*
X14026757Y-14877100D01*
X14141043Y-15177100D02*
X14155328Y-15162814D01*
X14183900Y-15119957D01*
X14198186Y-15091386D01*
X14212471Y-15048529D01*
X14226757Y-14977100D01*
X14226757Y-14919957D01*
X14212471Y-14848529D01*
X14198186Y-14805671D01*
X14183900Y-14777100D01*
X14155328Y-14734243D01*
X14141043Y-14719957D01*
X7338900Y-15278100D02*
X7338900Y-15368100D01*
X7293900Y-15323100D02*
X7383900Y-15323100D01*
X7712471Y-15158814D02*
X7741043Y-15158814D01*
X7769614Y-15173100D01*
X7783900Y-15187386D01*
X7798186Y-15215957D01*
X7812471Y-15273100D01*
X7812471Y-15344529D01*
X7798186Y-15401671D01*
X7783900Y-15430243D01*
X7769614Y-15444529D01*
X7741043Y-15458814D01*
X7712471Y-15458814D01*
X7683900Y-15444529D01*
X7669614Y-15430243D01*
X7655328Y-15401671D01*
X7641043Y-15344529D01*
X7641043Y-15273100D01*
X7655328Y-15215957D01*
X7669614Y-15187386D01*
X7683900Y-15173100D01*
X7712471Y-15158814D01*
X7941043Y-15430243D02*
X7955328Y-15444529D01*
X7941043Y-15458814D01*
X7926757Y-15444529D01*
X7941043Y-15430243D01*
X7941043Y-15458814D01*
X8098186Y-15458814D02*
X8155328Y-15458814D01*
X8183900Y-15444529D01*
X8198186Y-15430243D01*
X8226757Y-15387386D01*
X8241043Y-15330243D01*
X8241043Y-15215957D01*
X8226757Y-15187386D01*
X8212471Y-15173100D01*
X8183900Y-15158814D01*
X8126757Y-15158814D01*
X8098186Y-15173100D01*
X8083900Y-15187386D01*
X8069614Y-15215957D01*
X8069614Y-15287386D01*
X8083900Y-15315957D01*
X8098186Y-15330243D01*
X8126757Y-15344529D01*
X8183900Y-15344529D01*
X8212471Y-15330243D01*
X8226757Y-15315957D01*
X8241043Y-15287386D01*
X8426757Y-15158814D02*
X8455329Y-15158814D01*
X8483900Y-15173100D01*
X8498186Y-15187386D01*
X8512471Y-15215957D01*
X8526757Y-15273100D01*
X8526757Y-15344529D01*
X8512471Y-15401671D01*
X8498186Y-15430243D01*
X8483900Y-15444529D01*
X8455329Y-15458814D01*
X8426757Y-15458814D01*
X8398186Y-15444529D01*
X8383900Y-15430243D01*
X8369614Y-15401671D01*
X8355328Y-15344529D01*
X8355328Y-15273100D01*
X8369614Y-15215957D01*
X8383900Y-15187386D01*
X8398186Y-15173100D01*
X8426757Y-15158814D01*
X8655329Y-15458814D02*
X8655329Y-15258814D01*
X8655329Y-15287386D02*
X8669614Y-15273100D01*
X8698186Y-15258814D01*
X8741043Y-15258814D01*
X8769614Y-15273100D01*
X8783900Y-15301671D01*
X8783900Y-15458814D01*
X8783900Y-15301671D02*
X8798186Y-15273100D01*
X8826757Y-15258814D01*
X8869614Y-15258814D01*
X8898186Y-15273100D01*
X8912471Y-15301671D01*
X8912471Y-15458814D01*
X9055329Y-15458814D02*
X9055329Y-15258814D01*
X9055329Y-15287386D02*
X9069614Y-15273100D01*
X9098186Y-15258814D01*
X9141043Y-15258814D01*
X9169614Y-15273100D01*
X9183900Y-15301671D01*
X9183900Y-15458814D01*
X9183900Y-15301671D02*
X9198186Y-15273100D01*
X9226757Y-15258814D01*
X9269614Y-15258814D01*
X9298186Y-15273100D01*
X9312471Y-15301671D01*
X9312471Y-15458814D01*
X9898186Y-15144529D02*
X9641043Y-15530243D01*
X10283900Y-15158814D02*
X10312471Y-15158814D01*
X10341043Y-15173100D01*
X10355328Y-15187386D01*
X10369614Y-15215957D01*
X10383900Y-15273100D01*
X10383900Y-15344529D01*
X10369614Y-15401671D01*
X10355328Y-15430243D01*
X10341043Y-15444529D01*
X10312471Y-15458814D01*
X10283900Y-15458814D01*
X10255328Y-15444529D01*
X10241043Y-15430243D01*
X10226757Y-15401671D01*
X10212471Y-15344529D01*
X10212471Y-15273100D01*
X10226757Y-15215957D01*
X10241043Y-15187386D01*
X10255328Y-15173100D01*
X10283900Y-15158814D01*
X10512471Y-15430243D02*
X10526757Y-15444529D01*
X10512471Y-15458814D01*
X10498186Y-15444529D01*
X10512471Y-15430243D01*
X10512471Y-15458814D01*
X10712471Y-15158814D02*
X10741043Y-15158814D01*
X10769614Y-15173100D01*
X10783900Y-15187386D01*
X10798186Y-15215957D01*
X10812471Y-15273100D01*
X10812471Y-15344529D01*
X10798186Y-15401671D01*
X10783900Y-15430243D01*
X10769614Y-15444529D01*
X10741043Y-15458814D01*
X10712471Y-15458814D01*
X10683900Y-15444529D01*
X10669614Y-15430243D01*
X10655328Y-15401671D01*
X10641043Y-15344529D01*
X10641043Y-15273100D01*
X10655328Y-15215957D01*
X10669614Y-15187386D01*
X10683900Y-15173100D01*
X10712471Y-15158814D01*
X10912471Y-15158814D02*
X11098186Y-15158814D01*
X10998186Y-15273100D01*
X11041043Y-15273100D01*
X11069614Y-15287386D01*
X11083900Y-15301671D01*
X11098186Y-15330243D01*
X11098186Y-15401671D01*
X11083900Y-15430243D01*
X11069614Y-15444529D01*
X11041043Y-15458814D01*
X10955328Y-15458814D01*
X10926757Y-15444529D01*
X10912471Y-15430243D01*
X11369614Y-15158814D02*
X11226757Y-15158814D01*
X11212471Y-15301671D01*
X11226757Y-15287386D01*
X11255328Y-15273100D01*
X11326757Y-15273100D01*
X11355328Y-15287386D01*
X11369614Y-15301671D01*
X11383900Y-15330243D01*
X11383900Y-15401671D01*
X11369614Y-15430243D01*
X11355328Y-15444529D01*
X11326757Y-15458814D01*
X11255328Y-15458814D01*
X11226757Y-15444529D01*
X11212471Y-15430243D01*
X11498186Y-15158814D02*
X11498186Y-15215957D01*
X11612471Y-15158814D02*
X11612471Y-15215957D01*
X12055328Y-15573100D02*
X12041043Y-15558814D01*
X12012471Y-15515957D01*
X11998185Y-15487386D01*
X11983900Y-15444529D01*
X11969614Y-15373100D01*
X11969614Y-15315957D01*
X11983900Y-15244529D01*
X11998185Y-15201671D01*
X12012471Y-15173100D01*
X12041043Y-15130243D01*
X12055328Y-15115957D01*
X12155328Y-15187386D02*
X12169614Y-15173100D01*
X12198185Y-15158814D01*
X12269614Y-15158814D01*
X12298185Y-15173100D01*
X12312471Y-15187386D01*
X12326757Y-15215957D01*
X12326757Y-15244529D01*
X12312471Y-15287386D01*
X12141043Y-15458814D01*
X12326757Y-15458814D01*
X12683900Y-15458814D02*
X12683900Y-15158814D01*
X12812471Y-15458814D02*
X12812471Y-15301671D01*
X12798185Y-15273100D01*
X12769614Y-15258814D01*
X12726757Y-15258814D01*
X12698185Y-15273100D01*
X12683900Y-15287386D01*
X12998185Y-15458814D02*
X12969614Y-15444529D01*
X12955328Y-15430243D01*
X12941043Y-15401671D01*
X12941043Y-15315957D01*
X12955328Y-15287386D01*
X12969614Y-15273100D01*
X12998185Y-15258814D01*
X13041043Y-15258814D01*
X13069614Y-15273100D01*
X13083900Y-15287386D01*
X13098185Y-15315957D01*
X13098185Y-15401671D01*
X13083900Y-15430243D01*
X13069614Y-15444529D01*
X13041043Y-15458814D01*
X12998185Y-15458814D01*
X13269614Y-15458814D02*
X13241043Y-15444529D01*
X13226757Y-15415957D01*
X13226757Y-15158814D01*
X13498186Y-15444529D02*
X13469614Y-15458814D01*
X13412471Y-15458814D01*
X13383900Y-15444529D01*
X13369614Y-15415957D01*
X13369614Y-15301671D01*
X13383900Y-15273100D01*
X13412471Y-15258814D01*
X13469614Y-15258814D01*
X13498186Y-15273100D01*
X13512471Y-15301671D01*
X13512471Y-15330243D01*
X13369614Y-15358814D01*
X13626757Y-15444529D02*
X13655328Y-15458814D01*
X13712471Y-15458814D01*
X13741043Y-15444529D01*
X13755328Y-15415957D01*
X13755328Y-15401671D01*
X13741043Y-15373100D01*
X13712471Y-15358814D01*
X13669614Y-15358814D01*
X13641043Y-15344529D01*
X13626757Y-15315957D01*
X13626757Y-15301671D01*
X13641043Y-15273100D01*
X13669614Y-15258814D01*
X13712471Y-15258814D01*
X13741043Y-15273100D01*
X13855328Y-15573100D02*
X13869614Y-15558814D01*
X13898186Y-15515957D01*
X13912471Y-15487386D01*
X13926757Y-15444529D01*
X13941043Y-15373100D01*
X13941043Y-15315957D01*
X13926757Y-15244529D01*
X13912471Y-15201671D01*
X13898186Y-15173100D01*
X13869614Y-15130243D01*
X13855328Y-15115957D01*
X7369256Y-15754456D02*
X7369256Y-15683744D01*
X7298544Y-15683744D01*
X7298544Y-15754456D01*
X7369256Y-15754456D01*
X7812471Y-15854814D02*
X7641043Y-15854814D01*
X7726757Y-15854814D02*
X7726757Y-15554814D01*
X7698186Y-15597671D01*
X7669614Y-15626243D01*
X7641043Y-15640529D01*
X7941043Y-15826243D02*
X7955328Y-15840529D01*
X7941043Y-15854814D01*
X7926757Y-15840529D01*
X7941043Y-15826243D01*
X7941043Y-15854814D01*
X8141043Y-15554814D02*
X8169614Y-15554814D01*
X8198186Y-15569100D01*
X8212471Y-15583386D01*
X8226757Y-15611957D01*
X8241043Y-15669100D01*
X8241043Y-15740529D01*
X8226757Y-15797671D01*
X8212471Y-15826243D01*
X8198186Y-15840529D01*
X8169614Y-15854814D01*
X8141043Y-15854814D01*
X8112471Y-15840529D01*
X8098186Y-15826243D01*
X8083900Y-15797671D01*
X8069614Y-15740529D01*
X8069614Y-15669100D01*
X8083900Y-15611957D01*
X8098186Y-15583386D01*
X8112471Y-15569100D01*
X8141043Y-15554814D01*
X8426757Y-15554814D02*
X8455329Y-15554814D01*
X8483900Y-15569100D01*
X8498186Y-15583386D01*
X8512471Y-15611957D01*
X8526757Y-15669100D01*
X8526757Y-15740529D01*
X8512471Y-15797671D01*
X8498186Y-15826243D01*
X8483900Y-15840529D01*
X8455329Y-15854814D01*
X8426757Y-15854814D01*
X8398186Y-15840529D01*
X8383900Y-15826243D01*
X8369614Y-15797671D01*
X8355328Y-15740529D01*
X8355328Y-15669100D01*
X8369614Y-15611957D01*
X8383900Y-15583386D01*
X8398186Y-15569100D01*
X8426757Y-15554814D01*
X8655329Y-15854814D02*
X8655329Y-15654814D01*
X8655329Y-15683386D02*
X8669614Y-15669100D01*
X8698186Y-15654814D01*
X8741043Y-15654814D01*
X8769614Y-15669100D01*
X8783900Y-15697671D01*
X8783900Y-15854814D01*
X8783900Y-15697671D02*
X8798186Y-15669100D01*
X8826757Y-15654814D01*
X8869614Y-15654814D01*
X8898186Y-15669100D01*
X8912471Y-15697671D01*
X8912471Y-15854814D01*
X9055329Y-15854814D02*
X9055329Y-15654814D01*
X9055329Y-15683386D02*
X9069614Y-15669100D01*
X9098186Y-15654814D01*
X9141043Y-15654814D01*
X9169614Y-15669100D01*
X9183900Y-15697671D01*
X9183900Y-15854814D01*
X9183900Y-15697671D02*
X9198186Y-15669100D01*
X9226757Y-15654814D01*
X9269614Y-15654814D01*
X9298186Y-15669100D01*
X9312471Y-15697671D01*
X9312471Y-15854814D01*
X9898186Y-15540529D02*
X9641043Y-15926243D01*
X10283900Y-15554814D02*
X10312471Y-15554814D01*
X10341043Y-15569100D01*
X10355328Y-15583386D01*
X10369614Y-15611957D01*
X10383900Y-15669100D01*
X10383900Y-15740529D01*
X10369614Y-15797671D01*
X10355328Y-15826243D01*
X10341043Y-15840529D01*
X10312471Y-15854814D01*
X10283900Y-15854814D01*
X10255328Y-15840529D01*
X10241043Y-15826243D01*
X10226757Y-15797671D01*
X10212471Y-15740529D01*
X10212471Y-15669100D01*
X10226757Y-15611957D01*
X10241043Y-15583386D01*
X10255328Y-15569100D01*
X10283900Y-15554814D01*
X10512471Y-15826243D02*
X10526757Y-15840529D01*
X10512471Y-15854814D01*
X10498186Y-15840529D01*
X10512471Y-15826243D01*
X10512471Y-15854814D01*
X10712471Y-15554814D02*
X10741043Y-15554814D01*
X10769614Y-15569100D01*
X10783900Y-15583386D01*
X10798186Y-15611957D01*
X10812471Y-15669100D01*
X10812471Y-15740529D01*
X10798186Y-15797671D01*
X10783900Y-15826243D01*
X10769614Y-15840529D01*
X10741043Y-15854814D01*
X10712471Y-15854814D01*
X10683900Y-15840529D01*
X10669614Y-15826243D01*
X10655328Y-15797671D01*
X10641043Y-15740529D01*
X10641043Y-15669100D01*
X10655328Y-15611957D01*
X10669614Y-15583386D01*
X10683900Y-15569100D01*
X10712471Y-15554814D01*
X10912471Y-15554814D02*
X11098186Y-15554814D01*
X10998186Y-15669100D01*
X11041043Y-15669100D01*
X11069614Y-15683386D01*
X11083900Y-15697671D01*
X11098186Y-15726243D01*
X11098186Y-15797671D01*
X11083900Y-15826243D01*
X11069614Y-15840529D01*
X11041043Y-15854814D01*
X10955328Y-15854814D01*
X10926757Y-15840529D01*
X10912471Y-15826243D01*
X11241043Y-15854814D02*
X11298185Y-15854814D01*
X11326757Y-15840529D01*
X11341043Y-15826243D01*
X11369614Y-15783386D01*
X11383900Y-15726243D01*
X11383900Y-15611957D01*
X11369614Y-15583386D01*
X11355328Y-15569100D01*
X11326757Y-15554814D01*
X11269614Y-15554814D01*
X11241043Y-15569100D01*
X11226757Y-15583386D01*
X11212471Y-15611957D01*
X11212471Y-15683386D01*
X11226757Y-15711957D01*
X11241043Y-15726243D01*
X11269614Y-15740529D01*
X11326757Y-15740529D01*
X11355328Y-15726243D01*
X11369614Y-15711957D01*
X11383900Y-15683386D01*
X11498186Y-15554814D02*
X11498186Y-15611957D01*
X11612471Y-15554814D02*
X11612471Y-15611957D01*
X12055328Y-15969100D02*
X12041043Y-15954814D01*
X12012471Y-15911957D01*
X11998185Y-15883386D01*
X11983900Y-15840529D01*
X11969614Y-15769100D01*
X11969614Y-15711957D01*
X11983900Y-15640529D01*
X11998185Y-15597671D01*
X12012471Y-15569100D01*
X12041043Y-15526243D01*
X12055328Y-15511957D01*
X12298185Y-15654814D02*
X12298185Y-15854814D01*
X12226757Y-15540529D02*
X12155328Y-15754814D01*
X12341043Y-15754814D01*
X12512471Y-15554814D02*
X12541043Y-15554814D01*
X12569614Y-15569100D01*
X12583900Y-15583386D01*
X12598185Y-15611957D01*
X12612471Y-15669100D01*
X12612471Y-15740529D01*
X12598185Y-15797671D01*
X12583900Y-15826243D01*
X12569614Y-15840529D01*
X12541043Y-15854814D01*
X12512471Y-15854814D01*
X12483900Y-15840529D01*
X12469614Y-15826243D01*
X12455328Y-15797671D01*
X12441043Y-15740529D01*
X12441043Y-15669100D01*
X12455328Y-15611957D01*
X12469614Y-15583386D01*
X12483900Y-15569100D01*
X12512471Y-15554814D01*
X12969614Y-15854814D02*
X12969614Y-15554814D01*
X13098185Y-15854814D02*
X13098185Y-15697671D01*
X13083900Y-15669100D01*
X13055328Y-15654814D01*
X13012471Y-15654814D01*
X12983900Y-15669100D01*
X12969614Y-15683386D01*
X13283900Y-15854814D02*
X13255328Y-15840529D01*
X13241043Y-15826243D01*
X13226757Y-15797671D01*
X13226757Y-15711957D01*
X13241043Y-15683386D01*
X13255328Y-15669100D01*
X13283900Y-15654814D01*
X13326757Y-15654814D01*
X13355328Y-15669100D01*
X13369614Y-15683386D01*
X13383900Y-15711957D01*
X13383900Y-15797671D01*
X13369614Y-15826243D01*
X13355328Y-15840529D01*
X13326757Y-15854814D01*
X13283900Y-15854814D01*
X13555328Y-15854814D02*
X13526757Y-15840529D01*
X13512471Y-15811957D01*
X13512471Y-15554814D01*
X13783900Y-15840529D02*
X13755328Y-15854814D01*
X13698186Y-15854814D01*
X13669614Y-15840529D01*
X13655328Y-15811957D01*
X13655328Y-15697671D01*
X13669614Y-15669100D01*
X13698186Y-15654814D01*
X13755328Y-15654814D01*
X13783900Y-15669100D01*
X13798186Y-15697671D01*
X13798186Y-15726243D01*
X13655328Y-15754814D01*
X13912471Y-15840529D02*
X13941043Y-15854814D01*
X13998186Y-15854814D01*
X14026757Y-15840529D01*
X14041043Y-15811957D01*
X14041043Y-15797671D01*
X14026757Y-15769100D01*
X13998186Y-15754814D01*
X13955328Y-15754814D01*
X13926757Y-15740529D01*
X13912471Y-15711957D01*
X13912471Y-15697671D01*
X13926757Y-15669100D01*
X13955328Y-15654814D01*
X13998186Y-15654814D01*
X14026757Y-15669100D01*
X14141043Y-15969100D02*
X14155328Y-15954814D01*
X14183900Y-15911957D01*
X14198186Y-15883386D01*
X14212471Y-15840529D01*
X14226757Y-15769100D01*
X14226757Y-15711957D01*
X14212471Y-15640529D01*
X14198186Y-15597671D01*
X14183900Y-15569100D01*
X14155328Y-15526243D01*
X14141043Y-15511957D01*
X7328900Y-16170100D02*
X7383900Y-16115100D01*
X7328900Y-16060100D01*
X7273900Y-16115100D01*
X7328900Y-16170100D01*
X7812471Y-16250814D02*
X7641043Y-16250814D01*
X7726757Y-16250814D02*
X7726757Y-15950814D01*
X7698186Y-15993671D01*
X7669614Y-16022243D01*
X7641043Y-16036529D01*
X7941043Y-16222243D02*
X7955328Y-16236529D01*
X7941043Y-16250814D01*
X7926757Y-16236529D01*
X7941043Y-16222243D01*
X7941043Y-16250814D01*
X8241043Y-16250814D02*
X8069614Y-16250814D01*
X8155328Y-16250814D02*
X8155328Y-15950814D01*
X8126757Y-15993671D01*
X8098186Y-16022243D01*
X8069614Y-16036529D01*
X8426757Y-15950814D02*
X8455329Y-15950814D01*
X8483900Y-15965100D01*
X8498186Y-15979386D01*
X8512471Y-16007957D01*
X8526757Y-16065100D01*
X8526757Y-16136529D01*
X8512471Y-16193671D01*
X8498186Y-16222243D01*
X8483900Y-16236529D01*
X8455329Y-16250814D01*
X8426757Y-16250814D01*
X8398186Y-16236529D01*
X8383900Y-16222243D01*
X8369614Y-16193671D01*
X8355328Y-16136529D01*
X8355328Y-16065100D01*
X8369614Y-16007957D01*
X8383900Y-15979386D01*
X8398186Y-15965100D01*
X8426757Y-15950814D01*
X8655329Y-16250814D02*
X8655329Y-16050814D01*
X8655329Y-16079386D02*
X8669614Y-16065100D01*
X8698186Y-16050814D01*
X8741043Y-16050814D01*
X8769614Y-16065100D01*
X8783900Y-16093671D01*
X8783900Y-16250814D01*
X8783900Y-16093671D02*
X8798186Y-16065100D01*
X8826757Y-16050814D01*
X8869614Y-16050814D01*
X8898186Y-16065100D01*
X8912471Y-16093671D01*
X8912471Y-16250814D01*
X9055329Y-16250814D02*
X9055329Y-16050814D01*
X9055329Y-16079386D02*
X9069614Y-16065100D01*
X9098186Y-16050814D01*
X9141043Y-16050814D01*
X9169614Y-16065100D01*
X9183900Y-16093671D01*
X9183900Y-16250814D01*
X9183900Y-16093671D02*
X9198186Y-16065100D01*
X9226757Y-16050814D01*
X9269614Y-16050814D01*
X9298186Y-16065100D01*
X9312471Y-16093671D01*
X9312471Y-16250814D01*
X9898186Y-15936529D02*
X9641043Y-16322243D01*
X10283900Y-15950814D02*
X10312471Y-15950814D01*
X10341043Y-15965100D01*
X10355328Y-15979386D01*
X10369614Y-16007957D01*
X10383900Y-16065100D01*
X10383900Y-16136529D01*
X10369614Y-16193671D01*
X10355328Y-16222243D01*
X10341043Y-16236529D01*
X10312471Y-16250814D01*
X10283900Y-16250814D01*
X10255328Y-16236529D01*
X10241043Y-16222243D01*
X10226757Y-16193671D01*
X10212471Y-16136529D01*
X10212471Y-16065100D01*
X10226757Y-16007957D01*
X10241043Y-15979386D01*
X10255328Y-15965100D01*
X10283900Y-15950814D01*
X10512471Y-16222243D02*
X10526757Y-16236529D01*
X10512471Y-16250814D01*
X10498186Y-16236529D01*
X10512471Y-16222243D01*
X10512471Y-16250814D01*
X10712471Y-15950814D02*
X10741043Y-15950814D01*
X10769614Y-15965100D01*
X10783900Y-15979386D01*
X10798186Y-16007957D01*
X10812471Y-16065100D01*
X10812471Y-16136529D01*
X10798186Y-16193671D01*
X10783900Y-16222243D01*
X10769614Y-16236529D01*
X10741043Y-16250814D01*
X10712471Y-16250814D01*
X10683900Y-16236529D01*
X10669614Y-16222243D01*
X10655328Y-16193671D01*
X10641043Y-16136529D01*
X10641043Y-16065100D01*
X10655328Y-16007957D01*
X10669614Y-15979386D01*
X10683900Y-15965100D01*
X10712471Y-15950814D01*
X11069614Y-16050814D02*
X11069614Y-16250814D01*
X10998186Y-15936529D02*
X10926757Y-16150814D01*
X11112471Y-16150814D01*
X11198185Y-15950814D02*
X11383900Y-15950814D01*
X11283900Y-16065100D01*
X11326757Y-16065100D01*
X11355328Y-16079386D01*
X11369614Y-16093671D01*
X11383900Y-16122243D01*
X11383900Y-16193671D01*
X11369614Y-16222243D01*
X11355328Y-16236529D01*
X11326757Y-16250814D01*
X11241043Y-16250814D01*
X11212471Y-16236529D01*
X11198185Y-16222243D01*
X11498186Y-15950814D02*
X11498186Y-16007957D01*
X11612471Y-15950814D02*
X11612471Y-16007957D01*
X12055328Y-16365100D02*
X12041043Y-16350814D01*
X12012471Y-16307957D01*
X11998185Y-16279386D01*
X11983900Y-16236529D01*
X11969614Y-16165100D01*
X11969614Y-16107957D01*
X11983900Y-16036529D01*
X11998185Y-15993671D01*
X12012471Y-15965100D01*
X12041043Y-15922243D01*
X12055328Y-15907957D01*
X12298185Y-15950814D02*
X12241043Y-15950814D01*
X12212471Y-15965100D01*
X12198185Y-15979386D01*
X12169614Y-16022243D01*
X12155328Y-16079386D01*
X12155328Y-16193671D01*
X12169614Y-16222243D01*
X12183900Y-16236529D01*
X12212471Y-16250814D01*
X12269614Y-16250814D01*
X12298185Y-16236529D01*
X12312471Y-16222243D01*
X12326757Y-16193671D01*
X12326757Y-16122243D01*
X12312471Y-16093671D01*
X12298185Y-16079386D01*
X12269614Y-16065100D01*
X12212471Y-16065100D01*
X12183900Y-16079386D01*
X12169614Y-16093671D01*
X12155328Y-16122243D01*
X12683900Y-16250814D02*
X12683900Y-15950814D01*
X12812471Y-16250814D02*
X12812471Y-16093671D01*
X12798185Y-16065100D01*
X12769614Y-16050814D01*
X12726757Y-16050814D01*
X12698185Y-16065100D01*
X12683900Y-16079386D01*
X12998185Y-16250814D02*
X12969614Y-16236529D01*
X12955328Y-16222243D01*
X12941043Y-16193671D01*
X12941043Y-16107957D01*
X12955328Y-16079386D01*
X12969614Y-16065100D01*
X12998185Y-16050814D01*
X13041043Y-16050814D01*
X13069614Y-16065100D01*
X13083900Y-16079386D01*
X13098185Y-16107957D01*
X13098185Y-16193671D01*
X13083900Y-16222243D01*
X13069614Y-16236529D01*
X13041043Y-16250814D01*
X12998185Y-16250814D01*
X13269614Y-16250814D02*
X13241043Y-16236529D01*
X13226757Y-16207957D01*
X13226757Y-15950814D01*
X13498186Y-16236529D02*
X13469614Y-16250814D01*
X13412471Y-16250814D01*
X13383900Y-16236529D01*
X13369614Y-16207957D01*
X13369614Y-16093671D01*
X13383900Y-16065100D01*
X13412471Y-16050814D01*
X13469614Y-16050814D01*
X13498186Y-16065100D01*
X13512471Y-16093671D01*
X13512471Y-16122243D01*
X13369614Y-16150814D01*
X13626757Y-16236529D02*
X13655328Y-16250814D01*
X13712471Y-16250814D01*
X13741043Y-16236529D01*
X13755328Y-16207957D01*
X13755328Y-16193671D01*
X13741043Y-16165100D01*
X13712471Y-16150814D01*
X13669614Y-16150814D01*
X13641043Y-16136529D01*
X13626757Y-16107957D01*
X13626757Y-16093671D01*
X13641043Y-16065100D01*
X13669614Y-16050814D01*
X13712471Y-16050814D01*
X13741043Y-16065100D01*
X13855328Y-16365100D02*
X13869614Y-16350814D01*
X13898186Y-16307957D01*
X13912471Y-16279386D01*
X13926757Y-16236529D01*
X13941043Y-16165100D01*
X13941043Y-16107957D01*
X13926757Y-16036529D01*
X13912471Y-15993671D01*
X13898186Y-15965100D01*
X13869614Y-15922243D01*
X13855328Y-15907957D01*
X7063900Y-16351100D02*
X7383900Y-16671100D01*
X7383900Y-16351100D02*
X7063900Y-16671100D01*
X7383900Y-16511100D02*
G75*
G03X7383900Y-16511100I-160000J0D01*
G01*
X7626757Y-16346814D02*
X7812471Y-16346814D01*
X7712471Y-16461100D01*
X7755328Y-16461100D01*
X7783900Y-16475386D01*
X7798186Y-16489671D01*
X7812471Y-16518243D01*
X7812471Y-16589671D01*
X7798186Y-16618243D01*
X7783900Y-16632529D01*
X7755328Y-16646814D01*
X7669614Y-16646814D01*
X7641043Y-16632529D01*
X7626757Y-16618243D01*
X7941043Y-16618243D02*
X7955328Y-16632529D01*
X7941043Y-16646814D01*
X7926757Y-16632529D01*
X7941043Y-16618243D01*
X7941043Y-16646814D01*
X8069614Y-16375386D02*
X8083900Y-16361100D01*
X8112471Y-16346814D01*
X8183900Y-16346814D01*
X8212471Y-16361100D01*
X8226757Y-16375386D01*
X8241043Y-16403957D01*
X8241043Y-16432529D01*
X8226757Y-16475386D01*
X8055328Y-16646814D01*
X8241043Y-16646814D01*
X8426757Y-16346814D02*
X8455329Y-16346814D01*
X8483900Y-16361100D01*
X8498186Y-16375386D01*
X8512471Y-16403957D01*
X8526757Y-16461100D01*
X8526757Y-16532529D01*
X8512471Y-16589671D01*
X8498186Y-16618243D01*
X8483900Y-16632529D01*
X8455329Y-16646814D01*
X8426757Y-16646814D01*
X8398186Y-16632529D01*
X8383900Y-16618243D01*
X8369614Y-16589671D01*
X8355328Y-16532529D01*
X8355328Y-16461100D01*
X8369614Y-16403957D01*
X8383900Y-16375386D01*
X8398186Y-16361100D01*
X8426757Y-16346814D01*
X8655329Y-16646814D02*
X8655329Y-16446814D01*
X8655329Y-16475386D02*
X8669614Y-16461100D01*
X8698186Y-16446814D01*
X8741043Y-16446814D01*
X8769614Y-16461100D01*
X8783900Y-16489671D01*
X8783900Y-16646814D01*
X8783900Y-16489671D02*
X8798186Y-16461100D01*
X8826757Y-16446814D01*
X8869614Y-16446814D01*
X8898186Y-16461100D01*
X8912471Y-16489671D01*
X8912471Y-16646814D01*
X9055329Y-16646814D02*
X9055329Y-16446814D01*
X9055329Y-16475386D02*
X9069614Y-16461100D01*
X9098186Y-16446814D01*
X9141043Y-16446814D01*
X9169614Y-16461100D01*
X9183900Y-16489671D01*
X9183900Y-16646814D01*
X9183900Y-16489671D02*
X9198186Y-16461100D01*
X9226757Y-16446814D01*
X9269614Y-16446814D01*
X9298186Y-16461100D01*
X9312471Y-16489671D01*
X9312471Y-16646814D01*
X9898186Y-16332529D02*
X9641043Y-16718243D01*
X10283900Y-16346814D02*
X10312471Y-16346814D01*
X10341043Y-16361100D01*
X10355328Y-16375386D01*
X10369614Y-16403957D01*
X10383900Y-16461100D01*
X10383900Y-16532529D01*
X10369614Y-16589671D01*
X10355328Y-16618243D01*
X10341043Y-16632529D01*
X10312471Y-16646814D01*
X10283900Y-16646814D01*
X10255328Y-16632529D01*
X10241043Y-16618243D01*
X10226757Y-16589671D01*
X10212471Y-16532529D01*
X10212471Y-16461100D01*
X10226757Y-16403957D01*
X10241043Y-16375386D01*
X10255328Y-16361100D01*
X10283900Y-16346814D01*
X10512471Y-16618243D02*
X10526757Y-16632529D01*
X10512471Y-16646814D01*
X10498186Y-16632529D01*
X10512471Y-16618243D01*
X10512471Y-16646814D01*
X10812471Y-16646814D02*
X10641043Y-16646814D01*
X10726757Y-16646814D02*
X10726757Y-16346814D01*
X10698186Y-16389671D01*
X10669614Y-16418243D01*
X10641043Y-16432529D01*
X10926757Y-16375386D02*
X10941043Y-16361100D01*
X10969614Y-16346814D01*
X11041043Y-16346814D01*
X11069614Y-16361100D01*
X11083900Y-16375386D01*
X11098186Y-16403957D01*
X11098186Y-16432529D01*
X11083900Y-16475386D01*
X10912471Y-16646814D01*
X11098186Y-16646814D01*
X11355328Y-16346814D02*
X11298185Y-16346814D01*
X11269614Y-16361100D01*
X11255328Y-16375386D01*
X11226757Y-16418243D01*
X11212471Y-16475386D01*
X11212471Y-16589671D01*
X11226757Y-16618243D01*
X11241043Y-16632529D01*
X11269614Y-16646814D01*
X11326757Y-16646814D01*
X11355328Y-16632529D01*
X11369614Y-16618243D01*
X11383900Y-16589671D01*
X11383900Y-16518243D01*
X11369614Y-16489671D01*
X11355328Y-16475386D01*
X11326757Y-16461100D01*
X11269614Y-16461100D01*
X11241043Y-16475386D01*
X11226757Y-16489671D01*
X11212471Y-16518243D01*
X11498186Y-16346814D02*
X11498186Y-16403957D01*
X11612471Y-16346814D02*
X11612471Y-16403957D01*
X12055328Y-16761100D02*
X12041043Y-16746814D01*
X12012471Y-16703957D01*
X11998185Y-16675386D01*
X11983900Y-16632529D01*
X11969614Y-16561100D01*
X11969614Y-16503957D01*
X11983900Y-16432529D01*
X11998185Y-16389671D01*
X12012471Y-16361100D01*
X12041043Y-16318243D01*
X12055328Y-16303957D01*
X12298185Y-16446814D02*
X12298185Y-16646814D01*
X12226757Y-16332529D02*
X12155328Y-16546814D01*
X12341043Y-16546814D01*
X12683900Y-16646814D02*
X12683900Y-16346814D01*
X12812471Y-16646814D02*
X12812471Y-16489671D01*
X12798185Y-16461100D01*
X12769614Y-16446814D01*
X12726757Y-16446814D01*
X12698185Y-16461100D01*
X12683900Y-16475386D01*
X12998185Y-16646814D02*
X12969614Y-16632529D01*
X12955328Y-16618243D01*
X12941043Y-16589671D01*
X12941043Y-16503957D01*
X12955328Y-16475386D01*
X12969614Y-16461100D01*
X12998185Y-16446814D01*
X13041043Y-16446814D01*
X13069614Y-16461100D01*
X13083900Y-16475386D01*
X13098185Y-16503957D01*
X13098185Y-16589671D01*
X13083900Y-16618243D01*
X13069614Y-16632529D01*
X13041043Y-16646814D01*
X12998185Y-16646814D01*
X13269614Y-16646814D02*
X13241043Y-16632529D01*
X13226757Y-16603957D01*
X13226757Y-16346814D01*
X13498186Y-16632529D02*
X13469614Y-16646814D01*
X13412471Y-16646814D01*
X13383900Y-16632529D01*
X13369614Y-16603957D01*
X13369614Y-16489671D01*
X13383900Y-16461100D01*
X13412471Y-16446814D01*
X13469614Y-16446814D01*
X13498186Y-16461100D01*
X13512471Y-16489671D01*
X13512471Y-16518243D01*
X13369614Y-16546814D01*
X13626757Y-16632529D02*
X13655328Y-16646814D01*
X13712471Y-16646814D01*
X13741043Y-16632529D01*
X13755328Y-16603957D01*
X13755328Y-16589671D01*
X13741043Y-16561100D01*
X13712471Y-16546814D01*
X13669614Y-16546814D01*
X13641043Y-16532529D01*
X13626757Y-16503957D01*
X13626757Y-16489671D01*
X13641043Y-16461100D01*
X13669614Y-16446814D01*
X13712471Y-16446814D01*
X13741043Y-16461100D01*
X13855328Y-16761100D02*
X13869614Y-16746814D01*
X13898186Y-16703957D01*
X13912471Y-16675386D01*
X13926757Y-16632529D01*
X13941043Y-16561100D01*
X13941043Y-16503957D01*
X13926757Y-16432529D01*
X13912471Y-16389671D01*
X13898186Y-16361100D01*
X13869614Y-16318243D01*
X13855328Y-16303957D01*
M02*
