M48
;DRILL file {KiCad 4.0.6-e0-6349~53~ubuntu14.04.1} date Thu Jun  8 11:33:21 2017
;FORMAT={-:-/ absolute / metric / decimal}
FMAT,2
METRIC,TZ
T1C0.600
T2C0.800
T3C0.900
T4C1.000
T5C1.100
T6C3.200
%
G90
G05
M71
T1
X153.67Y-115.824
X154.432Y-91.694
X154.432Y-94.234
X154.94Y-114.554
X154.94Y-117.094
X155.702Y-92.964
T2
X88.392Y-96.52
X88.392Y-102.87
X91.313Y-75.184
X91.694Y-87.757
X93.392Y-96.52
X93.392Y-102.87
X93.813Y-75.184
X94.194Y-87.757
X101.092Y-66.04
X101.346Y-69.977
X101.346Y-80.137
X101.854Y-94.822
X101.854Y-99.822
X111.252Y-66.04
X112.522Y-76.2
X112.522Y-78.74
X112.522Y-81.28
X112.522Y-83.82
X112.522Y-86.36
X112.522Y-88.9
X112.522Y-91.44
X112.522Y-93.98
X112.522Y-96.52
X112.522Y-99.06
X112.522Y-101.6
X112.522Y-104.14
X112.522Y-106.68
X112.522Y-109.22
X120.142Y-76.2
X120.142Y-78.74
X120.142Y-81.28
X120.142Y-83.82
X120.142Y-86.36
X120.142Y-88.9
X120.142Y-91.44
X120.142Y-93.98
X120.142Y-96.52
X120.142Y-99.06
X120.142Y-101.6
X120.142Y-104.14
X120.142Y-106.68
X120.142Y-109.22
X124.46Y-75.946
X124.754Y-104.14
X125.73Y-88.392
X125.73Y-98.552
X127.254Y-104.14
X129.286Y-80.518
X129.286Y-90.678
X130.556Y-110.744
X132.588Y-96.774
X132.588Y-104.394
X134.366Y-80.518
X134.366Y-90.678
X134.62Y-75.946
X135.128Y-96.774
X135.128Y-104.394
X135.128Y-116.586
X135.382Y-121.158
X135.382Y-123.158
X137.668Y-96.774
X137.668Y-104.394
X138.176Y-62.484
X138.176Y-72.644
X140.208Y-96.774
X140.208Y-104.394
X140.716Y-110.744
X142.24Y-62.484
X142.24Y-72.644
X144.526Y-102.616
X144.526Y-112.776
X145.288Y-116.586
X146.304Y-62.484
X146.304Y-72.644
X153.924Y-98.552
X153.924Y-108.712
T3
X105.029Y-85.471
X105.029Y-88.011
T4
X82.677Y-88.837
X82.677Y-91.376
X83.058Y-98.298
X83.058Y-100.838
X83.058Y-103.378
X83.502Y-76.581
X83.502Y-79.121
X83.502Y-81.661
X94.234Y-114.554
X94.234Y-117.094
X94.234Y-119.634
X96.52Y-127.254
X101.346Y-114.554
X101.346Y-117.094
X101.346Y-119.634
X101.52Y-127.254
X108.966Y-114.554
X108.966Y-117.094
X108.966Y-119.634
X115.062Y-67.31
X115.951Y-114.554
X115.951Y-117.094
X115.951Y-119.634
X117.602Y-67.31
X120.142Y-67.31
X122.682Y-67.31
X125.222Y-117.094
X127.762Y-117.094
X138.684Y-78.232
X138.684Y-80.772
X141.224Y-78.232
X141.224Y-80.772
X143.082Y-124.714
X143.764Y-78.232
X143.764Y-80.772
X146.304Y-78.232
X146.304Y-80.772
X148.082Y-124.714
X149.352Y-98.458
X149.352Y-108.458
T5
X127.104Y-66.112
X127.104Y-70.612
X133.604Y-66.112
X133.604Y-70.612
X158.496Y-98.806
X158.496Y-108.966
T6
X81.026Y-61.976
X81.026Y-129.286
X156.464Y-61.976
X156.464Y-129.032
T0
M30
