G04 #@! TF.FileFunction,Copper,L2,Bot,Signal*
%FSLAX46Y46*%
G04 Gerber Fmt 4.6, Leading zero omitted, Abs format (unit mm)*
G04 Created by KiCad (PCBNEW 4.0.6-e0-6349~53~ubuntu14.04.1) date Thu Jun  8 11:25:29 2017*
%MOMM*%
%LPD*%
G01*
G04 APERTURE LIST*
%ADD10C,0.100000*%
%ADD11C,0.300000*%
%ADD12O,3.010000X1.510000*%
%ADD13C,2.000000*%
%ADD14R,1.600000X1.600000*%
%ADD15C,1.600000*%
%ADD16R,2.000000X2.000000*%
%ADD17R,1.800000X1.800000*%
%ADD18C,1.800000*%
%ADD19R,2.200000X2.200000*%
%ADD20O,2.200000X2.200000*%
%ADD21O,1.510000X3.010000*%
%ADD22C,1.000000*%
%ADD23R,1.000000X1.000000*%
%ADD24O,1.600000X1.600000*%
%ADD25O,1.800000X1.800000*%
%ADD26R,2.400000X1.600000*%
%ADD27O,2.400000X1.600000*%
%ADD28R,1.600000X2.400000*%
%ADD29O,1.600000X2.400000*%
%ADD30C,1.500000*%
%ADD31C,5.600000*%
%ADD32R,1.700000X1.700000*%
%ADD33O,1.700000X1.700000*%
%ADD34C,0.500000*%
%ADD35C,0.254000*%
G04 APERTURE END LIST*
D10*
D11*
X121820285Y-126935571D02*
X121463142Y-128435571D01*
X121177428Y-127364143D01*
X120891714Y-128435571D01*
X120534571Y-126935571D01*
X119320285Y-128435571D02*
X119320285Y-127649857D01*
X119391714Y-127507000D01*
X119534571Y-127435571D01*
X119820285Y-127435571D01*
X119963142Y-127507000D01*
X119320285Y-128364143D02*
X119463142Y-128435571D01*
X119820285Y-128435571D01*
X119963142Y-128364143D01*
X120034571Y-128221286D01*
X120034571Y-128078429D01*
X119963142Y-127935571D01*
X119820285Y-127864143D01*
X119463142Y-127864143D01*
X119320285Y-127792714D01*
X118391713Y-128435571D02*
X118534571Y-128364143D01*
X118605999Y-128221286D01*
X118605999Y-126935571D01*
X117605999Y-128435571D02*
X117748857Y-128364143D01*
X117820285Y-128221286D01*
X117820285Y-126935571D01*
X117034571Y-127864143D02*
X115891714Y-127864143D01*
X115391714Y-126935571D02*
X114534571Y-126935571D01*
X114963142Y-128435571D02*
X114963142Y-126935571D01*
X114034571Y-128435571D02*
X114034571Y-127435571D01*
X114034571Y-126935571D02*
X114106000Y-127007000D01*
X114034571Y-127078429D01*
X113963143Y-127007000D01*
X114034571Y-126935571D01*
X114034571Y-127078429D01*
X123570284Y-130985571D02*
X124284570Y-130985571D01*
X124284570Y-129485571D01*
X123141713Y-130557000D02*
X122427427Y-130557000D01*
X123284570Y-130985571D02*
X122784570Y-129485571D01*
X122284570Y-130985571D01*
X121855999Y-130914143D02*
X121641713Y-130985571D01*
X121284570Y-130985571D01*
X121141713Y-130914143D01*
X121070284Y-130842714D01*
X120998856Y-130699857D01*
X120998856Y-130557000D01*
X121070284Y-130414143D01*
X121141713Y-130342714D01*
X121284570Y-130271286D01*
X121570284Y-130199857D01*
X121713142Y-130128429D01*
X121784570Y-130057000D01*
X121855999Y-129914143D01*
X121855999Y-129771286D01*
X121784570Y-129628429D01*
X121713142Y-129557000D01*
X121570284Y-129485571D01*
X121213142Y-129485571D01*
X120998856Y-129557000D01*
X120427428Y-130914143D02*
X120213142Y-130985571D01*
X119855999Y-130985571D01*
X119713142Y-130914143D01*
X119641713Y-130842714D01*
X119570285Y-130699857D01*
X119570285Y-130557000D01*
X119641713Y-130414143D01*
X119713142Y-130342714D01*
X119855999Y-130271286D01*
X120141713Y-130199857D01*
X120284571Y-130128429D01*
X120355999Y-130057000D01*
X120427428Y-129914143D01*
X120427428Y-129771286D01*
X120355999Y-129628429D01*
X120284571Y-129557000D01*
X120141713Y-129485571D01*
X119784571Y-129485571D01*
X119570285Y-129557000D01*
X118927428Y-130199857D02*
X118427428Y-130199857D01*
X118213142Y-130985571D02*
X118927428Y-130985571D01*
X118927428Y-129485571D01*
X118213142Y-129485571D01*
X116498857Y-129628429D02*
X116427428Y-129557000D01*
X116284571Y-129485571D01*
X115927428Y-129485571D01*
X115784571Y-129557000D01*
X115713142Y-129628429D01*
X115641714Y-129771286D01*
X115641714Y-129914143D01*
X115713142Y-130128429D01*
X116570285Y-130985571D01*
X115641714Y-130985571D01*
X114713143Y-129485571D02*
X114570286Y-129485571D01*
X114427429Y-129557000D01*
X114356000Y-129628429D01*
X114284571Y-129771286D01*
X114213143Y-130057000D01*
X114213143Y-130414143D01*
X114284571Y-130699857D01*
X114356000Y-130842714D01*
X114427429Y-130914143D01*
X114570286Y-130985571D01*
X114713143Y-130985571D01*
X114856000Y-130914143D01*
X114927429Y-130842714D01*
X114998857Y-130699857D01*
X115070286Y-130414143D01*
X115070286Y-130057000D01*
X114998857Y-129771286D01*
X114927429Y-129628429D01*
X114856000Y-129557000D01*
X114713143Y-129485571D01*
X112784572Y-130985571D02*
X113641715Y-130985571D01*
X113213143Y-130985571D02*
X113213143Y-129485571D01*
X113356000Y-129699857D01*
X113498858Y-129842714D01*
X113641715Y-129914143D01*
X112284572Y-129485571D02*
X111284572Y-129485571D01*
X111927429Y-130985571D01*
D12*
X115951000Y-119634000D03*
X115951000Y-117094000D03*
X115951000Y-114554000D03*
D13*
X149352000Y-108458000D03*
X149352000Y-98458000D03*
D14*
X91694000Y-87757000D03*
D15*
X94194000Y-87757000D03*
D14*
X91313000Y-75184000D03*
D15*
X93813000Y-75184000D03*
D16*
X96520000Y-127254000D03*
D13*
X101520000Y-127254000D03*
D15*
X88392000Y-96520000D03*
X93392000Y-96520000D03*
X88392000Y-102870000D03*
X93392000Y-102870000D03*
D14*
X127254000Y-104140000D03*
D15*
X124754000Y-104140000D03*
D14*
X135382000Y-121158000D03*
D15*
X135382000Y-123158000D03*
D16*
X148082000Y-124714000D03*
D13*
X143082000Y-124714000D03*
D17*
X105029000Y-88011000D03*
D18*
X105029000Y-85471000D03*
D19*
X158496000Y-108966000D03*
D20*
X158496000Y-98806000D03*
D12*
X82677000Y-91376500D03*
X82677000Y-88836500D03*
X108966000Y-119634000D03*
X108966000Y-117094000D03*
X108966000Y-114554000D03*
X94234000Y-119634000D03*
X94234000Y-117094000D03*
X94234000Y-114554000D03*
X101346000Y-119634000D03*
X101346000Y-117094000D03*
X101346000Y-114554000D03*
D21*
X127762000Y-117094000D03*
X125222000Y-117094000D03*
D22*
X155702000Y-92964000D03*
X154432000Y-94234000D03*
D23*
X154432000Y-91694000D03*
D22*
X153670000Y-115824000D03*
X154940000Y-114554000D03*
D23*
X154940000Y-117094000D03*
D15*
X101346000Y-69977000D03*
D24*
X101346000Y-80137000D03*
D15*
X101092000Y-66040000D03*
D24*
X111252000Y-66040000D03*
D15*
X138176000Y-62484000D03*
D24*
X138176000Y-72644000D03*
D15*
X142240000Y-62484000D03*
D24*
X142240000Y-72644000D03*
D15*
X146304000Y-62484000D03*
D24*
X146304000Y-72644000D03*
D15*
X124460000Y-75946000D03*
D24*
X134620000Y-75946000D03*
D15*
X125730000Y-88392000D03*
D24*
X125730000Y-98552000D03*
D15*
X144526000Y-112776000D03*
D24*
X144526000Y-102616000D03*
D15*
X145288000Y-116586000D03*
D24*
X135128000Y-116586000D03*
D15*
X153924000Y-98552000D03*
D24*
X153924000Y-108712000D03*
D15*
X140716000Y-110744000D03*
D24*
X130556000Y-110744000D03*
D17*
X83502500Y-81661000D03*
D25*
X83502500Y-79121000D03*
X83502500Y-76581000D03*
D26*
X112522000Y-76200000D03*
D27*
X120142000Y-109220000D03*
X112522000Y-78740000D03*
X120142000Y-106680000D03*
X112522000Y-81280000D03*
X120142000Y-104140000D03*
X112522000Y-83820000D03*
X120142000Y-101600000D03*
X112522000Y-86360000D03*
X120142000Y-99060000D03*
X112522000Y-88900000D03*
X120142000Y-96520000D03*
X112522000Y-91440000D03*
X120142000Y-93980000D03*
X112522000Y-93980000D03*
X120142000Y-91440000D03*
X112522000Y-96520000D03*
X120142000Y-88900000D03*
X112522000Y-99060000D03*
X120142000Y-86360000D03*
X112522000Y-101600000D03*
X120142000Y-83820000D03*
X112522000Y-104140000D03*
X120142000Y-81280000D03*
X112522000Y-106680000D03*
X120142000Y-78740000D03*
X112522000Y-109220000D03*
X120142000Y-76200000D03*
D17*
X83058000Y-103378000D03*
D25*
X83058000Y-100838000D03*
X83058000Y-98298000D03*
D28*
X132588000Y-104394000D03*
D29*
X140208000Y-96774000D03*
X135128000Y-104394000D03*
X137668000Y-96774000D03*
X137668000Y-104394000D03*
X135128000Y-96774000D03*
X140208000Y-104394000D03*
X132588000Y-96774000D03*
D30*
X101854000Y-99822000D03*
X101854000Y-94822000D03*
D13*
X133604000Y-66112000D03*
X133604000Y-70612000D03*
X127104000Y-66112000D03*
X127104000Y-70612000D03*
D15*
X129286000Y-80518000D03*
D24*
X129286000Y-90678000D03*
D15*
X134366000Y-80518000D03*
D24*
X134366000Y-90678000D03*
D31*
X81026000Y-129286000D03*
X81026000Y-61976000D03*
X156464000Y-129032000D03*
X156464000Y-61976000D03*
D32*
X115062000Y-67310000D03*
D33*
X117602000Y-67310000D03*
X120142000Y-67310000D03*
X122682000Y-67310000D03*
D32*
X146304000Y-78232000D03*
D33*
X146304000Y-80772000D03*
X143764000Y-78232000D03*
X143764000Y-80772000D03*
X141224000Y-78232000D03*
X141224000Y-80772000D03*
X138684000Y-78232000D03*
X138684000Y-80772000D03*
D34*
X83058000Y-103378000D02*
X84328000Y-103378000D01*
X91694000Y-96012000D02*
X91694000Y-87757000D01*
X84328000Y-103378000D02*
X91694000Y-96012000D01*
X82677000Y-88836500D02*
X90614500Y-88836500D01*
X90614500Y-88836500D02*
X91694000Y-87757000D01*
X83502500Y-81661000D02*
X83502500Y-88011000D01*
X83502500Y-88011000D02*
X82677000Y-88836500D01*
X115316000Y-91440000D02*
X115316000Y-82042000D01*
X120142000Y-69850000D02*
X120142000Y-67310000D01*
X117856000Y-72136000D02*
X120142000Y-69850000D01*
X117856000Y-79502000D02*
X117856000Y-72136000D01*
X115316000Y-82042000D02*
X117856000Y-79502000D01*
X115951000Y-119634000D02*
X114554000Y-119634000D01*
X114554000Y-119634000D02*
X113284000Y-118364000D01*
X113284000Y-118364000D02*
X113284000Y-113284000D01*
X113284000Y-113284000D02*
X116586000Y-109982000D01*
X116586000Y-109982000D02*
X116586000Y-98044000D01*
X116586000Y-98044000D02*
X118110000Y-96520000D01*
X129286000Y-90678000D02*
X129286000Y-96012000D01*
X129286000Y-96012000D02*
X129540000Y-96012000D01*
X125730000Y-88392000D02*
X125730000Y-91948000D01*
X125730000Y-91948000D02*
X123190000Y-94488000D01*
X132588000Y-96774000D02*
X132588000Y-98298000D01*
X148844000Y-91694000D02*
X154432000Y-91694000D01*
X141478000Y-99060000D02*
X148844000Y-91694000D01*
X133350000Y-99060000D02*
X141478000Y-99060000D01*
X132588000Y-98298000D02*
X133350000Y-99060000D01*
X101346000Y-69977000D02*
X102743000Y-69977000D01*
X102743000Y-69977000D02*
X104013000Y-71247000D01*
X111506000Y-91440000D02*
X109220000Y-89662000D01*
X104013000Y-82042000D02*
X104013000Y-71247000D01*
X109220000Y-86868000D02*
X104013000Y-82042000D01*
X109220000Y-89662000D02*
X109220000Y-86868000D01*
X104013000Y-71247000D02*
X104013000Y-68961000D01*
X103822500Y-68770500D02*
X101092000Y-66040000D01*
X104013000Y-68961000D02*
X103822500Y-68770500D01*
X132588000Y-96774000D02*
X131064000Y-96774000D01*
X124714000Y-96012000D02*
X123190000Y-94488000D01*
X123190000Y-94488000D02*
X122682000Y-93980000D01*
X130302000Y-96012000D02*
X129540000Y-96012000D01*
X129540000Y-96012000D02*
X124714000Y-96012000D01*
X131064000Y-96774000D02*
X130302000Y-96012000D01*
X120142000Y-93980000D02*
X122682000Y-93980000D01*
X120142000Y-96520000D02*
X118110000Y-96520000D01*
X118110000Y-96520000D02*
X117729000Y-96520000D01*
X116713000Y-95504000D02*
X116713000Y-92519500D01*
X117729000Y-96520000D02*
X116713000Y-95504000D01*
X112522000Y-91440000D02*
X115316000Y-91440000D01*
X115316000Y-91440000D02*
X115633500Y-91440000D01*
X118173500Y-93980000D02*
X120142000Y-93980000D01*
X115633500Y-91440000D02*
X116713000Y-92519500D01*
X116713000Y-92519500D02*
X118173500Y-93980000D01*
X83502500Y-76581000D02*
X89916000Y-76581000D01*
X89916000Y-76581000D02*
X91313000Y-75184000D01*
X91313000Y-75184000D02*
X91313000Y-71691500D01*
X93027500Y-69977000D02*
X101346000Y-69977000D01*
X91313000Y-71691500D02*
X93027500Y-69977000D01*
X91059000Y-75438000D02*
X91313000Y-75184000D01*
X112522000Y-91440000D02*
X111506000Y-91440000D01*
X109601000Y-120269000D02*
X108966000Y-119634000D01*
X96520000Y-127254000D02*
X96520000Y-121920000D01*
X96520000Y-121920000D02*
X94234000Y-119634000D01*
X83058000Y-98298000D02*
X82042000Y-98298000D01*
X91440000Y-119634000D02*
X94234000Y-119634000D01*
X78994000Y-107188000D02*
X91440000Y-119634000D01*
X78994000Y-101346000D02*
X78994000Y-107188000D01*
X82042000Y-98298000D02*
X78994000Y-101346000D01*
X101346000Y-119634000D02*
X106553000Y-119634000D01*
X106553000Y-119634000D02*
X110109000Y-119634000D01*
X110109000Y-119634000D02*
X108966000Y-119634000D01*
X94234000Y-119634000D02*
X102743000Y-119634000D01*
X102743000Y-119634000D02*
X101346000Y-119634000D01*
X93392000Y-96520000D02*
X100156000Y-96520000D01*
X100156000Y-96520000D02*
X101854000Y-94822000D01*
X101854000Y-94822000D02*
X104982000Y-94822000D01*
X106680000Y-96520000D02*
X112522000Y-96520000D01*
X104982000Y-94822000D02*
X106680000Y-96520000D01*
X93392000Y-102870000D02*
X98806000Y-102870000D01*
X98806000Y-102870000D02*
X101854000Y-99822000D01*
X101854000Y-99822000D02*
X111760000Y-99822000D01*
X111760000Y-99822000D02*
X112522000Y-99060000D01*
X125730000Y-98552000D02*
X125730000Y-102616000D01*
X125730000Y-102616000D02*
X127254000Y-104140000D01*
X137668000Y-104394000D02*
X137668000Y-103378000D01*
X137668000Y-103378000D02*
X139192000Y-102362000D01*
X142494000Y-102362000D02*
X143764000Y-102616000D01*
X139192000Y-102362000D02*
X142494000Y-102362000D01*
X143764000Y-102616000D02*
X144526000Y-102616000D01*
X127254000Y-104140000D02*
X127254000Y-105410000D01*
X137668000Y-106680000D02*
X137668000Y-104394000D01*
X137160000Y-107188000D02*
X137668000Y-106680000D01*
X129032000Y-107188000D02*
X137160000Y-107188000D01*
X127254000Y-105410000D02*
X129032000Y-107188000D01*
X120142000Y-104140000D02*
X124754000Y-104140000D01*
X135382000Y-121158000D02*
X135382000Y-116840000D01*
X135382000Y-116840000D02*
X135128000Y-116586000D01*
X145288000Y-116586000D02*
X145288000Y-115824000D01*
X145288000Y-115824000D02*
X149352000Y-111760000D01*
X149352000Y-111760000D02*
X149352000Y-108458000D01*
X149352000Y-108458000D02*
X153670000Y-108458000D01*
X153670000Y-108458000D02*
X153924000Y-108712000D01*
X135128000Y-104394000D02*
X135128000Y-103886000D01*
X135128000Y-103886000D02*
X137668000Y-101346000D01*
X137668000Y-101346000D02*
X142748000Y-101346000D01*
X142748000Y-101346000D02*
X143510000Y-100584000D01*
X143510000Y-100584000D02*
X145542000Y-100584000D01*
X145542000Y-100584000D02*
X147320000Y-102362000D01*
X147320000Y-102362000D02*
X147320000Y-104140000D01*
X147320000Y-104140000D02*
X147320000Y-106172000D01*
X147320000Y-106172000D02*
X147574000Y-106426000D01*
X147574000Y-106426000D02*
X149352000Y-108458000D01*
X148082000Y-124714000D02*
X152908000Y-124714000D01*
X158750000Y-118872000D02*
X158750000Y-114554000D01*
X152908000Y-124714000D02*
X158750000Y-118872000D01*
X154432000Y-94234000D02*
X154432000Y-98044000D01*
X154432000Y-98044000D02*
X153924000Y-98552000D01*
X154940000Y-114554000D02*
X158750000Y-114554000D01*
X158750000Y-114554000D02*
X159258000Y-114554000D01*
X159258000Y-114554000D02*
X159512000Y-114300000D01*
X159512000Y-114300000D02*
X159766000Y-114046000D01*
X153924000Y-98552000D02*
X153924000Y-99822000D01*
X153924000Y-99822000D02*
X155702000Y-101600000D01*
X155702000Y-101600000D02*
X157988000Y-101600000D01*
X157988000Y-101600000D02*
X160782000Y-104394000D01*
X160782000Y-104394000D02*
X160782000Y-111760000D01*
X160782000Y-111760000D02*
X159766000Y-112776000D01*
X159766000Y-112776000D02*
X159766000Y-114046000D01*
X149352000Y-98458000D02*
X153830000Y-98458000D01*
X153830000Y-98458000D02*
X153924000Y-98552000D01*
X127762000Y-117094000D02*
X127762000Y-122428000D01*
X141558000Y-126238000D02*
X143082000Y-124714000D01*
X131572000Y-126238000D02*
X141558000Y-126238000D01*
X127762000Y-122428000D02*
X131572000Y-126238000D01*
X130556000Y-110744000D02*
X130556000Y-114300000D01*
X130556000Y-114300000D02*
X127762000Y-117094000D01*
X105029000Y-85471000D02*
X105029000Y-85090000D01*
X105029000Y-85090000D02*
X101346000Y-81407000D01*
X101346000Y-81407000D02*
X101346000Y-80137000D01*
X153670000Y-115824000D02*
X151384000Y-115824000D01*
X152654000Y-112776000D02*
X158242000Y-112776000D01*
X158242000Y-112776000D02*
X158496000Y-112776000D01*
X152146000Y-113284000D02*
X152654000Y-112776000D01*
X152146000Y-115062000D02*
X152146000Y-113284000D01*
X147828000Y-119380000D02*
X151384000Y-115824000D01*
X151384000Y-115824000D02*
X152146000Y-115062000D01*
X144272000Y-119380000D02*
X147828000Y-119380000D01*
X140716000Y-115824000D02*
X144272000Y-119380000D01*
X140716000Y-113284000D02*
X140716000Y-115824000D01*
X140716000Y-110744000D02*
X140716000Y-113284000D01*
X140716000Y-113284000D02*
X140716000Y-113284000D01*
X158496000Y-108966000D02*
X158496000Y-112776000D01*
X132588000Y-104394000D02*
X132588000Y-103886000D01*
X132588000Y-103886000D02*
X136398000Y-100076000D01*
X149352000Y-92964000D02*
X155702000Y-92964000D01*
X142240000Y-100076000D02*
X149352000Y-92964000D01*
X136398000Y-100076000D02*
X142240000Y-100076000D01*
X158496000Y-98806000D02*
X158496000Y-95758000D01*
X158496000Y-95758000D02*
X155702000Y-92964000D01*
X112522000Y-109220000D02*
X110490000Y-109220000D01*
X108966000Y-110744000D02*
X108966000Y-114554000D01*
X110490000Y-109220000D02*
X108966000Y-110744000D01*
X94234000Y-114554000D02*
X98425000Y-114554000D01*
X98425000Y-114554000D02*
X100838000Y-112141000D01*
X109855000Y-104140000D02*
X112522000Y-104140000D01*
X105918000Y-108077000D02*
X109855000Y-104140000D01*
X105918000Y-111125000D02*
X105918000Y-108077000D01*
X104902000Y-112141000D02*
X105918000Y-111125000D01*
X100838000Y-112141000D02*
X104902000Y-112141000D01*
X94234000Y-114300000D02*
X94996000Y-114300000D01*
X101346000Y-114554000D02*
X105156000Y-114554000D01*
X105156000Y-114554000D02*
X107442000Y-112268000D01*
X109474000Y-106680000D02*
X112522000Y-106680000D01*
X107442000Y-108712000D02*
X109474000Y-106680000D01*
X107442000Y-112268000D02*
X107442000Y-108712000D01*
X115951000Y-114554000D02*
X115951000Y-114173000D01*
X115951000Y-114173000D02*
X117856000Y-112268000D01*
X117856000Y-112268000D02*
X117856000Y-103378000D01*
X117856000Y-103378000D02*
X119634000Y-101600000D01*
X119634000Y-101600000D02*
X120142000Y-101600000D01*
X112522000Y-78740000D02*
X114554000Y-78740000D01*
X115062000Y-78232000D02*
X115062000Y-67310000D01*
X114554000Y-78740000D02*
X115062000Y-78232000D01*
X112522000Y-81280000D02*
X113538000Y-81280000D01*
X113538000Y-81280000D02*
X116332000Y-78486000D01*
X116332000Y-78486000D02*
X116332000Y-70612000D01*
X116332000Y-70612000D02*
X117602000Y-69342000D01*
X117602000Y-69342000D02*
X117602000Y-67310000D01*
X146304000Y-78232000D02*
X146304000Y-72644000D01*
X127104000Y-66112000D02*
X133604000Y-66112000D01*
X111252000Y-66040000D02*
X113284000Y-64008000D01*
X125000000Y-64008000D02*
X127104000Y-66112000D01*
X113284000Y-64008000D02*
X125000000Y-64008000D01*
X111252000Y-66040000D02*
X111252000Y-74930000D01*
X111252000Y-74930000D02*
X112522000Y-76200000D01*
X137668000Y-62992000D02*
X138176000Y-62484000D01*
X111252000Y-62992000D02*
X137668000Y-62992000D01*
X109220000Y-65024000D02*
X111252000Y-62992000D01*
X109220000Y-67564000D02*
X109220000Y-65024000D01*
X109728000Y-68072000D02*
X109220000Y-67564000D01*
X109728000Y-82804000D02*
X109728000Y-68072000D01*
X110744000Y-83820000D02*
X109728000Y-82804000D01*
X112522000Y-83820000D02*
X110744000Y-83820000D01*
X112522000Y-83820000D02*
X112776000Y-83820000D01*
X111379000Y-83820000D02*
X112522000Y-83820000D01*
X112522000Y-86360000D02*
X111760000Y-86360000D01*
X111760000Y-86360000D02*
X109728000Y-84328000D01*
X142240000Y-62484000D02*
X140208000Y-60452000D01*
X136906000Y-60452000D02*
X140208000Y-60452000D01*
X135636000Y-61722000D02*
X136906000Y-60452000D01*
X110744000Y-61722000D02*
X135636000Y-61722000D01*
X107950000Y-64516000D02*
X110744000Y-61722000D01*
X107950000Y-68072000D02*
X107950000Y-64516000D01*
X108458000Y-68580000D02*
X107950000Y-68072000D01*
X108458000Y-83058000D02*
X108458000Y-68580000D01*
X109728000Y-84328000D02*
X108458000Y-83058000D01*
X112522000Y-86360000D02*
X112014000Y-86360000D01*
X112268000Y-86360000D02*
X112522000Y-86360000D01*
X112522000Y-88900000D02*
X111506000Y-88900000D01*
X111506000Y-88900000D02*
X110236000Y-87630000D01*
X144780000Y-62484000D02*
X146304000Y-62484000D01*
X141478000Y-59182000D02*
X144780000Y-62484000D01*
X136398000Y-59182000D02*
X141478000Y-59182000D01*
X135128000Y-60452000D02*
X136398000Y-59182000D01*
X110236000Y-60452000D02*
X135128000Y-60452000D01*
X106934000Y-63754000D02*
X110236000Y-60452000D01*
X106934000Y-68834000D02*
X106934000Y-63754000D01*
X107188000Y-69088000D02*
X106934000Y-68834000D01*
X107188000Y-83312000D02*
X107188000Y-69088000D01*
X110236000Y-86360000D02*
X107188000Y-83312000D01*
X110236000Y-87630000D02*
X110236000Y-86360000D01*
X120142000Y-76200000D02*
X124206000Y-76200000D01*
X124206000Y-76200000D02*
X124460000Y-75946000D01*
X140208000Y-96774000D02*
X140208000Y-95758000D01*
X140208000Y-95758000D02*
X137414000Y-92964000D01*
X137414000Y-92964000D02*
X133096000Y-92964000D01*
X133096000Y-92964000D02*
X131826000Y-91694000D01*
X131826000Y-91694000D02*
X131826000Y-80518000D01*
X129286000Y-80518000D02*
X131826000Y-80518000D01*
X131826000Y-80518000D02*
X134366000Y-80518000D01*
X137668000Y-96774000D02*
X135128000Y-96774000D01*
X143764000Y-78232000D02*
X143764000Y-74168000D01*
X143764000Y-74168000D02*
X142240000Y-72644000D01*
X141224000Y-78232000D02*
X141224000Y-77470000D01*
X141224000Y-77470000D02*
X138176000Y-74422000D01*
X138176000Y-74422000D02*
X138176000Y-72644000D01*
X138684000Y-78232000D02*
X136906000Y-78232000D01*
X136906000Y-78232000D02*
X134620000Y-75946000D01*
D35*
G36*
X161925000Y-134747000D02*
X74802589Y-134747000D01*
X74787118Y-129966266D01*
X77590405Y-129966266D01*
X78112250Y-131229229D01*
X79077688Y-132196354D01*
X80339739Y-132720403D01*
X81706266Y-132721595D01*
X82969229Y-132199750D01*
X83936354Y-131234312D01*
X84460403Y-129972261D01*
X84461595Y-128605734D01*
X83939750Y-127342771D01*
X82974312Y-126375646D01*
X81712261Y-125851597D01*
X80345734Y-125850405D01*
X79082771Y-126372250D01*
X78115646Y-127337688D01*
X77591597Y-128599739D01*
X77590405Y-129966266D01*
X74787118Y-129966266D01*
X74694496Y-101346000D01*
X78108999Y-101346000D01*
X78109000Y-101346005D01*
X78109000Y-107187995D01*
X78108999Y-107188000D01*
X78161356Y-107451210D01*
X78176367Y-107526675D01*
X78288636Y-107694698D01*
X78368210Y-107813790D01*
X90814208Y-120259787D01*
X90814210Y-120259790D01*
X91101325Y-120451633D01*
X91157516Y-120462810D01*
X91440000Y-120519001D01*
X91440005Y-120519000D01*
X92393797Y-120519000D01*
X92459197Y-120616878D01*
X92910145Y-120918193D01*
X93442075Y-121024000D01*
X94372420Y-121024000D01*
X95635000Y-122286579D01*
X95635000Y-125606560D01*
X95520000Y-125606560D01*
X95284683Y-125650838D01*
X95068559Y-125789910D01*
X94923569Y-126002110D01*
X94872560Y-126254000D01*
X94872560Y-128254000D01*
X94916838Y-128489317D01*
X95055910Y-128705441D01*
X95268110Y-128850431D01*
X95520000Y-128901440D01*
X97520000Y-128901440D01*
X97755317Y-128857162D01*
X97971441Y-128718090D01*
X98116431Y-128505890D01*
X98136551Y-128406532D01*
X100547073Y-128406532D01*
X100645736Y-128673387D01*
X101255461Y-128899908D01*
X101905460Y-128875856D01*
X102394264Y-128673387D01*
X102492927Y-128406532D01*
X101520000Y-127433605D01*
X100547073Y-128406532D01*
X98136551Y-128406532D01*
X98167440Y-128254000D01*
X98167440Y-126989461D01*
X99874092Y-126989461D01*
X99898144Y-127639460D01*
X100100613Y-128128264D01*
X100367468Y-128226927D01*
X101340395Y-127254000D01*
X101699605Y-127254000D01*
X102672532Y-128226927D01*
X102939387Y-128128264D01*
X103165908Y-127518539D01*
X103141856Y-126868540D01*
X102939387Y-126379736D01*
X102672532Y-126281073D01*
X101699605Y-127254000D01*
X101340395Y-127254000D01*
X100367468Y-126281073D01*
X100100613Y-126379736D01*
X99874092Y-126989461D01*
X98167440Y-126989461D01*
X98167440Y-126254000D01*
X98138740Y-126101468D01*
X100547073Y-126101468D01*
X101520000Y-127074395D01*
X102492927Y-126101468D01*
X102426574Y-125922000D01*
X110435287Y-125922000D01*
X110435287Y-132292000D01*
X125276713Y-132292000D01*
X125276713Y-129712266D01*
X153028405Y-129712266D01*
X153550250Y-130975229D01*
X154515688Y-131942354D01*
X155777739Y-132466403D01*
X157144266Y-132467595D01*
X158407229Y-131945750D01*
X159374354Y-130980312D01*
X159898403Y-129718261D01*
X159899595Y-128351734D01*
X159377750Y-127088771D01*
X158412312Y-126121646D01*
X157150261Y-125597597D01*
X155783734Y-125596405D01*
X154520771Y-126118250D01*
X153553646Y-127083688D01*
X153029597Y-128345739D01*
X153028405Y-129712266D01*
X125276713Y-129712266D01*
X125276713Y-125922000D01*
X110435287Y-125922000D01*
X102426574Y-125922000D01*
X102394264Y-125834613D01*
X101784539Y-125608092D01*
X101134540Y-125632144D01*
X100645736Y-125834613D01*
X100547073Y-126101468D01*
X98138740Y-126101468D01*
X98123162Y-126018683D01*
X97984090Y-125802559D01*
X97771890Y-125657569D01*
X97520000Y-125606560D01*
X97405000Y-125606560D01*
X97405000Y-121920005D01*
X97405001Y-121920000D01*
X97337633Y-121581325D01*
X97145790Y-121294210D01*
X97145787Y-121294208D01*
X96370579Y-120519000D01*
X99505797Y-120519000D01*
X99571197Y-120616878D01*
X100022145Y-120918193D01*
X100554075Y-121024000D01*
X102137925Y-121024000D01*
X102669855Y-120918193D01*
X103120803Y-120616878D01*
X103186203Y-120519000D01*
X107125797Y-120519000D01*
X107191197Y-120616878D01*
X107642145Y-120918193D01*
X108174075Y-121024000D01*
X109168588Y-121024000D01*
X109262326Y-121086634D01*
X109601000Y-121154001D01*
X109939675Y-121086634D01*
X110150187Y-120945975D01*
X110289855Y-120918193D01*
X110740803Y-120616878D01*
X111042118Y-120165930D01*
X111147925Y-119634000D01*
X111042118Y-119102070D01*
X110740803Y-118651122D01*
X110292013Y-118351249D01*
X110365263Y-118329592D01*
X110788681Y-117987076D01*
X111048793Y-117508597D01*
X111063277Y-117435971D01*
X110940683Y-117221000D01*
X109093000Y-117221000D01*
X109093000Y-117241000D01*
X108839000Y-117241000D01*
X108839000Y-117221000D01*
X106991317Y-117221000D01*
X106868723Y-117435971D01*
X106883207Y-117508597D01*
X107143319Y-117987076D01*
X107566737Y-118329592D01*
X107639987Y-118351249D01*
X107191197Y-118651122D01*
X107125797Y-118749000D01*
X103186203Y-118749000D01*
X103120803Y-118651122D01*
X102672013Y-118351249D01*
X102745263Y-118329592D01*
X103168681Y-117987076D01*
X103428793Y-117508597D01*
X103443277Y-117435971D01*
X103320683Y-117221000D01*
X101473000Y-117221000D01*
X101473000Y-117241000D01*
X101219000Y-117241000D01*
X101219000Y-117221000D01*
X99371317Y-117221000D01*
X99248723Y-117435971D01*
X99263207Y-117508597D01*
X99523319Y-117987076D01*
X99946737Y-118329592D01*
X100019987Y-118351249D01*
X99571197Y-118651122D01*
X99505797Y-118749000D01*
X96074203Y-118749000D01*
X96008803Y-118651122D01*
X95560013Y-118351249D01*
X95633263Y-118329592D01*
X96056681Y-117987076D01*
X96316793Y-117508597D01*
X96331277Y-117435971D01*
X96208683Y-117221000D01*
X94361000Y-117221000D01*
X94361000Y-117241000D01*
X94107000Y-117241000D01*
X94107000Y-117221000D01*
X92259317Y-117221000D01*
X92136723Y-117435971D01*
X92151207Y-117508597D01*
X92411319Y-117987076D01*
X92834737Y-118329592D01*
X92907987Y-118351249D01*
X92459197Y-118651122D01*
X92393797Y-118749000D01*
X91806579Y-118749000D01*
X79879000Y-106821420D01*
X79879000Y-101712580D01*
X82095784Y-99495796D01*
X82210582Y-99572501D01*
X81820034Y-99930424D01*
X81566954Y-100473258D01*
X81687003Y-100711000D01*
X82931000Y-100711000D01*
X82931000Y-100691000D01*
X83185000Y-100691000D01*
X83185000Y-100711000D01*
X84428997Y-100711000D01*
X84549046Y-100473258D01*
X84295966Y-99930424D01*
X83905418Y-99572501D01*
X84143409Y-99413481D01*
X84476155Y-98915491D01*
X84593000Y-98328072D01*
X84593000Y-98267928D01*
X84476155Y-97680509D01*
X84143409Y-97182519D01*
X83645419Y-96849773D01*
X83058000Y-96732928D01*
X82470581Y-96849773D01*
X81972591Y-97182519D01*
X81784344Y-97464251D01*
X81759516Y-97469190D01*
X81703325Y-97480367D01*
X81416210Y-97672210D01*
X81416208Y-97672213D01*
X78368210Y-100720210D01*
X78176367Y-101007325D01*
X78165190Y-101063516D01*
X78108999Y-101346000D01*
X74694496Y-101346000D01*
X74678177Y-96303223D01*
X86945035Y-96303223D01*
X86972222Y-96873454D01*
X87138136Y-97274005D01*
X87384255Y-97348139D01*
X88212395Y-96520000D01*
X87384255Y-95691861D01*
X87138136Y-95765995D01*
X86945035Y-96303223D01*
X74678177Y-96303223D01*
X74675618Y-95512255D01*
X87563861Y-95512255D01*
X88392000Y-96340395D01*
X89220139Y-95512255D01*
X89146005Y-95266136D01*
X88608777Y-95073035D01*
X88038546Y-95100222D01*
X87637995Y-95266136D01*
X87563861Y-95512255D01*
X74675618Y-95512255D01*
X74663339Y-91718471D01*
X80579723Y-91718471D01*
X80594207Y-91791097D01*
X80854319Y-92269576D01*
X81277737Y-92612092D01*
X81800000Y-92766500D01*
X82550000Y-92766500D01*
X82550000Y-91503500D01*
X82804000Y-91503500D01*
X82804000Y-92766500D01*
X83554000Y-92766500D01*
X84076263Y-92612092D01*
X84499681Y-92269576D01*
X84759793Y-91791097D01*
X84774277Y-91718471D01*
X84651683Y-91503500D01*
X82804000Y-91503500D01*
X82550000Y-91503500D01*
X80702317Y-91503500D01*
X80579723Y-91718471D01*
X74663339Y-91718471D01*
X74654012Y-88836500D01*
X80495075Y-88836500D01*
X80600882Y-89368430D01*
X80902197Y-89819378D01*
X81350987Y-90119251D01*
X81277737Y-90140908D01*
X80854319Y-90483424D01*
X80594207Y-90961903D01*
X80579723Y-91034529D01*
X80702317Y-91249500D01*
X82550000Y-91249500D01*
X82550000Y-91229500D01*
X82804000Y-91229500D01*
X82804000Y-91249500D01*
X84651683Y-91249500D01*
X84774277Y-91034529D01*
X84759793Y-90961903D01*
X84499681Y-90483424D01*
X84076263Y-90140908D01*
X84003013Y-90119251D01*
X84451803Y-89819378D01*
X84517203Y-89721500D01*
X90614495Y-89721500D01*
X90614500Y-89721501D01*
X90809000Y-89682812D01*
X90809000Y-95645421D01*
X89833444Y-96620977D01*
X89811778Y-96166546D01*
X89645864Y-95765995D01*
X89399745Y-95691861D01*
X88571605Y-96520000D01*
X88585748Y-96534142D01*
X88406142Y-96713748D01*
X88392000Y-96699605D01*
X87563861Y-97527745D01*
X87637995Y-97773864D01*
X88175223Y-97966965D01*
X88503087Y-97951333D01*
X84424350Y-102030071D01*
X84422090Y-102026559D01*
X84209890Y-101881569D01*
X84158854Y-101871234D01*
X84295966Y-101745576D01*
X84549046Y-101202742D01*
X84428997Y-100965000D01*
X83185000Y-100965000D01*
X83185000Y-100985000D01*
X82931000Y-100985000D01*
X82931000Y-100965000D01*
X81687003Y-100965000D01*
X81566954Y-101202742D01*
X81820034Y-101745576D01*
X81954538Y-101868844D01*
X81922683Y-101874838D01*
X81706559Y-102013910D01*
X81561569Y-102226110D01*
X81510560Y-102478000D01*
X81510560Y-104278000D01*
X81554838Y-104513317D01*
X81693910Y-104729441D01*
X81906110Y-104874431D01*
X82158000Y-104925440D01*
X83958000Y-104925440D01*
X84193317Y-104881162D01*
X84409441Y-104742090D01*
X84554431Y-104529890D01*
X84605440Y-104278000D01*
X84605440Y-104207813D01*
X84610484Y-104206810D01*
X84666675Y-104195633D01*
X84953790Y-104003790D01*
X85079834Y-103877745D01*
X87563861Y-103877745D01*
X87637995Y-104123864D01*
X88175223Y-104316965D01*
X88745454Y-104289778D01*
X89146005Y-104123864D01*
X89220139Y-103877745D01*
X88392000Y-103049605D01*
X87563861Y-103877745D01*
X85079834Y-103877745D01*
X86304356Y-102653223D01*
X86945035Y-102653223D01*
X86972222Y-103223454D01*
X87138136Y-103624005D01*
X87384255Y-103698139D01*
X88212395Y-102870000D01*
X88571605Y-102870000D01*
X89399745Y-103698139D01*
X89645864Y-103624005D01*
X89838965Y-103086777D01*
X89811778Y-102516546D01*
X89645864Y-102115995D01*
X89399745Y-102041861D01*
X88571605Y-102870000D01*
X88212395Y-102870000D01*
X87384255Y-102041861D01*
X87138136Y-102115995D01*
X86945035Y-102653223D01*
X86304356Y-102653223D01*
X87095324Y-101862255D01*
X87563861Y-101862255D01*
X88392000Y-102690395D01*
X89220139Y-101862255D01*
X89146005Y-101616136D01*
X88608777Y-101423035D01*
X88038546Y-101450222D01*
X87637995Y-101616136D01*
X87563861Y-101862255D01*
X87095324Y-101862255D01*
X92014246Y-96943333D01*
X92174757Y-97331800D01*
X92578077Y-97735824D01*
X93105309Y-97954750D01*
X93676187Y-97955248D01*
X94203800Y-97737243D01*
X94536623Y-97405000D01*
X100155995Y-97405000D01*
X100156000Y-97405001D01*
X100441858Y-97348139D01*
X100494675Y-97337633D01*
X100781790Y-97145790D01*
X101720695Y-96206884D01*
X102128285Y-96207240D01*
X102637515Y-95996831D01*
X102927852Y-95707000D01*
X104615420Y-95707000D01*
X106054208Y-97145787D01*
X106054210Y-97145790D01*
X106341325Y-97337633D01*
X106394142Y-97348139D01*
X106680000Y-97405001D01*
X106680005Y-97405000D01*
X110984690Y-97405000D01*
X111071352Y-97534698D01*
X111453438Y-97790000D01*
X111071352Y-98045302D01*
X110760283Y-98510849D01*
X110675516Y-98937000D01*
X102927523Y-98937000D01*
X102639564Y-98648539D01*
X102130702Y-98437241D01*
X101579715Y-98436760D01*
X101070485Y-98647169D01*
X100680539Y-99036436D01*
X100469241Y-99545298D01*
X100468883Y-99955538D01*
X98439420Y-101985000D01*
X94536171Y-101985000D01*
X94205923Y-101654176D01*
X93678691Y-101435250D01*
X93107813Y-101434752D01*
X92580200Y-101652757D01*
X92176176Y-102056077D01*
X91957250Y-102583309D01*
X91956752Y-103154187D01*
X92174757Y-103681800D01*
X92578077Y-104085824D01*
X93105309Y-104304750D01*
X93676187Y-104305248D01*
X94203800Y-104087243D01*
X94536623Y-103755000D01*
X98805995Y-103755000D01*
X98806000Y-103755001D01*
X99091858Y-103698139D01*
X99144675Y-103687633D01*
X99431790Y-103495790D01*
X101720695Y-101206884D01*
X102128285Y-101207240D01*
X102637515Y-100996831D01*
X102927852Y-100707000D01*
X110990036Y-100707000D01*
X110760283Y-101050849D01*
X110651050Y-101600000D01*
X110760283Y-102149151D01*
X111071352Y-102614698D01*
X111453438Y-102870000D01*
X111071352Y-103125302D01*
X110984690Y-103255000D01*
X109855005Y-103255000D01*
X109855000Y-103254999D01*
X109572516Y-103311190D01*
X109516325Y-103322367D01*
X109229210Y-103514210D01*
X109229208Y-103514213D01*
X105292210Y-107451210D01*
X105100367Y-107738325D01*
X105100367Y-107738326D01*
X105032999Y-108077000D01*
X105033000Y-108077005D01*
X105033000Y-110758421D01*
X104535420Y-111256000D01*
X100838000Y-111256000D01*
X100499325Y-111323367D01*
X100212210Y-111515210D01*
X100212208Y-111515213D01*
X98058420Y-113669000D01*
X96074203Y-113669000D01*
X96008803Y-113571122D01*
X95557855Y-113269807D01*
X95025925Y-113164000D01*
X93442075Y-113164000D01*
X92910145Y-113269807D01*
X92459197Y-113571122D01*
X92157882Y-114022070D01*
X92052075Y-114554000D01*
X92157882Y-115085930D01*
X92459197Y-115536878D01*
X92907987Y-115836751D01*
X92834737Y-115858408D01*
X92411319Y-116200924D01*
X92151207Y-116679403D01*
X92136723Y-116752029D01*
X92259317Y-116967000D01*
X94107000Y-116967000D01*
X94107000Y-116947000D01*
X94361000Y-116947000D01*
X94361000Y-116967000D01*
X96208683Y-116967000D01*
X96331277Y-116752029D01*
X96316793Y-116679403D01*
X96056681Y-116200924D01*
X95633263Y-115858408D01*
X95560013Y-115836751D01*
X96008803Y-115536878D01*
X96074203Y-115439000D01*
X98424995Y-115439000D01*
X98425000Y-115439001D01*
X98707484Y-115382810D01*
X98763675Y-115371633D01*
X99050790Y-115179790D01*
X99249105Y-114981475D01*
X99269882Y-115085930D01*
X99571197Y-115536878D01*
X100019987Y-115836751D01*
X99946737Y-115858408D01*
X99523319Y-116200924D01*
X99263207Y-116679403D01*
X99248723Y-116752029D01*
X99371317Y-116967000D01*
X101219000Y-116967000D01*
X101219000Y-116947000D01*
X101473000Y-116947000D01*
X101473000Y-116967000D01*
X103320683Y-116967000D01*
X103443277Y-116752029D01*
X103428793Y-116679403D01*
X103168681Y-116200924D01*
X102745263Y-115858408D01*
X102672013Y-115836751D01*
X103120803Y-115536878D01*
X103186203Y-115439000D01*
X105155995Y-115439000D01*
X105156000Y-115439001D01*
X105438484Y-115382810D01*
X105494675Y-115371633D01*
X105781790Y-115179790D01*
X106877559Y-114084020D01*
X106784075Y-114554000D01*
X106889882Y-115085930D01*
X107191197Y-115536878D01*
X107639987Y-115836751D01*
X107566737Y-115858408D01*
X107143319Y-116200924D01*
X106883207Y-116679403D01*
X106868723Y-116752029D01*
X106991317Y-116967000D01*
X108839000Y-116967000D01*
X108839000Y-116947000D01*
X109093000Y-116947000D01*
X109093000Y-116967000D01*
X110940683Y-116967000D01*
X111063277Y-116752029D01*
X111048793Y-116679403D01*
X110788681Y-116200924D01*
X110365263Y-115858408D01*
X110292013Y-115836751D01*
X110740803Y-115536878D01*
X111042118Y-115085930D01*
X111147925Y-114554000D01*
X111042118Y-114022070D01*
X110740803Y-113571122D01*
X110289855Y-113269807D01*
X109851000Y-113182514D01*
X109851000Y-111110580D01*
X110856579Y-110105000D01*
X110984690Y-110105000D01*
X111071352Y-110234698D01*
X111536899Y-110545767D01*
X112086050Y-110655000D01*
X112957950Y-110655000D01*
X113507101Y-110545767D01*
X113972648Y-110234698D01*
X114283717Y-109769151D01*
X114392950Y-109220000D01*
X114283717Y-108670849D01*
X113972648Y-108205302D01*
X113590562Y-107950000D01*
X113972648Y-107694698D01*
X114283717Y-107229151D01*
X114392950Y-106680000D01*
X114283717Y-106130849D01*
X113972648Y-105665302D01*
X113590562Y-105410000D01*
X113972648Y-105154698D01*
X114283717Y-104689151D01*
X114392950Y-104140000D01*
X114283717Y-103590849D01*
X113972648Y-103125302D01*
X113590562Y-102870000D01*
X113972648Y-102614698D01*
X114283717Y-102149151D01*
X114392950Y-101600000D01*
X114283717Y-101050849D01*
X113972648Y-100585302D01*
X113590562Y-100330000D01*
X113972648Y-100074698D01*
X114283717Y-99609151D01*
X114392950Y-99060000D01*
X114283717Y-98510849D01*
X113972648Y-98045302D01*
X113590562Y-97790000D01*
X113972648Y-97534698D01*
X114283717Y-97069151D01*
X114392950Y-96520000D01*
X114283717Y-95970849D01*
X113972648Y-95505302D01*
X113594293Y-95252493D01*
X114026500Y-94904896D01*
X114296367Y-94411819D01*
X114313904Y-94329039D01*
X114191915Y-94107000D01*
X112649000Y-94107000D01*
X112649000Y-94127000D01*
X112395000Y-94127000D01*
X112395000Y-94107000D01*
X110852085Y-94107000D01*
X110730096Y-94329039D01*
X110747633Y-94411819D01*
X111017500Y-94904896D01*
X111449707Y-95252493D01*
X111071352Y-95505302D01*
X110984690Y-95635000D01*
X107046579Y-95635000D01*
X105607790Y-94196210D01*
X105320675Y-94004367D01*
X105264484Y-93993190D01*
X104982000Y-93936999D01*
X104981995Y-93937000D01*
X102927523Y-93937000D01*
X102639564Y-93648539D01*
X102130702Y-93437241D01*
X101579715Y-93436760D01*
X101070485Y-93647169D01*
X100680539Y-94036436D01*
X100469241Y-94545298D01*
X100468883Y-94955538D01*
X99789420Y-95635000D01*
X94536171Y-95635000D01*
X94205923Y-95304176D01*
X93678691Y-95085250D01*
X93107813Y-95084752D01*
X92580200Y-95302757D01*
X92579000Y-95303955D01*
X92579000Y-89188446D01*
X92729317Y-89160162D01*
X92945441Y-89021090D01*
X93090431Y-88808890D01*
X93099370Y-88764745D01*
X93365861Y-88764745D01*
X93439995Y-89010864D01*
X93977223Y-89203965D01*
X94547454Y-89176778D01*
X94948005Y-89010864D01*
X95022139Y-88764745D01*
X94194000Y-87936605D01*
X93365861Y-88764745D01*
X93099370Y-88764745D01*
X93138646Y-88570799D01*
X93186255Y-88585139D01*
X94014395Y-87757000D01*
X94373605Y-87757000D01*
X95201745Y-88585139D01*
X95447864Y-88511005D01*
X95524875Y-88296750D01*
X103494000Y-88296750D01*
X103494000Y-89037309D01*
X103590673Y-89270698D01*
X103769301Y-89449327D01*
X104002690Y-89546000D01*
X104743250Y-89546000D01*
X104902000Y-89387250D01*
X104902000Y-88138000D01*
X105156000Y-88138000D01*
X105156000Y-89387250D01*
X105314750Y-89546000D01*
X106055310Y-89546000D01*
X106288699Y-89449327D01*
X106467327Y-89270698D01*
X106564000Y-89037309D01*
X106564000Y-88296750D01*
X106405250Y-88138000D01*
X105156000Y-88138000D01*
X104902000Y-88138000D01*
X103652750Y-88138000D01*
X103494000Y-88296750D01*
X95524875Y-88296750D01*
X95640965Y-87973777D01*
X95613778Y-87403546D01*
X95447864Y-87002995D01*
X95201745Y-86928861D01*
X94373605Y-87757000D01*
X94014395Y-87757000D01*
X93186255Y-86928861D01*
X93138833Y-86943145D01*
X93102351Y-86749255D01*
X93365861Y-86749255D01*
X94194000Y-87577395D01*
X95022139Y-86749255D01*
X94948005Y-86503136D01*
X94410777Y-86310035D01*
X93840546Y-86337222D01*
X93439995Y-86503136D01*
X93365861Y-86749255D01*
X93102351Y-86749255D01*
X93097162Y-86721683D01*
X92958090Y-86505559D01*
X92745890Y-86360569D01*
X92494000Y-86309560D01*
X90894000Y-86309560D01*
X90658683Y-86353838D01*
X90442559Y-86492910D01*
X90297569Y-86705110D01*
X90246560Y-86957000D01*
X90246560Y-87951500D01*
X84517203Y-87951500D01*
X84451803Y-87853622D01*
X84387500Y-87810656D01*
X84387500Y-83208440D01*
X84402500Y-83208440D01*
X84637817Y-83164162D01*
X84853941Y-83025090D01*
X84998931Y-82812890D01*
X85049940Y-82561000D01*
X85049940Y-80761000D01*
X85005662Y-80525683D01*
X84866590Y-80309559D01*
X84654390Y-80164569D01*
X84603354Y-80154234D01*
X84740466Y-80028576D01*
X84993546Y-79485742D01*
X84873497Y-79248000D01*
X83629500Y-79248000D01*
X83629500Y-79268000D01*
X83375500Y-79268000D01*
X83375500Y-79248000D01*
X82131503Y-79248000D01*
X82011454Y-79485742D01*
X82264534Y-80028576D01*
X82399038Y-80151844D01*
X82367183Y-80157838D01*
X82151059Y-80296910D01*
X82006069Y-80509110D01*
X81955060Y-80761000D01*
X81955060Y-82561000D01*
X81999338Y-82796317D01*
X82138410Y-83012441D01*
X82350610Y-83157431D01*
X82602500Y-83208440D01*
X82617500Y-83208440D01*
X82617500Y-87446500D01*
X81885075Y-87446500D01*
X81353145Y-87552307D01*
X80902197Y-87853622D01*
X80600882Y-88304570D01*
X80495075Y-88836500D01*
X74654012Y-88836500D01*
X74624000Y-79563000D01*
X74624000Y-76550928D01*
X81967500Y-76550928D01*
X81967500Y-76611072D01*
X82084345Y-77198491D01*
X82417091Y-77696481D01*
X82655082Y-77855501D01*
X82264534Y-78213424D01*
X82011454Y-78756258D01*
X82131503Y-78994000D01*
X83375500Y-78994000D01*
X83375500Y-78974000D01*
X83629500Y-78974000D01*
X83629500Y-78994000D01*
X84873497Y-78994000D01*
X84993546Y-78756258D01*
X84740466Y-78213424D01*
X84349918Y-77855501D01*
X84587909Y-77696481D01*
X84741911Y-77466000D01*
X89915995Y-77466000D01*
X89916000Y-77466001D01*
X90198484Y-77409810D01*
X90254675Y-77398633D01*
X90541790Y-77206790D01*
X91117140Y-76631440D01*
X92113000Y-76631440D01*
X92348317Y-76587162D01*
X92564441Y-76448090D01*
X92709431Y-76235890D01*
X92718370Y-76191745D01*
X92984861Y-76191745D01*
X93058995Y-76437864D01*
X93596223Y-76630965D01*
X94166454Y-76603778D01*
X94567005Y-76437864D01*
X94641139Y-76191745D01*
X93813000Y-75363605D01*
X92984861Y-76191745D01*
X92718370Y-76191745D01*
X92757646Y-75997799D01*
X92805255Y-76012139D01*
X93633395Y-75184000D01*
X93992605Y-75184000D01*
X94820745Y-76012139D01*
X95066864Y-75938005D01*
X95259965Y-75400777D01*
X95232778Y-74830546D01*
X95066864Y-74429995D01*
X94820745Y-74355861D01*
X93992605Y-75184000D01*
X93633395Y-75184000D01*
X92805255Y-74355861D01*
X92757833Y-74370145D01*
X92721351Y-74176255D01*
X92984861Y-74176255D01*
X93813000Y-75004395D01*
X94641139Y-74176255D01*
X94567005Y-73930136D01*
X94029777Y-73737035D01*
X93459546Y-73764222D01*
X93058995Y-73930136D01*
X92984861Y-74176255D01*
X92721351Y-74176255D01*
X92716162Y-74148683D01*
X92577090Y-73932559D01*
X92364890Y-73787569D01*
X92198000Y-73753773D01*
X92198000Y-72058080D01*
X93394079Y-70862000D01*
X100201829Y-70862000D01*
X100532077Y-71192824D01*
X101059309Y-71411750D01*
X101630187Y-71412248D01*
X102157800Y-71194243D01*
X102433472Y-70919052D01*
X103128000Y-71613579D01*
X103128000Y-81937420D01*
X102364580Y-81174001D01*
X102671767Y-80714264D01*
X102781000Y-80165113D01*
X102781000Y-80108887D01*
X102671767Y-79559736D01*
X102360698Y-79094189D01*
X101895151Y-78783120D01*
X101346000Y-78673887D01*
X100796849Y-78783120D01*
X100331302Y-79094189D01*
X100020233Y-79559736D01*
X99911000Y-80108887D01*
X99911000Y-80165113D01*
X100020233Y-80714264D01*
X100331302Y-81179811D01*
X100461000Y-81266473D01*
X100461000Y-81406995D01*
X100460999Y-81407000D01*
X100503105Y-81618674D01*
X100528367Y-81745675D01*
X100584144Y-81829151D01*
X100720210Y-82032790D01*
X103599154Y-84911733D01*
X103494267Y-85164330D01*
X103493735Y-85774991D01*
X103726932Y-86339371D01*
X103904092Y-86516841D01*
X103769301Y-86572673D01*
X103590673Y-86751302D01*
X103494000Y-86984691D01*
X103494000Y-87725250D01*
X103652750Y-87884000D01*
X104902000Y-87884000D01*
X104902000Y-87864000D01*
X105156000Y-87864000D01*
X105156000Y-87884000D01*
X106405250Y-87884000D01*
X106564000Y-87725250D01*
X106564000Y-86984691D01*
X106467327Y-86751302D01*
X106288699Y-86572673D01*
X106154006Y-86516881D01*
X106329551Y-86341643D01*
X106563733Y-85777670D01*
X106563877Y-85612886D01*
X108335000Y-87254415D01*
X108335000Y-89662000D01*
X108345825Y-89716421D01*
X108341833Y-89771771D01*
X108379227Y-89884345D01*
X108402367Y-90000675D01*
X108433195Y-90046813D01*
X108450688Y-90099474D01*
X108528308Y-90189160D01*
X108594210Y-90287790D01*
X108640351Y-90318620D01*
X108676663Y-90360577D01*
X110758405Y-91979710D01*
X110760283Y-91989151D01*
X111071352Y-92454698D01*
X111449707Y-92707507D01*
X111017500Y-93055104D01*
X110747633Y-93548181D01*
X110730096Y-93630961D01*
X110852085Y-93853000D01*
X112395000Y-93853000D01*
X112395000Y-93833000D01*
X112649000Y-93833000D01*
X112649000Y-93853000D01*
X114191915Y-93853000D01*
X114313904Y-93630961D01*
X114296367Y-93548181D01*
X114026500Y-93055104D01*
X113594293Y-92707507D01*
X113972648Y-92454698D01*
X114059310Y-92325000D01*
X115266920Y-92325000D01*
X115828000Y-92886079D01*
X115828000Y-95503995D01*
X115827999Y-95504000D01*
X115854979Y-95639633D01*
X115895367Y-95842675D01*
X115981010Y-95970849D01*
X116087210Y-96129790D01*
X116667921Y-96710500D01*
X115960210Y-97418210D01*
X115768367Y-97705325D01*
X115768367Y-97705326D01*
X115700999Y-98044000D01*
X115701000Y-98044005D01*
X115701000Y-109615421D01*
X112658210Y-112658210D01*
X112466367Y-112945325D01*
X112466367Y-112945326D01*
X112398999Y-113284000D01*
X112399000Y-113284005D01*
X112399000Y-118363995D01*
X112398999Y-118364000D01*
X112432681Y-118533325D01*
X112466367Y-118702675D01*
X112658210Y-118989790D01*
X113928208Y-120259787D01*
X113928210Y-120259790D01*
X113945169Y-120271122D01*
X114176197Y-120616878D01*
X114627145Y-120918193D01*
X115159075Y-121024000D01*
X116742925Y-121024000D01*
X117274855Y-120918193D01*
X117725803Y-120616878D01*
X118027118Y-120165930D01*
X118132925Y-119634000D01*
X118027118Y-119102070D01*
X117725803Y-118651122D01*
X117277013Y-118351249D01*
X117350263Y-118329592D01*
X117773681Y-117987076D01*
X118033793Y-117508597D01*
X118048277Y-117435971D01*
X117925683Y-117221000D01*
X123832000Y-117221000D01*
X123832000Y-117971000D01*
X123986408Y-118493263D01*
X124328924Y-118916681D01*
X124807403Y-119176793D01*
X124880029Y-119191277D01*
X125095000Y-119068683D01*
X125095000Y-117221000D01*
X123832000Y-117221000D01*
X117925683Y-117221000D01*
X116078000Y-117221000D01*
X116078000Y-117241000D01*
X115824000Y-117241000D01*
X115824000Y-117221000D01*
X115804000Y-117221000D01*
X115804000Y-116967000D01*
X115824000Y-116967000D01*
X115824000Y-116947000D01*
X116078000Y-116947000D01*
X116078000Y-116967000D01*
X117925683Y-116967000D01*
X118048277Y-116752029D01*
X118033793Y-116679403D01*
X117782421Y-116217000D01*
X123832000Y-116217000D01*
X123832000Y-116967000D01*
X125095000Y-116967000D01*
X125095000Y-115119317D01*
X125349000Y-115119317D01*
X125349000Y-116967000D01*
X125369000Y-116967000D01*
X125369000Y-117221000D01*
X125349000Y-117221000D01*
X125349000Y-119068683D01*
X125563971Y-119191277D01*
X125636597Y-119176793D01*
X126115076Y-118916681D01*
X126457592Y-118493263D01*
X126479249Y-118420013D01*
X126779122Y-118868803D01*
X126877000Y-118934203D01*
X126877000Y-122427995D01*
X126876999Y-122428000D01*
X126912295Y-122605440D01*
X126944367Y-122766675D01*
X127060996Y-122941223D01*
X127136210Y-123053790D01*
X130946208Y-126863787D01*
X130946210Y-126863790D01*
X131233325Y-127055633D01*
X131289516Y-127066810D01*
X131572000Y-127123001D01*
X131572005Y-127123000D01*
X141557995Y-127123000D01*
X141558000Y-127123001D01*
X141840484Y-127066810D01*
X141896675Y-127055633D01*
X142183790Y-126863790D01*
X142715438Y-126332142D01*
X142755352Y-126348716D01*
X143405795Y-126349284D01*
X144006943Y-126100894D01*
X144467278Y-125641363D01*
X144716716Y-125040648D01*
X144717284Y-124390205D01*
X144468894Y-123789057D01*
X144009363Y-123328722D01*
X143408648Y-123079284D01*
X142758205Y-123078716D01*
X142157057Y-123327106D01*
X141696722Y-123786637D01*
X141447284Y-124387352D01*
X141446716Y-125037795D01*
X141464232Y-125080188D01*
X141191420Y-125353000D01*
X131938579Y-125353000D01*
X130751325Y-124165745D01*
X134553861Y-124165745D01*
X134627995Y-124411864D01*
X135165223Y-124604965D01*
X135735454Y-124577778D01*
X136136005Y-124411864D01*
X136210139Y-124165745D01*
X135382000Y-123337605D01*
X134553861Y-124165745D01*
X130751325Y-124165745D01*
X128647000Y-122061420D01*
X128647000Y-118934203D01*
X128744878Y-118868803D01*
X129046193Y-118417855D01*
X129152000Y-117885925D01*
X129152000Y-116955580D01*
X129521579Y-116586000D01*
X133664887Y-116586000D01*
X133774120Y-117135151D01*
X134085189Y-117600698D01*
X134497000Y-117875862D01*
X134497000Y-119726554D01*
X134346683Y-119754838D01*
X134130559Y-119893910D01*
X133985569Y-120106110D01*
X133934560Y-120358000D01*
X133934560Y-121958000D01*
X133978838Y-122193317D01*
X134117910Y-122409441D01*
X134124548Y-122413977D01*
X133935035Y-122941223D01*
X133962222Y-123511454D01*
X134128136Y-123912005D01*
X134374255Y-123986139D01*
X135202395Y-123158000D01*
X135188252Y-123143858D01*
X135367858Y-122964253D01*
X135382000Y-122978395D01*
X135396143Y-122964253D01*
X135575748Y-123143858D01*
X135561605Y-123158000D01*
X136389745Y-123986139D01*
X136635864Y-123912005D01*
X136828965Y-123374777D01*
X136801778Y-122804546D01*
X136639616Y-122413053D01*
X136778431Y-122209890D01*
X136829440Y-121958000D01*
X136829440Y-120358000D01*
X136785162Y-120122683D01*
X136646090Y-119906559D01*
X136433890Y-119761569D01*
X136267000Y-119727773D01*
X136267000Y-117456741D01*
X136481880Y-117135151D01*
X136591113Y-116586000D01*
X136481880Y-116036849D01*
X136170811Y-115571302D01*
X135705264Y-115260233D01*
X135156113Y-115151000D01*
X135099887Y-115151000D01*
X134550736Y-115260233D01*
X134085189Y-115571302D01*
X133774120Y-116036849D01*
X133664887Y-116586000D01*
X129521579Y-116586000D01*
X131181787Y-114925792D01*
X131181790Y-114925790D01*
X131373633Y-114638675D01*
X131398895Y-114511674D01*
X131441001Y-114300000D01*
X131441000Y-114299995D01*
X131441000Y-111864144D01*
X131598811Y-111758698D01*
X131909880Y-111293151D01*
X132019113Y-110744000D01*
X131909880Y-110194849D01*
X131598811Y-109729302D01*
X131133264Y-109418233D01*
X130584113Y-109309000D01*
X130527887Y-109309000D01*
X129978736Y-109418233D01*
X129513189Y-109729302D01*
X129202120Y-110194849D01*
X129092887Y-110744000D01*
X129202120Y-111293151D01*
X129513189Y-111758698D01*
X129671000Y-111864144D01*
X129671000Y-113933421D01*
X128469336Y-115135085D01*
X128293930Y-115017882D01*
X127762000Y-114912075D01*
X127230070Y-115017882D01*
X126779122Y-115319197D01*
X126479249Y-115767987D01*
X126457592Y-115694737D01*
X126115076Y-115271319D01*
X125636597Y-115011207D01*
X125563971Y-114996723D01*
X125349000Y-115119317D01*
X125095000Y-115119317D01*
X124880029Y-114996723D01*
X124807403Y-115011207D01*
X124328924Y-115271319D01*
X123986408Y-115694737D01*
X123832000Y-116217000D01*
X117782421Y-116217000D01*
X117773681Y-116200924D01*
X117350263Y-115858408D01*
X117277013Y-115836751D01*
X117725803Y-115536878D01*
X118027118Y-115085930D01*
X118132925Y-114554000D01*
X118027118Y-114022070D01*
X117757308Y-113618272D01*
X118481787Y-112893792D01*
X118481790Y-112893790D01*
X118673633Y-112606675D01*
X118710259Y-112422546D01*
X118741001Y-112268000D01*
X118741000Y-112267995D01*
X118741000Y-110267872D01*
X119156899Y-110545767D01*
X119706050Y-110655000D01*
X120577950Y-110655000D01*
X121127101Y-110545767D01*
X121592648Y-110234698D01*
X121903717Y-109769151D01*
X122012950Y-109220000D01*
X121903717Y-108670849D01*
X121592648Y-108205302D01*
X121210562Y-107950000D01*
X121592648Y-107694698D01*
X121903717Y-107229151D01*
X122012950Y-106680000D01*
X121903717Y-106130849D01*
X121592648Y-105665302D01*
X121210562Y-105410000D01*
X121592648Y-105154698D01*
X121679310Y-105025000D01*
X123609829Y-105025000D01*
X123940077Y-105355824D01*
X124467309Y-105574750D01*
X125038187Y-105575248D01*
X125565800Y-105357243D01*
X125834583Y-105088928D01*
X125850838Y-105175317D01*
X125989910Y-105391441D01*
X126202110Y-105536431D01*
X126402209Y-105576952D01*
X126405600Y-105594000D01*
X126436367Y-105748675D01*
X126628210Y-106035790D01*
X128406208Y-107813787D01*
X128406210Y-107813790D01*
X128693325Y-108005633D01*
X128749516Y-108016810D01*
X129032000Y-108073001D01*
X129032005Y-108073000D01*
X137159995Y-108073000D01*
X137160000Y-108073001D01*
X137442484Y-108016810D01*
X137498675Y-108005633D01*
X137785790Y-107813790D01*
X138293787Y-107305792D01*
X138293790Y-107305790D01*
X138485633Y-107018675D01*
X138553000Y-106680000D01*
X138553000Y-105931310D01*
X138682698Y-105844648D01*
X138935507Y-105466293D01*
X139283104Y-105898500D01*
X139776181Y-106168367D01*
X139858961Y-106185904D01*
X140081000Y-106063915D01*
X140081000Y-104521000D01*
X140335000Y-104521000D01*
X140335000Y-106063915D01*
X140557039Y-106185904D01*
X140639819Y-106168367D01*
X141132896Y-105898500D01*
X141485166Y-105460483D01*
X141643000Y-104921000D01*
X141643000Y-104521000D01*
X140335000Y-104521000D01*
X140081000Y-104521000D01*
X140061000Y-104521000D01*
X140061000Y-104267000D01*
X140081000Y-104267000D01*
X140081000Y-104247000D01*
X140335000Y-104247000D01*
X140335000Y-104267000D01*
X141643000Y-104267000D01*
X141643000Y-103867000D01*
X141485166Y-103327517D01*
X141420411Y-103247000D01*
X142406367Y-103247000D01*
X143364130Y-103438553D01*
X143511302Y-103658811D01*
X143976849Y-103969880D01*
X144526000Y-104079113D01*
X145075151Y-103969880D01*
X145540698Y-103658811D01*
X145851767Y-103193264D01*
X145961000Y-102644113D01*
X145961000Y-102587887D01*
X145878239Y-102171818D01*
X146435000Y-102728579D01*
X146435000Y-106171995D01*
X146434999Y-106172000D01*
X146468681Y-106341325D01*
X146502367Y-106510675D01*
X146615506Y-106680000D01*
X146694210Y-106797790D01*
X146927375Y-107030954D01*
X147772941Y-107997315D01*
X147717284Y-108131352D01*
X147716716Y-108781795D01*
X147965106Y-109382943D01*
X148424637Y-109843278D01*
X148467000Y-109860869D01*
X148467000Y-111393421D01*
X144662210Y-115198210D01*
X144575735Y-115327630D01*
X144476200Y-115368757D01*
X144072176Y-115772077D01*
X143853250Y-116299309D01*
X143852752Y-116870187D01*
X144070757Y-117397800D01*
X144474077Y-117801824D01*
X145001309Y-118020750D01*
X145572187Y-118021248D01*
X146099800Y-117803243D01*
X146503824Y-117399923D01*
X146722750Y-116872691D01*
X146723248Y-116301813D01*
X146529843Y-115833737D01*
X149977787Y-112385792D01*
X149977790Y-112385790D01*
X150169633Y-112098675D01*
X150196970Y-111961243D01*
X150237001Y-111760000D01*
X150237000Y-111759995D01*
X150237000Y-109861398D01*
X150276943Y-109844894D01*
X150737278Y-109385363D01*
X150754869Y-109343000D01*
X152634138Y-109343000D01*
X152909302Y-109754811D01*
X153374849Y-110065880D01*
X153924000Y-110175113D01*
X154473151Y-110065880D01*
X154938698Y-109754811D01*
X155249767Y-109289264D01*
X155359000Y-108740113D01*
X155359000Y-108683887D01*
X155249767Y-108134736D01*
X154938698Y-107669189D01*
X154473151Y-107358120D01*
X153924000Y-107248887D01*
X153374849Y-107358120D01*
X153053259Y-107573000D01*
X150755398Y-107573000D01*
X150738894Y-107533057D01*
X150279363Y-107072722D01*
X149678648Y-106823284D01*
X149097139Y-106822776D01*
X148240030Y-105843223D01*
X148216371Y-105825027D01*
X148205000Y-105808009D01*
X148205000Y-102362005D01*
X148205001Y-102362000D01*
X148137633Y-102023326D01*
X148137633Y-102023325D01*
X147945790Y-101736210D01*
X147945787Y-101736208D01*
X146167790Y-99958210D01*
X146025405Y-99863072D01*
X145880675Y-99766367D01*
X145824484Y-99755190D01*
X145542000Y-99698999D01*
X145541995Y-99699000D01*
X143868580Y-99699000D01*
X149718579Y-93849000D01*
X153362906Y-93849000D01*
X153297197Y-94007244D01*
X153296803Y-94458775D01*
X153469233Y-94876086D01*
X153547000Y-94953989D01*
X153547000Y-97155102D01*
X153112200Y-97334757D01*
X152873541Y-97573000D01*
X150755398Y-97573000D01*
X150738894Y-97533057D01*
X150279363Y-97072722D01*
X149678648Y-96823284D01*
X149028205Y-96822716D01*
X148427057Y-97071106D01*
X147966722Y-97530637D01*
X147717284Y-98131352D01*
X147716716Y-98781795D01*
X147965106Y-99382943D01*
X148424637Y-99843278D01*
X149025352Y-100092716D01*
X149675795Y-100093284D01*
X150276943Y-99844894D01*
X150737278Y-99385363D01*
X150754869Y-99343000D01*
X152698163Y-99343000D01*
X152706757Y-99363800D01*
X153039000Y-99696623D01*
X153039000Y-99821995D01*
X153038999Y-99822000D01*
X153087698Y-100066821D01*
X153106367Y-100160675D01*
X153162928Y-100245325D01*
X153298210Y-100447790D01*
X155076208Y-102225787D01*
X155076210Y-102225790D01*
X155363325Y-102417633D01*
X155419516Y-102428810D01*
X155702000Y-102485001D01*
X155702005Y-102485000D01*
X157621420Y-102485000D01*
X159897000Y-104760579D01*
X159897000Y-107303124D01*
X159847890Y-107269569D01*
X159596000Y-107218560D01*
X157396000Y-107218560D01*
X157160683Y-107262838D01*
X156944559Y-107401910D01*
X156799569Y-107614110D01*
X156748560Y-107866000D01*
X156748560Y-110066000D01*
X156792838Y-110301317D01*
X156931910Y-110517441D01*
X157144110Y-110662431D01*
X157396000Y-110713440D01*
X157611000Y-110713440D01*
X157611000Y-111891000D01*
X152654000Y-111891000D01*
X152315325Y-111958367D01*
X152028210Y-112150210D01*
X152028208Y-112150213D01*
X151520210Y-112658210D01*
X151328367Y-112945325D01*
X151328367Y-112945326D01*
X151260999Y-113284000D01*
X151261000Y-113284005D01*
X151261000Y-114695421D01*
X150758210Y-115198210D01*
X150758208Y-115198213D01*
X147461420Y-118495000D01*
X144638579Y-118495000D01*
X141601000Y-115457420D01*
X141601000Y-113783745D01*
X143697861Y-113783745D01*
X143771995Y-114029864D01*
X144309223Y-114222965D01*
X144879454Y-114195778D01*
X145280005Y-114029864D01*
X145354139Y-113783745D01*
X144526000Y-112955605D01*
X143697861Y-113783745D01*
X141601000Y-113783745D01*
X141601000Y-112559223D01*
X143079035Y-112559223D01*
X143106222Y-113129454D01*
X143272136Y-113530005D01*
X143518255Y-113604139D01*
X144346395Y-112776000D01*
X144705605Y-112776000D01*
X145533745Y-113604139D01*
X145779864Y-113530005D01*
X145972965Y-112992777D01*
X145945778Y-112422546D01*
X145779864Y-112021995D01*
X145533745Y-111947861D01*
X144705605Y-112776000D01*
X144346395Y-112776000D01*
X143518255Y-111947861D01*
X143272136Y-112021995D01*
X143079035Y-112559223D01*
X141601000Y-112559223D01*
X141601000Y-111888171D01*
X141721125Y-111768255D01*
X143697861Y-111768255D01*
X144526000Y-112596395D01*
X145354139Y-111768255D01*
X145280005Y-111522136D01*
X144742777Y-111329035D01*
X144172546Y-111356222D01*
X143771995Y-111522136D01*
X143697861Y-111768255D01*
X141721125Y-111768255D01*
X141931824Y-111557923D01*
X142150750Y-111030691D01*
X142151248Y-110459813D01*
X141933243Y-109932200D01*
X141529923Y-109528176D01*
X141002691Y-109309250D01*
X140431813Y-109308752D01*
X139904200Y-109526757D01*
X139500176Y-109930077D01*
X139281250Y-110457309D01*
X139280752Y-111028187D01*
X139498757Y-111555800D01*
X139831000Y-111888623D01*
X139831000Y-115823995D01*
X139830999Y-115824000D01*
X139875711Y-116048775D01*
X139898367Y-116162675D01*
X139991336Y-116301813D01*
X140090210Y-116449790D01*
X143646208Y-120005787D01*
X143646210Y-120005790D01*
X143933325Y-120197633D01*
X144272000Y-120265000D01*
X147827995Y-120265000D01*
X147828000Y-120265001D01*
X148110484Y-120208810D01*
X148166675Y-120197633D01*
X148453790Y-120005790D01*
X148453791Y-120005789D01*
X151079829Y-117379750D01*
X153805000Y-117379750D01*
X153805000Y-117720310D01*
X153901673Y-117953699D01*
X154080302Y-118132327D01*
X154313691Y-118229000D01*
X154654250Y-118229000D01*
X154813000Y-118070250D01*
X154813000Y-117221000D01*
X155067000Y-117221000D01*
X155067000Y-118070250D01*
X155225750Y-118229000D01*
X155566309Y-118229000D01*
X155799698Y-118132327D01*
X155978327Y-117953699D01*
X156075000Y-117720310D01*
X156075000Y-117379750D01*
X155916250Y-117221000D01*
X155067000Y-117221000D01*
X154813000Y-117221000D01*
X153963750Y-117221000D01*
X153805000Y-117379750D01*
X151079829Y-117379750D01*
X151750579Y-116709000D01*
X152949724Y-116709000D01*
X153026235Y-116785645D01*
X153443244Y-116958803D01*
X153894775Y-116959197D01*
X153938061Y-116941311D01*
X153963750Y-116967000D01*
X154813000Y-116967000D01*
X154813000Y-116117750D01*
X155067000Y-116117750D01*
X155067000Y-116967000D01*
X155916250Y-116967000D01*
X156075000Y-116808250D01*
X156075000Y-116467690D01*
X155978327Y-116234301D01*
X155799698Y-116055673D01*
X155566309Y-115959000D01*
X155225750Y-115959000D01*
X155067000Y-116117750D01*
X154813000Y-116117750D01*
X154787552Y-116092302D01*
X154804803Y-116050756D01*
X154805119Y-115688883D01*
X155164775Y-115689197D01*
X155582086Y-115516767D01*
X155659989Y-115439000D01*
X157865000Y-115439000D01*
X157865000Y-118505421D01*
X152541420Y-123829000D01*
X149729440Y-123829000D01*
X149729440Y-123714000D01*
X149685162Y-123478683D01*
X149546090Y-123262559D01*
X149333890Y-123117569D01*
X149082000Y-123066560D01*
X147082000Y-123066560D01*
X146846683Y-123110838D01*
X146630559Y-123249910D01*
X146485569Y-123462110D01*
X146434560Y-123714000D01*
X146434560Y-125714000D01*
X146478838Y-125949317D01*
X146617910Y-126165441D01*
X146830110Y-126310431D01*
X147082000Y-126361440D01*
X149082000Y-126361440D01*
X149317317Y-126317162D01*
X149533441Y-126178090D01*
X149678431Y-125965890D01*
X149729440Y-125714000D01*
X149729440Y-125599000D01*
X152907995Y-125599000D01*
X152908000Y-125599001D01*
X153190484Y-125542810D01*
X153246675Y-125531633D01*
X153533790Y-125339790D01*
X159375787Y-119497792D01*
X159375790Y-119497790D01*
X159567633Y-119210675D01*
X159607906Y-119008211D01*
X159635001Y-118872000D01*
X159635000Y-118871995D01*
X159635000Y-115346025D01*
X159883790Y-115179790D01*
X160137787Y-114925792D01*
X160137790Y-114925790D01*
X160391787Y-114671792D01*
X160391790Y-114671790D01*
X160583633Y-114384675D01*
X160600476Y-114300000D01*
X160651001Y-114046000D01*
X160651000Y-114045995D01*
X160651000Y-113142580D01*
X161407787Y-112385792D01*
X161407790Y-112385790D01*
X161599633Y-112098675D01*
X161626970Y-111961243D01*
X161667001Y-111760000D01*
X161667000Y-111759995D01*
X161667000Y-104394005D01*
X161667001Y-104394000D01*
X161599633Y-104055326D01*
X161599633Y-104055325D01*
X161407790Y-103768210D01*
X161407787Y-103768208D01*
X158613790Y-100974210D01*
X158493197Y-100893633D01*
X158326675Y-100782367D01*
X158270484Y-100771190D01*
X157988000Y-100714999D01*
X157987995Y-100715000D01*
X156068579Y-100715000D01*
X154929480Y-99575900D01*
X155139824Y-99365923D01*
X155358750Y-98838691D01*
X155359248Y-98267813D01*
X155300677Y-98126060D01*
X155317000Y-98044000D01*
X155317000Y-94954276D01*
X155393645Y-94877765D01*
X155566803Y-94460756D01*
X155567119Y-94098883D01*
X155585319Y-94098899D01*
X157611000Y-96124579D01*
X157611000Y-97316775D01*
X157269170Y-97545179D01*
X156893069Y-98108053D01*
X156761000Y-98772009D01*
X156761000Y-98839991D01*
X156893069Y-99503947D01*
X157269170Y-100066821D01*
X157832044Y-100442922D01*
X158496000Y-100574991D01*
X159159956Y-100442922D01*
X159722830Y-100066821D01*
X160098931Y-99503947D01*
X160231000Y-98839991D01*
X160231000Y-98772009D01*
X160098931Y-98108053D01*
X159722830Y-97545179D01*
X159381000Y-97316775D01*
X159381000Y-95758005D01*
X159381001Y-95758000D01*
X159313633Y-95419326D01*
X159313633Y-95419325D01*
X159121790Y-95132210D01*
X159121787Y-95132208D01*
X156837103Y-92847523D01*
X156837197Y-92739225D01*
X156664767Y-92321914D01*
X156345765Y-92002355D01*
X155928756Y-91829197D01*
X155579440Y-91828892D01*
X155579440Y-91194000D01*
X155535162Y-90958683D01*
X155396090Y-90742559D01*
X155183890Y-90597569D01*
X154932000Y-90546560D01*
X153932000Y-90546560D01*
X153696683Y-90590838D01*
X153480559Y-90729910D01*
X153426519Y-90809000D01*
X148844005Y-90809000D01*
X148844000Y-90808999D01*
X148505325Y-90876367D01*
X148218210Y-91068210D01*
X148218208Y-91068213D01*
X141535368Y-97751052D01*
X141643000Y-97209950D01*
X141643000Y-96338050D01*
X141533767Y-95788899D01*
X141222698Y-95323352D01*
X140757151Y-95012283D01*
X140703113Y-95001534D01*
X138039790Y-92338210D01*
X137846879Y-92209312D01*
X137752675Y-92146367D01*
X137696484Y-92135190D01*
X137414000Y-92078999D01*
X137413995Y-92079000D01*
X134493002Y-92079000D01*
X134493002Y-91947916D01*
X134715039Y-92069904D01*
X135103423Y-91909041D01*
X135518389Y-91533134D01*
X135757914Y-91027041D01*
X135636629Y-90805000D01*
X134493000Y-90805000D01*
X134493000Y-90825000D01*
X134239000Y-90825000D01*
X134239000Y-90805000D01*
X133095371Y-90805000D01*
X132974086Y-91027041D01*
X133213611Y-91533134D01*
X133628577Y-91909041D01*
X134016961Y-92069904D01*
X134238998Y-91947916D01*
X134238998Y-92079000D01*
X133462579Y-92079000D01*
X132711000Y-91327420D01*
X132711000Y-90328959D01*
X132974086Y-90328959D01*
X133095371Y-90551000D01*
X134239000Y-90551000D01*
X134239000Y-89408085D01*
X134493000Y-89408085D01*
X134493000Y-90551000D01*
X135636629Y-90551000D01*
X135757914Y-90328959D01*
X135518389Y-89822866D01*
X135103423Y-89446959D01*
X134715039Y-89286096D01*
X134493000Y-89408085D01*
X134239000Y-89408085D01*
X134016961Y-89286096D01*
X133628577Y-89446959D01*
X133213611Y-89822866D01*
X132974086Y-90328959D01*
X132711000Y-90328959D01*
X132711000Y-81403000D01*
X133221829Y-81403000D01*
X133552077Y-81733824D01*
X134079309Y-81952750D01*
X134650187Y-81953248D01*
X135177800Y-81735243D01*
X135581824Y-81331923D01*
X135666129Y-81128892D01*
X137242514Y-81128892D01*
X137488817Y-81653358D01*
X137917076Y-82043645D01*
X138327110Y-82213476D01*
X138557000Y-82092155D01*
X138557000Y-80899000D01*
X138811000Y-80899000D01*
X138811000Y-82092155D01*
X139040890Y-82213476D01*
X139450924Y-82043645D01*
X139879183Y-81653358D01*
X139954000Y-81494046D01*
X140028817Y-81653358D01*
X140457076Y-82043645D01*
X140867110Y-82213476D01*
X141097000Y-82092155D01*
X141097000Y-80899000D01*
X141351000Y-80899000D01*
X141351000Y-82092155D01*
X141580890Y-82213476D01*
X141990924Y-82043645D01*
X142419183Y-81653358D01*
X142494000Y-81494046D01*
X142568817Y-81653358D01*
X142997076Y-82043645D01*
X143407110Y-82213476D01*
X143637000Y-82092155D01*
X143637000Y-80899000D01*
X143891000Y-80899000D01*
X143891000Y-82092155D01*
X144120890Y-82213476D01*
X144530924Y-82043645D01*
X144959183Y-81653358D01*
X145034000Y-81494046D01*
X145108817Y-81653358D01*
X145537076Y-82043645D01*
X145947110Y-82213476D01*
X146177000Y-82092155D01*
X146177000Y-80899000D01*
X146431000Y-80899000D01*
X146431000Y-82092155D01*
X146660890Y-82213476D01*
X147070924Y-82043645D01*
X147499183Y-81653358D01*
X147745486Y-81128892D01*
X147624819Y-80899000D01*
X146431000Y-80899000D01*
X146177000Y-80899000D01*
X143891000Y-80899000D01*
X143637000Y-80899000D01*
X141351000Y-80899000D01*
X141097000Y-80899000D01*
X138811000Y-80899000D01*
X138557000Y-80899000D01*
X137363181Y-80899000D01*
X137242514Y-81128892D01*
X135666129Y-81128892D01*
X135800750Y-80804691D01*
X135801248Y-80233813D01*
X135583243Y-79706200D01*
X135179923Y-79302176D01*
X134652691Y-79083250D01*
X134081813Y-79082752D01*
X133554200Y-79300757D01*
X133221377Y-79633000D01*
X130430171Y-79633000D01*
X130099923Y-79302176D01*
X129572691Y-79083250D01*
X129001813Y-79082752D01*
X128474200Y-79300757D01*
X128070176Y-79704077D01*
X127851250Y-80231309D01*
X127850752Y-80802187D01*
X128068757Y-81329800D01*
X128472077Y-81733824D01*
X128999309Y-81952750D01*
X129570187Y-81953248D01*
X130097800Y-81735243D01*
X130430623Y-81403000D01*
X130941000Y-81403000D01*
X130941000Y-91693995D01*
X130940999Y-91694000D01*
X130991507Y-91947915D01*
X131008367Y-92032675D01*
X131158678Y-92257633D01*
X131200210Y-92319790D01*
X132470208Y-93589787D01*
X132470210Y-93589790D01*
X132757325Y-93781633D01*
X133096000Y-93849001D01*
X133096005Y-93849000D01*
X137047420Y-93849000D01*
X138209103Y-95010682D01*
X137668000Y-94903050D01*
X137118849Y-95012283D01*
X136653302Y-95323352D01*
X136398000Y-95705438D01*
X136142698Y-95323352D01*
X135677151Y-95012283D01*
X135128000Y-94903050D01*
X134578849Y-95012283D01*
X134113302Y-95323352D01*
X133858000Y-95705438D01*
X133602698Y-95323352D01*
X133137151Y-95012283D01*
X132588000Y-94903050D01*
X132038849Y-95012283D01*
X131573302Y-95323352D01*
X131289568Y-95747989D01*
X130927790Y-95386210D01*
X130901738Y-95368803D01*
X130640675Y-95194367D01*
X130584484Y-95183190D01*
X130302000Y-95126999D01*
X130301995Y-95127000D01*
X130171000Y-95127000D01*
X130171000Y-91807473D01*
X130300698Y-91720811D01*
X130611767Y-91255264D01*
X130721000Y-90706113D01*
X130721000Y-90649887D01*
X130611767Y-90100736D01*
X130300698Y-89635189D01*
X129835151Y-89324120D01*
X129286000Y-89214887D01*
X128736849Y-89324120D01*
X128271302Y-89635189D01*
X127960233Y-90100736D01*
X127851000Y-90649887D01*
X127851000Y-90706113D01*
X127960233Y-91255264D01*
X128271302Y-91720811D01*
X128401000Y-91807473D01*
X128401000Y-95127000D01*
X125080579Y-95127000D01*
X124441580Y-94488000D01*
X126355787Y-92573792D01*
X126355790Y-92573790D01*
X126547633Y-92286675D01*
X126615000Y-91948000D01*
X126615000Y-89536171D01*
X126945824Y-89205923D01*
X127164750Y-88678691D01*
X127165248Y-88107813D01*
X126947243Y-87580200D01*
X126543923Y-87176176D01*
X126016691Y-86957250D01*
X125445813Y-86956752D01*
X124918200Y-87174757D01*
X124514176Y-87578077D01*
X124295250Y-88105309D01*
X124294752Y-88676187D01*
X124512757Y-89203800D01*
X124845000Y-89536623D01*
X124845000Y-91581421D01*
X123166570Y-93259850D01*
X123020675Y-93162367D01*
X122934824Y-93145290D01*
X122682000Y-93094999D01*
X122681995Y-93095000D01*
X121679310Y-93095000D01*
X121592648Y-92965302D01*
X121214293Y-92712493D01*
X121646500Y-92364896D01*
X121916367Y-91871819D01*
X121933904Y-91789039D01*
X121811915Y-91567000D01*
X120269000Y-91567000D01*
X120269000Y-91587000D01*
X120015000Y-91587000D01*
X120015000Y-91567000D01*
X118472085Y-91567000D01*
X118350096Y-91789039D01*
X118367633Y-91871819D01*
X118637500Y-92364896D01*
X119069707Y-92712493D01*
X118691352Y-92965302D01*
X118604690Y-93095000D01*
X118540079Y-93095000D01*
X117338790Y-91893710D01*
X117338787Y-91893708D01*
X116259290Y-90814210D01*
X116201000Y-90775262D01*
X116201000Y-82408580D01*
X118481787Y-80127792D01*
X118481790Y-80127790D01*
X118673633Y-79840675D01*
X118690877Y-79753986D01*
X118691352Y-79754698D01*
X119073438Y-80010000D01*
X118691352Y-80265302D01*
X118380283Y-80730849D01*
X118271050Y-81280000D01*
X118380283Y-81829151D01*
X118691352Y-82294698D01*
X119073438Y-82550000D01*
X118691352Y-82805302D01*
X118380283Y-83270849D01*
X118271050Y-83820000D01*
X118380283Y-84369151D01*
X118691352Y-84834698D01*
X119073438Y-85090000D01*
X118691352Y-85345302D01*
X118380283Y-85810849D01*
X118271050Y-86360000D01*
X118380283Y-86909151D01*
X118691352Y-87374698D01*
X119073438Y-87630000D01*
X118691352Y-87885302D01*
X118380283Y-88350849D01*
X118271050Y-88900000D01*
X118380283Y-89449151D01*
X118691352Y-89914698D01*
X119069707Y-90167507D01*
X118637500Y-90515104D01*
X118367633Y-91008181D01*
X118350096Y-91090961D01*
X118472085Y-91313000D01*
X120015000Y-91313000D01*
X120015000Y-91293000D01*
X120269000Y-91293000D01*
X120269000Y-91313000D01*
X121811915Y-91313000D01*
X121933904Y-91090961D01*
X121916367Y-91008181D01*
X121646500Y-90515104D01*
X121214293Y-90167507D01*
X121592648Y-89914698D01*
X121903717Y-89449151D01*
X122012950Y-88900000D01*
X121903717Y-88350849D01*
X121592648Y-87885302D01*
X121210562Y-87630000D01*
X121592648Y-87374698D01*
X121903717Y-86909151D01*
X122012950Y-86360000D01*
X121903717Y-85810849D01*
X121592648Y-85345302D01*
X121210562Y-85090000D01*
X121592648Y-84834698D01*
X121903717Y-84369151D01*
X122012950Y-83820000D01*
X121903717Y-83270849D01*
X121592648Y-82805302D01*
X121210562Y-82550000D01*
X121592648Y-82294698D01*
X121903717Y-81829151D01*
X122012950Y-81280000D01*
X121903717Y-80730849D01*
X121592648Y-80265302D01*
X121210562Y-80010000D01*
X121592648Y-79754698D01*
X121903717Y-79289151D01*
X122012950Y-78740000D01*
X121903717Y-78190849D01*
X121592648Y-77725302D01*
X121210562Y-77470000D01*
X121592648Y-77214698D01*
X121679310Y-77085000D01*
X123569387Y-77085000D01*
X123646077Y-77161824D01*
X124173309Y-77380750D01*
X124744187Y-77381248D01*
X125271800Y-77163243D01*
X125675824Y-76759923D01*
X125894750Y-76232691D01*
X125895000Y-75946000D01*
X133156887Y-75946000D01*
X133266120Y-76495151D01*
X133577189Y-76960698D01*
X134042736Y-77271767D01*
X134591887Y-77381000D01*
X134648113Y-77381000D01*
X134777653Y-77355233D01*
X136280208Y-78857787D01*
X136280210Y-78857790D01*
X136484064Y-78994000D01*
X136567325Y-79049633D01*
X136906000Y-79117001D01*
X136906005Y-79117000D01*
X137504221Y-79117000D01*
X137633946Y-79311147D01*
X137917101Y-79500345D01*
X137917076Y-79500355D01*
X137488817Y-79890642D01*
X137242514Y-80415108D01*
X137363181Y-80645000D01*
X138557000Y-80645000D01*
X138557000Y-80625000D01*
X138811000Y-80625000D01*
X138811000Y-80645000D01*
X141097000Y-80645000D01*
X141097000Y-80625000D01*
X141351000Y-80625000D01*
X141351000Y-80645000D01*
X143637000Y-80645000D01*
X143637000Y-80625000D01*
X143891000Y-80625000D01*
X143891000Y-80645000D01*
X146177000Y-80645000D01*
X146177000Y-80625000D01*
X146431000Y-80625000D01*
X146431000Y-80645000D01*
X147624819Y-80645000D01*
X147745486Y-80415108D01*
X147499183Y-79890642D01*
X147293496Y-79703192D01*
X147389317Y-79685162D01*
X147605441Y-79546090D01*
X147750431Y-79333890D01*
X147801440Y-79082000D01*
X147801440Y-77382000D01*
X147757162Y-77146683D01*
X147618090Y-76930559D01*
X147405890Y-76785569D01*
X147189000Y-76741648D01*
X147189000Y-73773473D01*
X147318698Y-73686811D01*
X147629767Y-73221264D01*
X147739000Y-72672113D01*
X147739000Y-72615887D01*
X147629767Y-72066736D01*
X147318698Y-71601189D01*
X146853151Y-71290120D01*
X146304000Y-71180887D01*
X145754849Y-71290120D01*
X145289302Y-71601189D01*
X144978233Y-72066736D01*
X144869000Y-72615887D01*
X144869000Y-72672113D01*
X144978233Y-73221264D01*
X145289302Y-73686811D01*
X145419000Y-73773473D01*
X145419000Y-76741146D01*
X145218683Y-76778838D01*
X145002559Y-76917910D01*
X144857569Y-77130110D01*
X144843914Y-77197541D01*
X144814054Y-77152853D01*
X144649000Y-77042568D01*
X144649000Y-74168000D01*
X144581633Y-73829325D01*
X144389790Y-73542210D01*
X144389787Y-73542208D01*
X143649233Y-72801653D01*
X143675000Y-72672113D01*
X143675000Y-72615887D01*
X143565767Y-72066736D01*
X143254698Y-71601189D01*
X142789151Y-71290120D01*
X142240000Y-71180887D01*
X141690849Y-71290120D01*
X141225302Y-71601189D01*
X140914233Y-72066736D01*
X140805000Y-72615887D01*
X140805000Y-72672113D01*
X140914233Y-73221264D01*
X141225302Y-73686811D01*
X141690849Y-73997880D01*
X142240000Y-74107113D01*
X142416438Y-74072017D01*
X142879000Y-74534579D01*
X142879000Y-77042568D01*
X142713946Y-77152853D01*
X142494000Y-77482026D01*
X142274054Y-77152853D01*
X141880160Y-76889662D01*
X141849790Y-76844210D01*
X141849787Y-76844208D01*
X139061000Y-74055420D01*
X139061000Y-73773473D01*
X139190698Y-73686811D01*
X139501767Y-73221264D01*
X139611000Y-72672113D01*
X139611000Y-72615887D01*
X139501767Y-72066736D01*
X139190698Y-71601189D01*
X138725151Y-71290120D01*
X138176000Y-71180887D01*
X137626849Y-71290120D01*
X137161302Y-71601189D01*
X136850233Y-72066736D01*
X136741000Y-72615887D01*
X136741000Y-72672113D01*
X136850233Y-73221264D01*
X137161302Y-73686811D01*
X137291000Y-73773473D01*
X137291000Y-74421995D01*
X137290999Y-74422000D01*
X137318094Y-74558211D01*
X137358367Y-74760675D01*
X137496377Y-74967223D01*
X137550210Y-75047790D01*
X139496637Y-76994216D01*
X139252285Y-76830946D01*
X138684000Y-76717907D01*
X138115715Y-76830946D01*
X137633946Y-77152853D01*
X137504221Y-77347000D01*
X137272579Y-77347000D01*
X136048017Y-76122438D01*
X136083113Y-75946000D01*
X135973880Y-75396849D01*
X135662811Y-74931302D01*
X135197264Y-74620233D01*
X134648113Y-74511000D01*
X134591887Y-74511000D01*
X134042736Y-74620233D01*
X133577189Y-74931302D01*
X133266120Y-75396849D01*
X133156887Y-75946000D01*
X125895000Y-75946000D01*
X125895248Y-75661813D01*
X125677243Y-75134200D01*
X125273923Y-74730176D01*
X124746691Y-74511250D01*
X124175813Y-74510752D01*
X123648200Y-74728757D01*
X123244176Y-75132077D01*
X123168220Y-75315000D01*
X121679310Y-75315000D01*
X121592648Y-75185302D01*
X121127101Y-74874233D01*
X120577950Y-74765000D01*
X119706050Y-74765000D01*
X119156899Y-74874233D01*
X118741000Y-75152128D01*
X118741000Y-72502580D01*
X119479047Y-71764532D01*
X126131073Y-71764532D01*
X126229736Y-72031387D01*
X126839461Y-72257908D01*
X127489460Y-72233856D01*
X127978264Y-72031387D01*
X128076927Y-71764532D01*
X132631073Y-71764532D01*
X132729736Y-72031387D01*
X133339461Y-72257908D01*
X133989460Y-72233856D01*
X134478264Y-72031387D01*
X134576927Y-71764532D01*
X133604000Y-70791605D01*
X132631073Y-71764532D01*
X128076927Y-71764532D01*
X127104000Y-70791605D01*
X126131073Y-71764532D01*
X119479047Y-71764532D01*
X120767787Y-70475792D01*
X120767790Y-70475790D01*
X120853536Y-70347461D01*
X125458092Y-70347461D01*
X125482144Y-70997460D01*
X125684613Y-71486264D01*
X125951468Y-71584927D01*
X126924395Y-70612000D01*
X127283605Y-70612000D01*
X128256532Y-71584927D01*
X128523387Y-71486264D01*
X128749908Y-70876539D01*
X128730331Y-70347461D01*
X131958092Y-70347461D01*
X131982144Y-70997460D01*
X132184613Y-71486264D01*
X132451468Y-71584927D01*
X133424395Y-70612000D01*
X133783605Y-70612000D01*
X134756532Y-71584927D01*
X135023387Y-71486264D01*
X135249908Y-70876539D01*
X135225856Y-70226540D01*
X135023387Y-69737736D01*
X134756532Y-69639073D01*
X133783605Y-70612000D01*
X133424395Y-70612000D01*
X132451468Y-69639073D01*
X132184613Y-69737736D01*
X131958092Y-70347461D01*
X128730331Y-70347461D01*
X128725856Y-70226540D01*
X128523387Y-69737736D01*
X128256532Y-69639073D01*
X127283605Y-70612000D01*
X126924395Y-70612000D01*
X125951468Y-69639073D01*
X125684613Y-69737736D01*
X125458092Y-70347461D01*
X120853536Y-70347461D01*
X120959633Y-70188675D01*
X120965410Y-70159633D01*
X121027001Y-69850000D01*
X121027000Y-69849995D01*
X121027000Y-69459468D01*
X126131073Y-69459468D01*
X127104000Y-70432395D01*
X128076927Y-69459468D01*
X132631073Y-69459468D01*
X133604000Y-70432395D01*
X134576927Y-69459468D01*
X134478264Y-69192613D01*
X133868539Y-68966092D01*
X133218540Y-68990144D01*
X132729736Y-69192613D01*
X132631073Y-69459468D01*
X128076927Y-69459468D01*
X127978264Y-69192613D01*
X127368539Y-68966092D01*
X126718540Y-68990144D01*
X126229736Y-69192613D01*
X126131073Y-69459468D01*
X121027000Y-69459468D01*
X121027000Y-68499432D01*
X121192054Y-68389147D01*
X121419702Y-68048447D01*
X121486817Y-68191358D01*
X121915076Y-68581645D01*
X122325110Y-68751476D01*
X122555000Y-68630155D01*
X122555000Y-67437000D01*
X122809000Y-67437000D01*
X122809000Y-68630155D01*
X123038890Y-68751476D01*
X123448924Y-68581645D01*
X123877183Y-68191358D01*
X124123486Y-67666892D01*
X124002819Y-67437000D01*
X122809000Y-67437000D01*
X122555000Y-67437000D01*
X122535000Y-67437000D01*
X122535000Y-67183000D01*
X122555000Y-67183000D01*
X122555000Y-65989845D01*
X122809000Y-65989845D01*
X122809000Y-67183000D01*
X124002819Y-67183000D01*
X124123486Y-66953108D01*
X123877183Y-66428642D01*
X123448924Y-66038355D01*
X123038890Y-65868524D01*
X122809000Y-65989845D01*
X122555000Y-65989845D01*
X122325110Y-65868524D01*
X121915076Y-66038355D01*
X121486817Y-66428642D01*
X121419702Y-66571553D01*
X121192054Y-66230853D01*
X120710285Y-65908946D01*
X120142000Y-65795907D01*
X119573715Y-65908946D01*
X119091946Y-66230853D01*
X118872000Y-66560026D01*
X118652054Y-66230853D01*
X118170285Y-65908946D01*
X117602000Y-65795907D01*
X117033715Y-65908946D01*
X116551946Y-66230853D01*
X116524150Y-66272452D01*
X116515162Y-66224683D01*
X116376090Y-66008559D01*
X116163890Y-65863569D01*
X115912000Y-65812560D01*
X114212000Y-65812560D01*
X113976683Y-65856838D01*
X113760559Y-65995910D01*
X113615569Y-66208110D01*
X113564560Y-66460000D01*
X113564560Y-68160000D01*
X113608838Y-68395317D01*
X113747910Y-68611441D01*
X113960110Y-68756431D01*
X114177000Y-68800352D01*
X114177000Y-74942348D01*
X113973890Y-74803569D01*
X113722000Y-74752560D01*
X112326140Y-74752560D01*
X112137000Y-74563420D01*
X112137000Y-67160144D01*
X112294811Y-67054698D01*
X112605880Y-66589151D01*
X112715113Y-66040000D01*
X112680017Y-65863562D01*
X113650579Y-64893000D01*
X124633420Y-64893000D01*
X125485858Y-65745437D01*
X125469284Y-65785352D01*
X125468716Y-66435795D01*
X125717106Y-67036943D01*
X126176637Y-67497278D01*
X126777352Y-67746716D01*
X127427795Y-67747284D01*
X128028943Y-67498894D01*
X128489278Y-67039363D01*
X128506869Y-66997000D01*
X132200602Y-66997000D01*
X132217106Y-67036943D01*
X132676637Y-67497278D01*
X133277352Y-67746716D01*
X133927795Y-67747284D01*
X134528943Y-67498894D01*
X134989278Y-67039363D01*
X135238716Y-66438648D01*
X135239284Y-65788205D01*
X134990894Y-65187057D01*
X134531363Y-64726722D01*
X133930648Y-64477284D01*
X133280205Y-64476716D01*
X132679057Y-64725106D01*
X132218722Y-65184637D01*
X132201131Y-65227000D01*
X128507398Y-65227000D01*
X128490894Y-65187057D01*
X128031363Y-64726722D01*
X127430648Y-64477284D01*
X126780205Y-64476716D01*
X126737812Y-64494232D01*
X126120580Y-63877000D01*
X137667995Y-63877000D01*
X137668000Y-63877001D01*
X137749652Y-63860759D01*
X137889309Y-63918750D01*
X138460187Y-63919248D01*
X138987800Y-63701243D01*
X139391824Y-63297923D01*
X139610750Y-62770691D01*
X139611248Y-62199813D01*
X139393243Y-61672200D01*
X139058627Y-61337000D01*
X139841420Y-61337000D01*
X140805160Y-62300739D01*
X140804752Y-62768187D01*
X141022757Y-63295800D01*
X141426077Y-63699824D01*
X141953309Y-63918750D01*
X142524187Y-63919248D01*
X143051800Y-63701243D01*
X143455824Y-63297923D01*
X143674750Y-62770691D01*
X143674872Y-62630451D01*
X144154208Y-63109787D01*
X144154210Y-63109790D01*
X144432595Y-63295800D01*
X144441325Y-63301633D01*
X144780000Y-63369001D01*
X144780005Y-63369000D01*
X145159829Y-63369000D01*
X145490077Y-63699824D01*
X146017309Y-63918750D01*
X146588187Y-63919248D01*
X147115800Y-63701243D01*
X147519824Y-63297923D01*
X147738750Y-62770691D01*
X147738849Y-62656266D01*
X153028405Y-62656266D01*
X153550250Y-63919229D01*
X154515688Y-64886354D01*
X155777739Y-65410403D01*
X157144266Y-65411595D01*
X158407229Y-64889750D01*
X159374354Y-63924312D01*
X159898403Y-62662261D01*
X159899595Y-61295734D01*
X159377750Y-60032771D01*
X158412312Y-59065646D01*
X157150261Y-58541597D01*
X155783734Y-58540405D01*
X154520771Y-59062250D01*
X153553646Y-60027688D01*
X153029597Y-61289739D01*
X153028405Y-62656266D01*
X147738849Y-62656266D01*
X147739248Y-62199813D01*
X147521243Y-61672200D01*
X147117923Y-61268176D01*
X146590691Y-61049250D01*
X146019813Y-61048752D01*
X145492200Y-61266757D01*
X145159377Y-61599000D01*
X145146579Y-61599000D01*
X142103790Y-58556210D01*
X142080136Y-58540405D01*
X141816675Y-58364367D01*
X141760484Y-58353190D01*
X141478000Y-58296999D01*
X141477995Y-58297000D01*
X136398005Y-58297000D01*
X136398000Y-58296999D01*
X136059325Y-58364367D01*
X135772210Y-58556210D01*
X135772208Y-58556213D01*
X134761420Y-59567000D01*
X110236005Y-59567000D01*
X110236000Y-59566999D01*
X109897325Y-59634367D01*
X109610210Y-59826210D01*
X109610208Y-59826213D01*
X106308210Y-63128210D01*
X106116367Y-63415325D01*
X106116367Y-63415326D01*
X106048999Y-63754000D01*
X106049000Y-63754005D01*
X106049000Y-68833995D01*
X106048999Y-68834000D01*
X106080059Y-68990144D01*
X106116367Y-69172675D01*
X106265780Y-69396289D01*
X106303000Y-69451993D01*
X106303000Y-82957780D01*
X104898000Y-81655585D01*
X104898000Y-71247005D01*
X104898001Y-71247000D01*
X104898000Y-71246995D01*
X104898000Y-68961005D01*
X104898001Y-68961000D01*
X104830633Y-68622326D01*
X104830633Y-68622325D01*
X104638790Y-68335210D01*
X104638787Y-68335208D01*
X104448290Y-68144710D01*
X104448287Y-68144708D01*
X102526840Y-66223261D01*
X102527248Y-65755813D01*
X102309243Y-65228200D01*
X101905923Y-64824176D01*
X101378691Y-64605250D01*
X100807813Y-64604752D01*
X100280200Y-64822757D01*
X99876176Y-65226077D01*
X99657250Y-65753309D01*
X99656752Y-66324187D01*
X99874757Y-66851800D01*
X100278077Y-67255824D01*
X100805309Y-67474750D01*
X101275581Y-67475160D01*
X102929522Y-69129101D01*
X102743000Y-69091999D01*
X102742995Y-69092000D01*
X102490171Y-69092000D01*
X102159923Y-68761176D01*
X101632691Y-68542250D01*
X101061813Y-68541752D01*
X100534200Y-68759757D01*
X100201377Y-69092000D01*
X93027505Y-69092000D01*
X93027500Y-69091999D01*
X92688825Y-69159367D01*
X92401710Y-69351210D01*
X92401708Y-69351213D01*
X90687210Y-71065710D01*
X90495367Y-71352825D01*
X90495367Y-71352826D01*
X90427999Y-71691500D01*
X90428000Y-71691505D01*
X90428000Y-73752554D01*
X90277683Y-73780838D01*
X90061559Y-73919910D01*
X89916569Y-74132110D01*
X89865560Y-74384000D01*
X89865560Y-75379860D01*
X89549420Y-75696000D01*
X84741911Y-75696000D01*
X84587909Y-75465519D01*
X84089919Y-75132773D01*
X83502500Y-75015928D01*
X82915081Y-75132773D01*
X82417091Y-75465519D01*
X82084345Y-75963509D01*
X81967500Y-76550928D01*
X74624000Y-76550928D01*
X74624000Y-62656266D01*
X77590405Y-62656266D01*
X78112250Y-63919229D01*
X79077688Y-64886354D01*
X80339739Y-65410403D01*
X81706266Y-65411595D01*
X82969229Y-64889750D01*
X83936354Y-63924312D01*
X84460403Y-62662261D01*
X84461595Y-61295734D01*
X83939750Y-60032771D01*
X82974312Y-59065646D01*
X81712261Y-58541597D01*
X80345734Y-58540405D01*
X79082771Y-59062250D01*
X78115646Y-60027688D01*
X77591597Y-61289739D01*
X77590405Y-62656266D01*
X74624000Y-62656266D01*
X74624000Y-56590000D01*
X161925000Y-56590000D01*
X161925000Y-134747000D01*
X161925000Y-134747000D01*
G37*
X161925000Y-134747000D02*
X74802589Y-134747000D01*
X74787118Y-129966266D01*
X77590405Y-129966266D01*
X78112250Y-131229229D01*
X79077688Y-132196354D01*
X80339739Y-132720403D01*
X81706266Y-132721595D01*
X82969229Y-132199750D01*
X83936354Y-131234312D01*
X84460403Y-129972261D01*
X84461595Y-128605734D01*
X83939750Y-127342771D01*
X82974312Y-126375646D01*
X81712261Y-125851597D01*
X80345734Y-125850405D01*
X79082771Y-126372250D01*
X78115646Y-127337688D01*
X77591597Y-128599739D01*
X77590405Y-129966266D01*
X74787118Y-129966266D01*
X74694496Y-101346000D01*
X78108999Y-101346000D01*
X78109000Y-101346005D01*
X78109000Y-107187995D01*
X78108999Y-107188000D01*
X78161356Y-107451210D01*
X78176367Y-107526675D01*
X78288636Y-107694698D01*
X78368210Y-107813790D01*
X90814208Y-120259787D01*
X90814210Y-120259790D01*
X91101325Y-120451633D01*
X91157516Y-120462810D01*
X91440000Y-120519001D01*
X91440005Y-120519000D01*
X92393797Y-120519000D01*
X92459197Y-120616878D01*
X92910145Y-120918193D01*
X93442075Y-121024000D01*
X94372420Y-121024000D01*
X95635000Y-122286579D01*
X95635000Y-125606560D01*
X95520000Y-125606560D01*
X95284683Y-125650838D01*
X95068559Y-125789910D01*
X94923569Y-126002110D01*
X94872560Y-126254000D01*
X94872560Y-128254000D01*
X94916838Y-128489317D01*
X95055910Y-128705441D01*
X95268110Y-128850431D01*
X95520000Y-128901440D01*
X97520000Y-128901440D01*
X97755317Y-128857162D01*
X97971441Y-128718090D01*
X98116431Y-128505890D01*
X98136551Y-128406532D01*
X100547073Y-128406532D01*
X100645736Y-128673387D01*
X101255461Y-128899908D01*
X101905460Y-128875856D01*
X102394264Y-128673387D01*
X102492927Y-128406532D01*
X101520000Y-127433605D01*
X100547073Y-128406532D01*
X98136551Y-128406532D01*
X98167440Y-128254000D01*
X98167440Y-126989461D01*
X99874092Y-126989461D01*
X99898144Y-127639460D01*
X100100613Y-128128264D01*
X100367468Y-128226927D01*
X101340395Y-127254000D01*
X101699605Y-127254000D01*
X102672532Y-128226927D01*
X102939387Y-128128264D01*
X103165908Y-127518539D01*
X103141856Y-126868540D01*
X102939387Y-126379736D01*
X102672532Y-126281073D01*
X101699605Y-127254000D01*
X101340395Y-127254000D01*
X100367468Y-126281073D01*
X100100613Y-126379736D01*
X99874092Y-126989461D01*
X98167440Y-126989461D01*
X98167440Y-126254000D01*
X98138740Y-126101468D01*
X100547073Y-126101468D01*
X101520000Y-127074395D01*
X102492927Y-126101468D01*
X102426574Y-125922000D01*
X110435287Y-125922000D01*
X110435287Y-132292000D01*
X125276713Y-132292000D01*
X125276713Y-129712266D01*
X153028405Y-129712266D01*
X153550250Y-130975229D01*
X154515688Y-131942354D01*
X155777739Y-132466403D01*
X157144266Y-132467595D01*
X158407229Y-131945750D01*
X159374354Y-130980312D01*
X159898403Y-129718261D01*
X159899595Y-128351734D01*
X159377750Y-127088771D01*
X158412312Y-126121646D01*
X157150261Y-125597597D01*
X155783734Y-125596405D01*
X154520771Y-126118250D01*
X153553646Y-127083688D01*
X153029597Y-128345739D01*
X153028405Y-129712266D01*
X125276713Y-129712266D01*
X125276713Y-125922000D01*
X110435287Y-125922000D01*
X102426574Y-125922000D01*
X102394264Y-125834613D01*
X101784539Y-125608092D01*
X101134540Y-125632144D01*
X100645736Y-125834613D01*
X100547073Y-126101468D01*
X98138740Y-126101468D01*
X98123162Y-126018683D01*
X97984090Y-125802559D01*
X97771890Y-125657569D01*
X97520000Y-125606560D01*
X97405000Y-125606560D01*
X97405000Y-121920005D01*
X97405001Y-121920000D01*
X97337633Y-121581325D01*
X97145790Y-121294210D01*
X97145787Y-121294208D01*
X96370579Y-120519000D01*
X99505797Y-120519000D01*
X99571197Y-120616878D01*
X100022145Y-120918193D01*
X100554075Y-121024000D01*
X102137925Y-121024000D01*
X102669855Y-120918193D01*
X103120803Y-120616878D01*
X103186203Y-120519000D01*
X107125797Y-120519000D01*
X107191197Y-120616878D01*
X107642145Y-120918193D01*
X108174075Y-121024000D01*
X109168588Y-121024000D01*
X109262326Y-121086634D01*
X109601000Y-121154001D01*
X109939675Y-121086634D01*
X110150187Y-120945975D01*
X110289855Y-120918193D01*
X110740803Y-120616878D01*
X111042118Y-120165930D01*
X111147925Y-119634000D01*
X111042118Y-119102070D01*
X110740803Y-118651122D01*
X110292013Y-118351249D01*
X110365263Y-118329592D01*
X110788681Y-117987076D01*
X111048793Y-117508597D01*
X111063277Y-117435971D01*
X110940683Y-117221000D01*
X109093000Y-117221000D01*
X109093000Y-117241000D01*
X108839000Y-117241000D01*
X108839000Y-117221000D01*
X106991317Y-117221000D01*
X106868723Y-117435971D01*
X106883207Y-117508597D01*
X107143319Y-117987076D01*
X107566737Y-118329592D01*
X107639987Y-118351249D01*
X107191197Y-118651122D01*
X107125797Y-118749000D01*
X103186203Y-118749000D01*
X103120803Y-118651122D01*
X102672013Y-118351249D01*
X102745263Y-118329592D01*
X103168681Y-117987076D01*
X103428793Y-117508597D01*
X103443277Y-117435971D01*
X103320683Y-117221000D01*
X101473000Y-117221000D01*
X101473000Y-117241000D01*
X101219000Y-117241000D01*
X101219000Y-117221000D01*
X99371317Y-117221000D01*
X99248723Y-117435971D01*
X99263207Y-117508597D01*
X99523319Y-117987076D01*
X99946737Y-118329592D01*
X100019987Y-118351249D01*
X99571197Y-118651122D01*
X99505797Y-118749000D01*
X96074203Y-118749000D01*
X96008803Y-118651122D01*
X95560013Y-118351249D01*
X95633263Y-118329592D01*
X96056681Y-117987076D01*
X96316793Y-117508597D01*
X96331277Y-117435971D01*
X96208683Y-117221000D01*
X94361000Y-117221000D01*
X94361000Y-117241000D01*
X94107000Y-117241000D01*
X94107000Y-117221000D01*
X92259317Y-117221000D01*
X92136723Y-117435971D01*
X92151207Y-117508597D01*
X92411319Y-117987076D01*
X92834737Y-118329592D01*
X92907987Y-118351249D01*
X92459197Y-118651122D01*
X92393797Y-118749000D01*
X91806579Y-118749000D01*
X79879000Y-106821420D01*
X79879000Y-101712580D01*
X82095784Y-99495796D01*
X82210582Y-99572501D01*
X81820034Y-99930424D01*
X81566954Y-100473258D01*
X81687003Y-100711000D01*
X82931000Y-100711000D01*
X82931000Y-100691000D01*
X83185000Y-100691000D01*
X83185000Y-100711000D01*
X84428997Y-100711000D01*
X84549046Y-100473258D01*
X84295966Y-99930424D01*
X83905418Y-99572501D01*
X84143409Y-99413481D01*
X84476155Y-98915491D01*
X84593000Y-98328072D01*
X84593000Y-98267928D01*
X84476155Y-97680509D01*
X84143409Y-97182519D01*
X83645419Y-96849773D01*
X83058000Y-96732928D01*
X82470581Y-96849773D01*
X81972591Y-97182519D01*
X81784344Y-97464251D01*
X81759516Y-97469190D01*
X81703325Y-97480367D01*
X81416210Y-97672210D01*
X81416208Y-97672213D01*
X78368210Y-100720210D01*
X78176367Y-101007325D01*
X78165190Y-101063516D01*
X78108999Y-101346000D01*
X74694496Y-101346000D01*
X74678177Y-96303223D01*
X86945035Y-96303223D01*
X86972222Y-96873454D01*
X87138136Y-97274005D01*
X87384255Y-97348139D01*
X88212395Y-96520000D01*
X87384255Y-95691861D01*
X87138136Y-95765995D01*
X86945035Y-96303223D01*
X74678177Y-96303223D01*
X74675618Y-95512255D01*
X87563861Y-95512255D01*
X88392000Y-96340395D01*
X89220139Y-95512255D01*
X89146005Y-95266136D01*
X88608777Y-95073035D01*
X88038546Y-95100222D01*
X87637995Y-95266136D01*
X87563861Y-95512255D01*
X74675618Y-95512255D01*
X74663339Y-91718471D01*
X80579723Y-91718471D01*
X80594207Y-91791097D01*
X80854319Y-92269576D01*
X81277737Y-92612092D01*
X81800000Y-92766500D01*
X82550000Y-92766500D01*
X82550000Y-91503500D01*
X82804000Y-91503500D01*
X82804000Y-92766500D01*
X83554000Y-92766500D01*
X84076263Y-92612092D01*
X84499681Y-92269576D01*
X84759793Y-91791097D01*
X84774277Y-91718471D01*
X84651683Y-91503500D01*
X82804000Y-91503500D01*
X82550000Y-91503500D01*
X80702317Y-91503500D01*
X80579723Y-91718471D01*
X74663339Y-91718471D01*
X74654012Y-88836500D01*
X80495075Y-88836500D01*
X80600882Y-89368430D01*
X80902197Y-89819378D01*
X81350987Y-90119251D01*
X81277737Y-90140908D01*
X80854319Y-90483424D01*
X80594207Y-90961903D01*
X80579723Y-91034529D01*
X80702317Y-91249500D01*
X82550000Y-91249500D01*
X82550000Y-91229500D01*
X82804000Y-91229500D01*
X82804000Y-91249500D01*
X84651683Y-91249500D01*
X84774277Y-91034529D01*
X84759793Y-90961903D01*
X84499681Y-90483424D01*
X84076263Y-90140908D01*
X84003013Y-90119251D01*
X84451803Y-89819378D01*
X84517203Y-89721500D01*
X90614495Y-89721500D01*
X90614500Y-89721501D01*
X90809000Y-89682812D01*
X90809000Y-95645421D01*
X89833444Y-96620977D01*
X89811778Y-96166546D01*
X89645864Y-95765995D01*
X89399745Y-95691861D01*
X88571605Y-96520000D01*
X88585748Y-96534142D01*
X88406142Y-96713748D01*
X88392000Y-96699605D01*
X87563861Y-97527745D01*
X87637995Y-97773864D01*
X88175223Y-97966965D01*
X88503087Y-97951333D01*
X84424350Y-102030071D01*
X84422090Y-102026559D01*
X84209890Y-101881569D01*
X84158854Y-101871234D01*
X84295966Y-101745576D01*
X84549046Y-101202742D01*
X84428997Y-100965000D01*
X83185000Y-100965000D01*
X83185000Y-100985000D01*
X82931000Y-100985000D01*
X82931000Y-100965000D01*
X81687003Y-100965000D01*
X81566954Y-101202742D01*
X81820034Y-101745576D01*
X81954538Y-101868844D01*
X81922683Y-101874838D01*
X81706559Y-102013910D01*
X81561569Y-102226110D01*
X81510560Y-102478000D01*
X81510560Y-104278000D01*
X81554838Y-104513317D01*
X81693910Y-104729441D01*
X81906110Y-104874431D01*
X82158000Y-104925440D01*
X83958000Y-104925440D01*
X84193317Y-104881162D01*
X84409441Y-104742090D01*
X84554431Y-104529890D01*
X84605440Y-104278000D01*
X84605440Y-104207813D01*
X84610484Y-104206810D01*
X84666675Y-104195633D01*
X84953790Y-104003790D01*
X85079834Y-103877745D01*
X87563861Y-103877745D01*
X87637995Y-104123864D01*
X88175223Y-104316965D01*
X88745454Y-104289778D01*
X89146005Y-104123864D01*
X89220139Y-103877745D01*
X88392000Y-103049605D01*
X87563861Y-103877745D01*
X85079834Y-103877745D01*
X86304356Y-102653223D01*
X86945035Y-102653223D01*
X86972222Y-103223454D01*
X87138136Y-103624005D01*
X87384255Y-103698139D01*
X88212395Y-102870000D01*
X88571605Y-102870000D01*
X89399745Y-103698139D01*
X89645864Y-103624005D01*
X89838965Y-103086777D01*
X89811778Y-102516546D01*
X89645864Y-102115995D01*
X89399745Y-102041861D01*
X88571605Y-102870000D01*
X88212395Y-102870000D01*
X87384255Y-102041861D01*
X87138136Y-102115995D01*
X86945035Y-102653223D01*
X86304356Y-102653223D01*
X87095324Y-101862255D01*
X87563861Y-101862255D01*
X88392000Y-102690395D01*
X89220139Y-101862255D01*
X89146005Y-101616136D01*
X88608777Y-101423035D01*
X88038546Y-101450222D01*
X87637995Y-101616136D01*
X87563861Y-101862255D01*
X87095324Y-101862255D01*
X92014246Y-96943333D01*
X92174757Y-97331800D01*
X92578077Y-97735824D01*
X93105309Y-97954750D01*
X93676187Y-97955248D01*
X94203800Y-97737243D01*
X94536623Y-97405000D01*
X100155995Y-97405000D01*
X100156000Y-97405001D01*
X100441858Y-97348139D01*
X100494675Y-97337633D01*
X100781790Y-97145790D01*
X101720695Y-96206884D01*
X102128285Y-96207240D01*
X102637515Y-95996831D01*
X102927852Y-95707000D01*
X104615420Y-95707000D01*
X106054208Y-97145787D01*
X106054210Y-97145790D01*
X106341325Y-97337633D01*
X106394142Y-97348139D01*
X106680000Y-97405001D01*
X106680005Y-97405000D01*
X110984690Y-97405000D01*
X111071352Y-97534698D01*
X111453438Y-97790000D01*
X111071352Y-98045302D01*
X110760283Y-98510849D01*
X110675516Y-98937000D01*
X102927523Y-98937000D01*
X102639564Y-98648539D01*
X102130702Y-98437241D01*
X101579715Y-98436760D01*
X101070485Y-98647169D01*
X100680539Y-99036436D01*
X100469241Y-99545298D01*
X100468883Y-99955538D01*
X98439420Y-101985000D01*
X94536171Y-101985000D01*
X94205923Y-101654176D01*
X93678691Y-101435250D01*
X93107813Y-101434752D01*
X92580200Y-101652757D01*
X92176176Y-102056077D01*
X91957250Y-102583309D01*
X91956752Y-103154187D01*
X92174757Y-103681800D01*
X92578077Y-104085824D01*
X93105309Y-104304750D01*
X93676187Y-104305248D01*
X94203800Y-104087243D01*
X94536623Y-103755000D01*
X98805995Y-103755000D01*
X98806000Y-103755001D01*
X99091858Y-103698139D01*
X99144675Y-103687633D01*
X99431790Y-103495790D01*
X101720695Y-101206884D01*
X102128285Y-101207240D01*
X102637515Y-100996831D01*
X102927852Y-100707000D01*
X110990036Y-100707000D01*
X110760283Y-101050849D01*
X110651050Y-101600000D01*
X110760283Y-102149151D01*
X111071352Y-102614698D01*
X111453438Y-102870000D01*
X111071352Y-103125302D01*
X110984690Y-103255000D01*
X109855005Y-103255000D01*
X109855000Y-103254999D01*
X109572516Y-103311190D01*
X109516325Y-103322367D01*
X109229210Y-103514210D01*
X109229208Y-103514213D01*
X105292210Y-107451210D01*
X105100367Y-107738325D01*
X105100367Y-107738326D01*
X105032999Y-108077000D01*
X105033000Y-108077005D01*
X105033000Y-110758421D01*
X104535420Y-111256000D01*
X100838000Y-111256000D01*
X100499325Y-111323367D01*
X100212210Y-111515210D01*
X100212208Y-111515213D01*
X98058420Y-113669000D01*
X96074203Y-113669000D01*
X96008803Y-113571122D01*
X95557855Y-113269807D01*
X95025925Y-113164000D01*
X93442075Y-113164000D01*
X92910145Y-113269807D01*
X92459197Y-113571122D01*
X92157882Y-114022070D01*
X92052075Y-114554000D01*
X92157882Y-115085930D01*
X92459197Y-115536878D01*
X92907987Y-115836751D01*
X92834737Y-115858408D01*
X92411319Y-116200924D01*
X92151207Y-116679403D01*
X92136723Y-116752029D01*
X92259317Y-116967000D01*
X94107000Y-116967000D01*
X94107000Y-116947000D01*
X94361000Y-116947000D01*
X94361000Y-116967000D01*
X96208683Y-116967000D01*
X96331277Y-116752029D01*
X96316793Y-116679403D01*
X96056681Y-116200924D01*
X95633263Y-115858408D01*
X95560013Y-115836751D01*
X96008803Y-115536878D01*
X96074203Y-115439000D01*
X98424995Y-115439000D01*
X98425000Y-115439001D01*
X98707484Y-115382810D01*
X98763675Y-115371633D01*
X99050790Y-115179790D01*
X99249105Y-114981475D01*
X99269882Y-115085930D01*
X99571197Y-115536878D01*
X100019987Y-115836751D01*
X99946737Y-115858408D01*
X99523319Y-116200924D01*
X99263207Y-116679403D01*
X99248723Y-116752029D01*
X99371317Y-116967000D01*
X101219000Y-116967000D01*
X101219000Y-116947000D01*
X101473000Y-116947000D01*
X101473000Y-116967000D01*
X103320683Y-116967000D01*
X103443277Y-116752029D01*
X103428793Y-116679403D01*
X103168681Y-116200924D01*
X102745263Y-115858408D01*
X102672013Y-115836751D01*
X103120803Y-115536878D01*
X103186203Y-115439000D01*
X105155995Y-115439000D01*
X105156000Y-115439001D01*
X105438484Y-115382810D01*
X105494675Y-115371633D01*
X105781790Y-115179790D01*
X106877559Y-114084020D01*
X106784075Y-114554000D01*
X106889882Y-115085930D01*
X107191197Y-115536878D01*
X107639987Y-115836751D01*
X107566737Y-115858408D01*
X107143319Y-116200924D01*
X106883207Y-116679403D01*
X106868723Y-116752029D01*
X106991317Y-116967000D01*
X108839000Y-116967000D01*
X108839000Y-116947000D01*
X109093000Y-116947000D01*
X109093000Y-116967000D01*
X110940683Y-116967000D01*
X111063277Y-116752029D01*
X111048793Y-116679403D01*
X110788681Y-116200924D01*
X110365263Y-115858408D01*
X110292013Y-115836751D01*
X110740803Y-115536878D01*
X111042118Y-115085930D01*
X111147925Y-114554000D01*
X111042118Y-114022070D01*
X110740803Y-113571122D01*
X110289855Y-113269807D01*
X109851000Y-113182514D01*
X109851000Y-111110580D01*
X110856579Y-110105000D01*
X110984690Y-110105000D01*
X111071352Y-110234698D01*
X111536899Y-110545767D01*
X112086050Y-110655000D01*
X112957950Y-110655000D01*
X113507101Y-110545767D01*
X113972648Y-110234698D01*
X114283717Y-109769151D01*
X114392950Y-109220000D01*
X114283717Y-108670849D01*
X113972648Y-108205302D01*
X113590562Y-107950000D01*
X113972648Y-107694698D01*
X114283717Y-107229151D01*
X114392950Y-106680000D01*
X114283717Y-106130849D01*
X113972648Y-105665302D01*
X113590562Y-105410000D01*
X113972648Y-105154698D01*
X114283717Y-104689151D01*
X114392950Y-104140000D01*
X114283717Y-103590849D01*
X113972648Y-103125302D01*
X113590562Y-102870000D01*
X113972648Y-102614698D01*
X114283717Y-102149151D01*
X114392950Y-101600000D01*
X114283717Y-101050849D01*
X113972648Y-100585302D01*
X113590562Y-100330000D01*
X113972648Y-100074698D01*
X114283717Y-99609151D01*
X114392950Y-99060000D01*
X114283717Y-98510849D01*
X113972648Y-98045302D01*
X113590562Y-97790000D01*
X113972648Y-97534698D01*
X114283717Y-97069151D01*
X114392950Y-96520000D01*
X114283717Y-95970849D01*
X113972648Y-95505302D01*
X113594293Y-95252493D01*
X114026500Y-94904896D01*
X114296367Y-94411819D01*
X114313904Y-94329039D01*
X114191915Y-94107000D01*
X112649000Y-94107000D01*
X112649000Y-94127000D01*
X112395000Y-94127000D01*
X112395000Y-94107000D01*
X110852085Y-94107000D01*
X110730096Y-94329039D01*
X110747633Y-94411819D01*
X111017500Y-94904896D01*
X111449707Y-95252493D01*
X111071352Y-95505302D01*
X110984690Y-95635000D01*
X107046579Y-95635000D01*
X105607790Y-94196210D01*
X105320675Y-94004367D01*
X105264484Y-93993190D01*
X104982000Y-93936999D01*
X104981995Y-93937000D01*
X102927523Y-93937000D01*
X102639564Y-93648539D01*
X102130702Y-93437241D01*
X101579715Y-93436760D01*
X101070485Y-93647169D01*
X100680539Y-94036436D01*
X100469241Y-94545298D01*
X100468883Y-94955538D01*
X99789420Y-95635000D01*
X94536171Y-95635000D01*
X94205923Y-95304176D01*
X93678691Y-95085250D01*
X93107813Y-95084752D01*
X92580200Y-95302757D01*
X92579000Y-95303955D01*
X92579000Y-89188446D01*
X92729317Y-89160162D01*
X92945441Y-89021090D01*
X93090431Y-88808890D01*
X93099370Y-88764745D01*
X93365861Y-88764745D01*
X93439995Y-89010864D01*
X93977223Y-89203965D01*
X94547454Y-89176778D01*
X94948005Y-89010864D01*
X95022139Y-88764745D01*
X94194000Y-87936605D01*
X93365861Y-88764745D01*
X93099370Y-88764745D01*
X93138646Y-88570799D01*
X93186255Y-88585139D01*
X94014395Y-87757000D01*
X94373605Y-87757000D01*
X95201745Y-88585139D01*
X95447864Y-88511005D01*
X95524875Y-88296750D01*
X103494000Y-88296750D01*
X103494000Y-89037309D01*
X103590673Y-89270698D01*
X103769301Y-89449327D01*
X104002690Y-89546000D01*
X104743250Y-89546000D01*
X104902000Y-89387250D01*
X104902000Y-88138000D01*
X105156000Y-88138000D01*
X105156000Y-89387250D01*
X105314750Y-89546000D01*
X106055310Y-89546000D01*
X106288699Y-89449327D01*
X106467327Y-89270698D01*
X106564000Y-89037309D01*
X106564000Y-88296750D01*
X106405250Y-88138000D01*
X105156000Y-88138000D01*
X104902000Y-88138000D01*
X103652750Y-88138000D01*
X103494000Y-88296750D01*
X95524875Y-88296750D01*
X95640965Y-87973777D01*
X95613778Y-87403546D01*
X95447864Y-87002995D01*
X95201745Y-86928861D01*
X94373605Y-87757000D01*
X94014395Y-87757000D01*
X93186255Y-86928861D01*
X93138833Y-86943145D01*
X93102351Y-86749255D01*
X93365861Y-86749255D01*
X94194000Y-87577395D01*
X95022139Y-86749255D01*
X94948005Y-86503136D01*
X94410777Y-86310035D01*
X93840546Y-86337222D01*
X93439995Y-86503136D01*
X93365861Y-86749255D01*
X93102351Y-86749255D01*
X93097162Y-86721683D01*
X92958090Y-86505559D01*
X92745890Y-86360569D01*
X92494000Y-86309560D01*
X90894000Y-86309560D01*
X90658683Y-86353838D01*
X90442559Y-86492910D01*
X90297569Y-86705110D01*
X90246560Y-86957000D01*
X90246560Y-87951500D01*
X84517203Y-87951500D01*
X84451803Y-87853622D01*
X84387500Y-87810656D01*
X84387500Y-83208440D01*
X84402500Y-83208440D01*
X84637817Y-83164162D01*
X84853941Y-83025090D01*
X84998931Y-82812890D01*
X85049940Y-82561000D01*
X85049940Y-80761000D01*
X85005662Y-80525683D01*
X84866590Y-80309559D01*
X84654390Y-80164569D01*
X84603354Y-80154234D01*
X84740466Y-80028576D01*
X84993546Y-79485742D01*
X84873497Y-79248000D01*
X83629500Y-79248000D01*
X83629500Y-79268000D01*
X83375500Y-79268000D01*
X83375500Y-79248000D01*
X82131503Y-79248000D01*
X82011454Y-79485742D01*
X82264534Y-80028576D01*
X82399038Y-80151844D01*
X82367183Y-80157838D01*
X82151059Y-80296910D01*
X82006069Y-80509110D01*
X81955060Y-80761000D01*
X81955060Y-82561000D01*
X81999338Y-82796317D01*
X82138410Y-83012441D01*
X82350610Y-83157431D01*
X82602500Y-83208440D01*
X82617500Y-83208440D01*
X82617500Y-87446500D01*
X81885075Y-87446500D01*
X81353145Y-87552307D01*
X80902197Y-87853622D01*
X80600882Y-88304570D01*
X80495075Y-88836500D01*
X74654012Y-88836500D01*
X74624000Y-79563000D01*
X74624000Y-76550928D01*
X81967500Y-76550928D01*
X81967500Y-76611072D01*
X82084345Y-77198491D01*
X82417091Y-77696481D01*
X82655082Y-77855501D01*
X82264534Y-78213424D01*
X82011454Y-78756258D01*
X82131503Y-78994000D01*
X83375500Y-78994000D01*
X83375500Y-78974000D01*
X83629500Y-78974000D01*
X83629500Y-78994000D01*
X84873497Y-78994000D01*
X84993546Y-78756258D01*
X84740466Y-78213424D01*
X84349918Y-77855501D01*
X84587909Y-77696481D01*
X84741911Y-77466000D01*
X89915995Y-77466000D01*
X89916000Y-77466001D01*
X90198484Y-77409810D01*
X90254675Y-77398633D01*
X90541790Y-77206790D01*
X91117140Y-76631440D01*
X92113000Y-76631440D01*
X92348317Y-76587162D01*
X92564441Y-76448090D01*
X92709431Y-76235890D01*
X92718370Y-76191745D01*
X92984861Y-76191745D01*
X93058995Y-76437864D01*
X93596223Y-76630965D01*
X94166454Y-76603778D01*
X94567005Y-76437864D01*
X94641139Y-76191745D01*
X93813000Y-75363605D01*
X92984861Y-76191745D01*
X92718370Y-76191745D01*
X92757646Y-75997799D01*
X92805255Y-76012139D01*
X93633395Y-75184000D01*
X93992605Y-75184000D01*
X94820745Y-76012139D01*
X95066864Y-75938005D01*
X95259965Y-75400777D01*
X95232778Y-74830546D01*
X95066864Y-74429995D01*
X94820745Y-74355861D01*
X93992605Y-75184000D01*
X93633395Y-75184000D01*
X92805255Y-74355861D01*
X92757833Y-74370145D01*
X92721351Y-74176255D01*
X92984861Y-74176255D01*
X93813000Y-75004395D01*
X94641139Y-74176255D01*
X94567005Y-73930136D01*
X94029777Y-73737035D01*
X93459546Y-73764222D01*
X93058995Y-73930136D01*
X92984861Y-74176255D01*
X92721351Y-74176255D01*
X92716162Y-74148683D01*
X92577090Y-73932559D01*
X92364890Y-73787569D01*
X92198000Y-73753773D01*
X92198000Y-72058080D01*
X93394079Y-70862000D01*
X100201829Y-70862000D01*
X100532077Y-71192824D01*
X101059309Y-71411750D01*
X101630187Y-71412248D01*
X102157800Y-71194243D01*
X102433472Y-70919052D01*
X103128000Y-71613579D01*
X103128000Y-81937420D01*
X102364580Y-81174001D01*
X102671767Y-80714264D01*
X102781000Y-80165113D01*
X102781000Y-80108887D01*
X102671767Y-79559736D01*
X102360698Y-79094189D01*
X101895151Y-78783120D01*
X101346000Y-78673887D01*
X100796849Y-78783120D01*
X100331302Y-79094189D01*
X100020233Y-79559736D01*
X99911000Y-80108887D01*
X99911000Y-80165113D01*
X100020233Y-80714264D01*
X100331302Y-81179811D01*
X100461000Y-81266473D01*
X100461000Y-81406995D01*
X100460999Y-81407000D01*
X100503105Y-81618674D01*
X100528367Y-81745675D01*
X100584144Y-81829151D01*
X100720210Y-82032790D01*
X103599154Y-84911733D01*
X103494267Y-85164330D01*
X103493735Y-85774991D01*
X103726932Y-86339371D01*
X103904092Y-86516841D01*
X103769301Y-86572673D01*
X103590673Y-86751302D01*
X103494000Y-86984691D01*
X103494000Y-87725250D01*
X103652750Y-87884000D01*
X104902000Y-87884000D01*
X104902000Y-87864000D01*
X105156000Y-87864000D01*
X105156000Y-87884000D01*
X106405250Y-87884000D01*
X106564000Y-87725250D01*
X106564000Y-86984691D01*
X106467327Y-86751302D01*
X106288699Y-86572673D01*
X106154006Y-86516881D01*
X106329551Y-86341643D01*
X106563733Y-85777670D01*
X106563877Y-85612886D01*
X108335000Y-87254415D01*
X108335000Y-89662000D01*
X108345825Y-89716421D01*
X108341833Y-89771771D01*
X108379227Y-89884345D01*
X108402367Y-90000675D01*
X108433195Y-90046813D01*
X108450688Y-90099474D01*
X108528308Y-90189160D01*
X108594210Y-90287790D01*
X108640351Y-90318620D01*
X108676663Y-90360577D01*
X110758405Y-91979710D01*
X110760283Y-91989151D01*
X111071352Y-92454698D01*
X111449707Y-92707507D01*
X111017500Y-93055104D01*
X110747633Y-93548181D01*
X110730096Y-93630961D01*
X110852085Y-93853000D01*
X112395000Y-93853000D01*
X112395000Y-93833000D01*
X112649000Y-93833000D01*
X112649000Y-93853000D01*
X114191915Y-93853000D01*
X114313904Y-93630961D01*
X114296367Y-93548181D01*
X114026500Y-93055104D01*
X113594293Y-92707507D01*
X113972648Y-92454698D01*
X114059310Y-92325000D01*
X115266920Y-92325000D01*
X115828000Y-92886079D01*
X115828000Y-95503995D01*
X115827999Y-95504000D01*
X115854979Y-95639633D01*
X115895367Y-95842675D01*
X115981010Y-95970849D01*
X116087210Y-96129790D01*
X116667921Y-96710500D01*
X115960210Y-97418210D01*
X115768367Y-97705325D01*
X115768367Y-97705326D01*
X115700999Y-98044000D01*
X115701000Y-98044005D01*
X115701000Y-109615421D01*
X112658210Y-112658210D01*
X112466367Y-112945325D01*
X112466367Y-112945326D01*
X112398999Y-113284000D01*
X112399000Y-113284005D01*
X112399000Y-118363995D01*
X112398999Y-118364000D01*
X112432681Y-118533325D01*
X112466367Y-118702675D01*
X112658210Y-118989790D01*
X113928208Y-120259787D01*
X113928210Y-120259790D01*
X113945169Y-120271122D01*
X114176197Y-120616878D01*
X114627145Y-120918193D01*
X115159075Y-121024000D01*
X116742925Y-121024000D01*
X117274855Y-120918193D01*
X117725803Y-120616878D01*
X118027118Y-120165930D01*
X118132925Y-119634000D01*
X118027118Y-119102070D01*
X117725803Y-118651122D01*
X117277013Y-118351249D01*
X117350263Y-118329592D01*
X117773681Y-117987076D01*
X118033793Y-117508597D01*
X118048277Y-117435971D01*
X117925683Y-117221000D01*
X123832000Y-117221000D01*
X123832000Y-117971000D01*
X123986408Y-118493263D01*
X124328924Y-118916681D01*
X124807403Y-119176793D01*
X124880029Y-119191277D01*
X125095000Y-119068683D01*
X125095000Y-117221000D01*
X123832000Y-117221000D01*
X117925683Y-117221000D01*
X116078000Y-117221000D01*
X116078000Y-117241000D01*
X115824000Y-117241000D01*
X115824000Y-117221000D01*
X115804000Y-117221000D01*
X115804000Y-116967000D01*
X115824000Y-116967000D01*
X115824000Y-116947000D01*
X116078000Y-116947000D01*
X116078000Y-116967000D01*
X117925683Y-116967000D01*
X118048277Y-116752029D01*
X118033793Y-116679403D01*
X117782421Y-116217000D01*
X123832000Y-116217000D01*
X123832000Y-116967000D01*
X125095000Y-116967000D01*
X125095000Y-115119317D01*
X125349000Y-115119317D01*
X125349000Y-116967000D01*
X125369000Y-116967000D01*
X125369000Y-117221000D01*
X125349000Y-117221000D01*
X125349000Y-119068683D01*
X125563971Y-119191277D01*
X125636597Y-119176793D01*
X126115076Y-118916681D01*
X126457592Y-118493263D01*
X126479249Y-118420013D01*
X126779122Y-118868803D01*
X126877000Y-118934203D01*
X126877000Y-122427995D01*
X126876999Y-122428000D01*
X126912295Y-122605440D01*
X126944367Y-122766675D01*
X127060996Y-122941223D01*
X127136210Y-123053790D01*
X130946208Y-126863787D01*
X130946210Y-126863790D01*
X131233325Y-127055633D01*
X131289516Y-127066810D01*
X131572000Y-127123001D01*
X131572005Y-127123000D01*
X141557995Y-127123000D01*
X141558000Y-127123001D01*
X141840484Y-127066810D01*
X141896675Y-127055633D01*
X142183790Y-126863790D01*
X142715438Y-126332142D01*
X142755352Y-126348716D01*
X143405795Y-126349284D01*
X144006943Y-126100894D01*
X144467278Y-125641363D01*
X144716716Y-125040648D01*
X144717284Y-124390205D01*
X144468894Y-123789057D01*
X144009363Y-123328722D01*
X143408648Y-123079284D01*
X142758205Y-123078716D01*
X142157057Y-123327106D01*
X141696722Y-123786637D01*
X141447284Y-124387352D01*
X141446716Y-125037795D01*
X141464232Y-125080188D01*
X141191420Y-125353000D01*
X131938579Y-125353000D01*
X130751325Y-124165745D01*
X134553861Y-124165745D01*
X134627995Y-124411864D01*
X135165223Y-124604965D01*
X135735454Y-124577778D01*
X136136005Y-124411864D01*
X136210139Y-124165745D01*
X135382000Y-123337605D01*
X134553861Y-124165745D01*
X130751325Y-124165745D01*
X128647000Y-122061420D01*
X128647000Y-118934203D01*
X128744878Y-118868803D01*
X129046193Y-118417855D01*
X129152000Y-117885925D01*
X129152000Y-116955580D01*
X129521579Y-116586000D01*
X133664887Y-116586000D01*
X133774120Y-117135151D01*
X134085189Y-117600698D01*
X134497000Y-117875862D01*
X134497000Y-119726554D01*
X134346683Y-119754838D01*
X134130559Y-119893910D01*
X133985569Y-120106110D01*
X133934560Y-120358000D01*
X133934560Y-121958000D01*
X133978838Y-122193317D01*
X134117910Y-122409441D01*
X134124548Y-122413977D01*
X133935035Y-122941223D01*
X133962222Y-123511454D01*
X134128136Y-123912005D01*
X134374255Y-123986139D01*
X135202395Y-123158000D01*
X135188252Y-123143858D01*
X135367858Y-122964253D01*
X135382000Y-122978395D01*
X135396143Y-122964253D01*
X135575748Y-123143858D01*
X135561605Y-123158000D01*
X136389745Y-123986139D01*
X136635864Y-123912005D01*
X136828965Y-123374777D01*
X136801778Y-122804546D01*
X136639616Y-122413053D01*
X136778431Y-122209890D01*
X136829440Y-121958000D01*
X136829440Y-120358000D01*
X136785162Y-120122683D01*
X136646090Y-119906559D01*
X136433890Y-119761569D01*
X136267000Y-119727773D01*
X136267000Y-117456741D01*
X136481880Y-117135151D01*
X136591113Y-116586000D01*
X136481880Y-116036849D01*
X136170811Y-115571302D01*
X135705264Y-115260233D01*
X135156113Y-115151000D01*
X135099887Y-115151000D01*
X134550736Y-115260233D01*
X134085189Y-115571302D01*
X133774120Y-116036849D01*
X133664887Y-116586000D01*
X129521579Y-116586000D01*
X131181787Y-114925792D01*
X131181790Y-114925790D01*
X131373633Y-114638675D01*
X131398895Y-114511674D01*
X131441001Y-114300000D01*
X131441000Y-114299995D01*
X131441000Y-111864144D01*
X131598811Y-111758698D01*
X131909880Y-111293151D01*
X132019113Y-110744000D01*
X131909880Y-110194849D01*
X131598811Y-109729302D01*
X131133264Y-109418233D01*
X130584113Y-109309000D01*
X130527887Y-109309000D01*
X129978736Y-109418233D01*
X129513189Y-109729302D01*
X129202120Y-110194849D01*
X129092887Y-110744000D01*
X129202120Y-111293151D01*
X129513189Y-111758698D01*
X129671000Y-111864144D01*
X129671000Y-113933421D01*
X128469336Y-115135085D01*
X128293930Y-115017882D01*
X127762000Y-114912075D01*
X127230070Y-115017882D01*
X126779122Y-115319197D01*
X126479249Y-115767987D01*
X126457592Y-115694737D01*
X126115076Y-115271319D01*
X125636597Y-115011207D01*
X125563971Y-114996723D01*
X125349000Y-115119317D01*
X125095000Y-115119317D01*
X124880029Y-114996723D01*
X124807403Y-115011207D01*
X124328924Y-115271319D01*
X123986408Y-115694737D01*
X123832000Y-116217000D01*
X117782421Y-116217000D01*
X117773681Y-116200924D01*
X117350263Y-115858408D01*
X117277013Y-115836751D01*
X117725803Y-115536878D01*
X118027118Y-115085930D01*
X118132925Y-114554000D01*
X118027118Y-114022070D01*
X117757308Y-113618272D01*
X118481787Y-112893792D01*
X118481790Y-112893790D01*
X118673633Y-112606675D01*
X118710259Y-112422546D01*
X118741001Y-112268000D01*
X118741000Y-112267995D01*
X118741000Y-110267872D01*
X119156899Y-110545767D01*
X119706050Y-110655000D01*
X120577950Y-110655000D01*
X121127101Y-110545767D01*
X121592648Y-110234698D01*
X121903717Y-109769151D01*
X122012950Y-109220000D01*
X121903717Y-108670849D01*
X121592648Y-108205302D01*
X121210562Y-107950000D01*
X121592648Y-107694698D01*
X121903717Y-107229151D01*
X122012950Y-106680000D01*
X121903717Y-106130849D01*
X121592648Y-105665302D01*
X121210562Y-105410000D01*
X121592648Y-105154698D01*
X121679310Y-105025000D01*
X123609829Y-105025000D01*
X123940077Y-105355824D01*
X124467309Y-105574750D01*
X125038187Y-105575248D01*
X125565800Y-105357243D01*
X125834583Y-105088928D01*
X125850838Y-105175317D01*
X125989910Y-105391441D01*
X126202110Y-105536431D01*
X126402209Y-105576952D01*
X126405600Y-105594000D01*
X126436367Y-105748675D01*
X126628210Y-106035790D01*
X128406208Y-107813787D01*
X128406210Y-107813790D01*
X128693325Y-108005633D01*
X128749516Y-108016810D01*
X129032000Y-108073001D01*
X129032005Y-108073000D01*
X137159995Y-108073000D01*
X137160000Y-108073001D01*
X137442484Y-108016810D01*
X137498675Y-108005633D01*
X137785790Y-107813790D01*
X138293787Y-107305792D01*
X138293790Y-107305790D01*
X138485633Y-107018675D01*
X138553000Y-106680000D01*
X138553000Y-105931310D01*
X138682698Y-105844648D01*
X138935507Y-105466293D01*
X139283104Y-105898500D01*
X139776181Y-106168367D01*
X139858961Y-106185904D01*
X140081000Y-106063915D01*
X140081000Y-104521000D01*
X140335000Y-104521000D01*
X140335000Y-106063915D01*
X140557039Y-106185904D01*
X140639819Y-106168367D01*
X141132896Y-105898500D01*
X141485166Y-105460483D01*
X141643000Y-104921000D01*
X141643000Y-104521000D01*
X140335000Y-104521000D01*
X140081000Y-104521000D01*
X140061000Y-104521000D01*
X140061000Y-104267000D01*
X140081000Y-104267000D01*
X140081000Y-104247000D01*
X140335000Y-104247000D01*
X140335000Y-104267000D01*
X141643000Y-104267000D01*
X141643000Y-103867000D01*
X141485166Y-103327517D01*
X141420411Y-103247000D01*
X142406367Y-103247000D01*
X143364130Y-103438553D01*
X143511302Y-103658811D01*
X143976849Y-103969880D01*
X144526000Y-104079113D01*
X145075151Y-103969880D01*
X145540698Y-103658811D01*
X145851767Y-103193264D01*
X145961000Y-102644113D01*
X145961000Y-102587887D01*
X145878239Y-102171818D01*
X146435000Y-102728579D01*
X146435000Y-106171995D01*
X146434999Y-106172000D01*
X146468681Y-106341325D01*
X146502367Y-106510675D01*
X146615506Y-106680000D01*
X146694210Y-106797790D01*
X146927375Y-107030954D01*
X147772941Y-107997315D01*
X147717284Y-108131352D01*
X147716716Y-108781795D01*
X147965106Y-109382943D01*
X148424637Y-109843278D01*
X148467000Y-109860869D01*
X148467000Y-111393421D01*
X144662210Y-115198210D01*
X144575735Y-115327630D01*
X144476200Y-115368757D01*
X144072176Y-115772077D01*
X143853250Y-116299309D01*
X143852752Y-116870187D01*
X144070757Y-117397800D01*
X144474077Y-117801824D01*
X145001309Y-118020750D01*
X145572187Y-118021248D01*
X146099800Y-117803243D01*
X146503824Y-117399923D01*
X146722750Y-116872691D01*
X146723248Y-116301813D01*
X146529843Y-115833737D01*
X149977787Y-112385792D01*
X149977790Y-112385790D01*
X150169633Y-112098675D01*
X150196970Y-111961243D01*
X150237001Y-111760000D01*
X150237000Y-111759995D01*
X150237000Y-109861398D01*
X150276943Y-109844894D01*
X150737278Y-109385363D01*
X150754869Y-109343000D01*
X152634138Y-109343000D01*
X152909302Y-109754811D01*
X153374849Y-110065880D01*
X153924000Y-110175113D01*
X154473151Y-110065880D01*
X154938698Y-109754811D01*
X155249767Y-109289264D01*
X155359000Y-108740113D01*
X155359000Y-108683887D01*
X155249767Y-108134736D01*
X154938698Y-107669189D01*
X154473151Y-107358120D01*
X153924000Y-107248887D01*
X153374849Y-107358120D01*
X153053259Y-107573000D01*
X150755398Y-107573000D01*
X150738894Y-107533057D01*
X150279363Y-107072722D01*
X149678648Y-106823284D01*
X149097139Y-106822776D01*
X148240030Y-105843223D01*
X148216371Y-105825027D01*
X148205000Y-105808009D01*
X148205000Y-102362005D01*
X148205001Y-102362000D01*
X148137633Y-102023326D01*
X148137633Y-102023325D01*
X147945790Y-101736210D01*
X147945787Y-101736208D01*
X146167790Y-99958210D01*
X146025405Y-99863072D01*
X145880675Y-99766367D01*
X145824484Y-99755190D01*
X145542000Y-99698999D01*
X145541995Y-99699000D01*
X143868580Y-99699000D01*
X149718579Y-93849000D01*
X153362906Y-93849000D01*
X153297197Y-94007244D01*
X153296803Y-94458775D01*
X153469233Y-94876086D01*
X153547000Y-94953989D01*
X153547000Y-97155102D01*
X153112200Y-97334757D01*
X152873541Y-97573000D01*
X150755398Y-97573000D01*
X150738894Y-97533057D01*
X150279363Y-97072722D01*
X149678648Y-96823284D01*
X149028205Y-96822716D01*
X148427057Y-97071106D01*
X147966722Y-97530637D01*
X147717284Y-98131352D01*
X147716716Y-98781795D01*
X147965106Y-99382943D01*
X148424637Y-99843278D01*
X149025352Y-100092716D01*
X149675795Y-100093284D01*
X150276943Y-99844894D01*
X150737278Y-99385363D01*
X150754869Y-99343000D01*
X152698163Y-99343000D01*
X152706757Y-99363800D01*
X153039000Y-99696623D01*
X153039000Y-99821995D01*
X153038999Y-99822000D01*
X153087698Y-100066821D01*
X153106367Y-100160675D01*
X153162928Y-100245325D01*
X153298210Y-100447790D01*
X155076208Y-102225787D01*
X155076210Y-102225790D01*
X155363325Y-102417633D01*
X155419516Y-102428810D01*
X155702000Y-102485001D01*
X155702005Y-102485000D01*
X157621420Y-102485000D01*
X159897000Y-104760579D01*
X159897000Y-107303124D01*
X159847890Y-107269569D01*
X159596000Y-107218560D01*
X157396000Y-107218560D01*
X157160683Y-107262838D01*
X156944559Y-107401910D01*
X156799569Y-107614110D01*
X156748560Y-107866000D01*
X156748560Y-110066000D01*
X156792838Y-110301317D01*
X156931910Y-110517441D01*
X157144110Y-110662431D01*
X157396000Y-110713440D01*
X157611000Y-110713440D01*
X157611000Y-111891000D01*
X152654000Y-111891000D01*
X152315325Y-111958367D01*
X152028210Y-112150210D01*
X152028208Y-112150213D01*
X151520210Y-112658210D01*
X151328367Y-112945325D01*
X151328367Y-112945326D01*
X151260999Y-113284000D01*
X151261000Y-113284005D01*
X151261000Y-114695421D01*
X150758210Y-115198210D01*
X150758208Y-115198213D01*
X147461420Y-118495000D01*
X144638579Y-118495000D01*
X141601000Y-115457420D01*
X141601000Y-113783745D01*
X143697861Y-113783745D01*
X143771995Y-114029864D01*
X144309223Y-114222965D01*
X144879454Y-114195778D01*
X145280005Y-114029864D01*
X145354139Y-113783745D01*
X144526000Y-112955605D01*
X143697861Y-113783745D01*
X141601000Y-113783745D01*
X141601000Y-112559223D01*
X143079035Y-112559223D01*
X143106222Y-113129454D01*
X143272136Y-113530005D01*
X143518255Y-113604139D01*
X144346395Y-112776000D01*
X144705605Y-112776000D01*
X145533745Y-113604139D01*
X145779864Y-113530005D01*
X145972965Y-112992777D01*
X145945778Y-112422546D01*
X145779864Y-112021995D01*
X145533745Y-111947861D01*
X144705605Y-112776000D01*
X144346395Y-112776000D01*
X143518255Y-111947861D01*
X143272136Y-112021995D01*
X143079035Y-112559223D01*
X141601000Y-112559223D01*
X141601000Y-111888171D01*
X141721125Y-111768255D01*
X143697861Y-111768255D01*
X144526000Y-112596395D01*
X145354139Y-111768255D01*
X145280005Y-111522136D01*
X144742777Y-111329035D01*
X144172546Y-111356222D01*
X143771995Y-111522136D01*
X143697861Y-111768255D01*
X141721125Y-111768255D01*
X141931824Y-111557923D01*
X142150750Y-111030691D01*
X142151248Y-110459813D01*
X141933243Y-109932200D01*
X141529923Y-109528176D01*
X141002691Y-109309250D01*
X140431813Y-109308752D01*
X139904200Y-109526757D01*
X139500176Y-109930077D01*
X139281250Y-110457309D01*
X139280752Y-111028187D01*
X139498757Y-111555800D01*
X139831000Y-111888623D01*
X139831000Y-115823995D01*
X139830999Y-115824000D01*
X139875711Y-116048775D01*
X139898367Y-116162675D01*
X139991336Y-116301813D01*
X140090210Y-116449790D01*
X143646208Y-120005787D01*
X143646210Y-120005790D01*
X143933325Y-120197633D01*
X144272000Y-120265000D01*
X147827995Y-120265000D01*
X147828000Y-120265001D01*
X148110484Y-120208810D01*
X148166675Y-120197633D01*
X148453790Y-120005790D01*
X148453791Y-120005789D01*
X151079829Y-117379750D01*
X153805000Y-117379750D01*
X153805000Y-117720310D01*
X153901673Y-117953699D01*
X154080302Y-118132327D01*
X154313691Y-118229000D01*
X154654250Y-118229000D01*
X154813000Y-118070250D01*
X154813000Y-117221000D01*
X155067000Y-117221000D01*
X155067000Y-118070250D01*
X155225750Y-118229000D01*
X155566309Y-118229000D01*
X155799698Y-118132327D01*
X155978327Y-117953699D01*
X156075000Y-117720310D01*
X156075000Y-117379750D01*
X155916250Y-117221000D01*
X155067000Y-117221000D01*
X154813000Y-117221000D01*
X153963750Y-117221000D01*
X153805000Y-117379750D01*
X151079829Y-117379750D01*
X151750579Y-116709000D01*
X152949724Y-116709000D01*
X153026235Y-116785645D01*
X153443244Y-116958803D01*
X153894775Y-116959197D01*
X153938061Y-116941311D01*
X153963750Y-116967000D01*
X154813000Y-116967000D01*
X154813000Y-116117750D01*
X155067000Y-116117750D01*
X155067000Y-116967000D01*
X155916250Y-116967000D01*
X156075000Y-116808250D01*
X156075000Y-116467690D01*
X155978327Y-116234301D01*
X155799698Y-116055673D01*
X155566309Y-115959000D01*
X155225750Y-115959000D01*
X155067000Y-116117750D01*
X154813000Y-116117750D01*
X154787552Y-116092302D01*
X154804803Y-116050756D01*
X154805119Y-115688883D01*
X155164775Y-115689197D01*
X155582086Y-115516767D01*
X155659989Y-115439000D01*
X157865000Y-115439000D01*
X157865000Y-118505421D01*
X152541420Y-123829000D01*
X149729440Y-123829000D01*
X149729440Y-123714000D01*
X149685162Y-123478683D01*
X149546090Y-123262559D01*
X149333890Y-123117569D01*
X149082000Y-123066560D01*
X147082000Y-123066560D01*
X146846683Y-123110838D01*
X146630559Y-123249910D01*
X146485569Y-123462110D01*
X146434560Y-123714000D01*
X146434560Y-125714000D01*
X146478838Y-125949317D01*
X146617910Y-126165441D01*
X146830110Y-126310431D01*
X147082000Y-126361440D01*
X149082000Y-126361440D01*
X149317317Y-126317162D01*
X149533441Y-126178090D01*
X149678431Y-125965890D01*
X149729440Y-125714000D01*
X149729440Y-125599000D01*
X152907995Y-125599000D01*
X152908000Y-125599001D01*
X153190484Y-125542810D01*
X153246675Y-125531633D01*
X153533790Y-125339790D01*
X159375787Y-119497792D01*
X159375790Y-119497790D01*
X159567633Y-119210675D01*
X159607906Y-119008211D01*
X159635001Y-118872000D01*
X159635000Y-118871995D01*
X159635000Y-115346025D01*
X159883790Y-115179790D01*
X160137787Y-114925792D01*
X160137790Y-114925790D01*
X160391787Y-114671792D01*
X160391790Y-114671790D01*
X160583633Y-114384675D01*
X160600476Y-114300000D01*
X160651001Y-114046000D01*
X160651000Y-114045995D01*
X160651000Y-113142580D01*
X161407787Y-112385792D01*
X161407790Y-112385790D01*
X161599633Y-112098675D01*
X161626970Y-111961243D01*
X161667001Y-111760000D01*
X161667000Y-111759995D01*
X161667000Y-104394005D01*
X161667001Y-104394000D01*
X161599633Y-104055326D01*
X161599633Y-104055325D01*
X161407790Y-103768210D01*
X161407787Y-103768208D01*
X158613790Y-100974210D01*
X158493197Y-100893633D01*
X158326675Y-100782367D01*
X158270484Y-100771190D01*
X157988000Y-100714999D01*
X157987995Y-100715000D01*
X156068579Y-100715000D01*
X154929480Y-99575900D01*
X155139824Y-99365923D01*
X155358750Y-98838691D01*
X155359248Y-98267813D01*
X155300677Y-98126060D01*
X155317000Y-98044000D01*
X155317000Y-94954276D01*
X155393645Y-94877765D01*
X155566803Y-94460756D01*
X155567119Y-94098883D01*
X155585319Y-94098899D01*
X157611000Y-96124579D01*
X157611000Y-97316775D01*
X157269170Y-97545179D01*
X156893069Y-98108053D01*
X156761000Y-98772009D01*
X156761000Y-98839991D01*
X156893069Y-99503947D01*
X157269170Y-100066821D01*
X157832044Y-100442922D01*
X158496000Y-100574991D01*
X159159956Y-100442922D01*
X159722830Y-100066821D01*
X160098931Y-99503947D01*
X160231000Y-98839991D01*
X160231000Y-98772009D01*
X160098931Y-98108053D01*
X159722830Y-97545179D01*
X159381000Y-97316775D01*
X159381000Y-95758005D01*
X159381001Y-95758000D01*
X159313633Y-95419326D01*
X159313633Y-95419325D01*
X159121790Y-95132210D01*
X159121787Y-95132208D01*
X156837103Y-92847523D01*
X156837197Y-92739225D01*
X156664767Y-92321914D01*
X156345765Y-92002355D01*
X155928756Y-91829197D01*
X155579440Y-91828892D01*
X155579440Y-91194000D01*
X155535162Y-90958683D01*
X155396090Y-90742559D01*
X155183890Y-90597569D01*
X154932000Y-90546560D01*
X153932000Y-90546560D01*
X153696683Y-90590838D01*
X153480559Y-90729910D01*
X153426519Y-90809000D01*
X148844005Y-90809000D01*
X148844000Y-90808999D01*
X148505325Y-90876367D01*
X148218210Y-91068210D01*
X148218208Y-91068213D01*
X141535368Y-97751052D01*
X141643000Y-97209950D01*
X141643000Y-96338050D01*
X141533767Y-95788899D01*
X141222698Y-95323352D01*
X140757151Y-95012283D01*
X140703113Y-95001534D01*
X138039790Y-92338210D01*
X137846879Y-92209312D01*
X137752675Y-92146367D01*
X137696484Y-92135190D01*
X137414000Y-92078999D01*
X137413995Y-92079000D01*
X134493002Y-92079000D01*
X134493002Y-91947916D01*
X134715039Y-92069904D01*
X135103423Y-91909041D01*
X135518389Y-91533134D01*
X135757914Y-91027041D01*
X135636629Y-90805000D01*
X134493000Y-90805000D01*
X134493000Y-90825000D01*
X134239000Y-90825000D01*
X134239000Y-90805000D01*
X133095371Y-90805000D01*
X132974086Y-91027041D01*
X133213611Y-91533134D01*
X133628577Y-91909041D01*
X134016961Y-92069904D01*
X134238998Y-91947916D01*
X134238998Y-92079000D01*
X133462579Y-92079000D01*
X132711000Y-91327420D01*
X132711000Y-90328959D01*
X132974086Y-90328959D01*
X133095371Y-90551000D01*
X134239000Y-90551000D01*
X134239000Y-89408085D01*
X134493000Y-89408085D01*
X134493000Y-90551000D01*
X135636629Y-90551000D01*
X135757914Y-90328959D01*
X135518389Y-89822866D01*
X135103423Y-89446959D01*
X134715039Y-89286096D01*
X134493000Y-89408085D01*
X134239000Y-89408085D01*
X134016961Y-89286096D01*
X133628577Y-89446959D01*
X133213611Y-89822866D01*
X132974086Y-90328959D01*
X132711000Y-90328959D01*
X132711000Y-81403000D01*
X133221829Y-81403000D01*
X133552077Y-81733824D01*
X134079309Y-81952750D01*
X134650187Y-81953248D01*
X135177800Y-81735243D01*
X135581824Y-81331923D01*
X135666129Y-81128892D01*
X137242514Y-81128892D01*
X137488817Y-81653358D01*
X137917076Y-82043645D01*
X138327110Y-82213476D01*
X138557000Y-82092155D01*
X138557000Y-80899000D01*
X138811000Y-80899000D01*
X138811000Y-82092155D01*
X139040890Y-82213476D01*
X139450924Y-82043645D01*
X139879183Y-81653358D01*
X139954000Y-81494046D01*
X140028817Y-81653358D01*
X140457076Y-82043645D01*
X140867110Y-82213476D01*
X141097000Y-82092155D01*
X141097000Y-80899000D01*
X141351000Y-80899000D01*
X141351000Y-82092155D01*
X141580890Y-82213476D01*
X141990924Y-82043645D01*
X142419183Y-81653358D01*
X142494000Y-81494046D01*
X142568817Y-81653358D01*
X142997076Y-82043645D01*
X143407110Y-82213476D01*
X143637000Y-82092155D01*
X143637000Y-80899000D01*
X143891000Y-80899000D01*
X143891000Y-82092155D01*
X144120890Y-82213476D01*
X144530924Y-82043645D01*
X144959183Y-81653358D01*
X145034000Y-81494046D01*
X145108817Y-81653358D01*
X145537076Y-82043645D01*
X145947110Y-82213476D01*
X146177000Y-82092155D01*
X146177000Y-80899000D01*
X146431000Y-80899000D01*
X146431000Y-82092155D01*
X146660890Y-82213476D01*
X147070924Y-82043645D01*
X147499183Y-81653358D01*
X147745486Y-81128892D01*
X147624819Y-80899000D01*
X146431000Y-80899000D01*
X146177000Y-80899000D01*
X143891000Y-80899000D01*
X143637000Y-80899000D01*
X141351000Y-80899000D01*
X141097000Y-80899000D01*
X138811000Y-80899000D01*
X138557000Y-80899000D01*
X137363181Y-80899000D01*
X137242514Y-81128892D01*
X135666129Y-81128892D01*
X135800750Y-80804691D01*
X135801248Y-80233813D01*
X135583243Y-79706200D01*
X135179923Y-79302176D01*
X134652691Y-79083250D01*
X134081813Y-79082752D01*
X133554200Y-79300757D01*
X133221377Y-79633000D01*
X130430171Y-79633000D01*
X130099923Y-79302176D01*
X129572691Y-79083250D01*
X129001813Y-79082752D01*
X128474200Y-79300757D01*
X128070176Y-79704077D01*
X127851250Y-80231309D01*
X127850752Y-80802187D01*
X128068757Y-81329800D01*
X128472077Y-81733824D01*
X128999309Y-81952750D01*
X129570187Y-81953248D01*
X130097800Y-81735243D01*
X130430623Y-81403000D01*
X130941000Y-81403000D01*
X130941000Y-91693995D01*
X130940999Y-91694000D01*
X130991507Y-91947915D01*
X131008367Y-92032675D01*
X131158678Y-92257633D01*
X131200210Y-92319790D01*
X132470208Y-93589787D01*
X132470210Y-93589790D01*
X132757325Y-93781633D01*
X133096000Y-93849001D01*
X133096005Y-93849000D01*
X137047420Y-93849000D01*
X138209103Y-95010682D01*
X137668000Y-94903050D01*
X137118849Y-95012283D01*
X136653302Y-95323352D01*
X136398000Y-95705438D01*
X136142698Y-95323352D01*
X135677151Y-95012283D01*
X135128000Y-94903050D01*
X134578849Y-95012283D01*
X134113302Y-95323352D01*
X133858000Y-95705438D01*
X133602698Y-95323352D01*
X133137151Y-95012283D01*
X132588000Y-94903050D01*
X132038849Y-95012283D01*
X131573302Y-95323352D01*
X131289568Y-95747989D01*
X130927790Y-95386210D01*
X130901738Y-95368803D01*
X130640675Y-95194367D01*
X130584484Y-95183190D01*
X130302000Y-95126999D01*
X130301995Y-95127000D01*
X130171000Y-95127000D01*
X130171000Y-91807473D01*
X130300698Y-91720811D01*
X130611767Y-91255264D01*
X130721000Y-90706113D01*
X130721000Y-90649887D01*
X130611767Y-90100736D01*
X130300698Y-89635189D01*
X129835151Y-89324120D01*
X129286000Y-89214887D01*
X128736849Y-89324120D01*
X128271302Y-89635189D01*
X127960233Y-90100736D01*
X127851000Y-90649887D01*
X127851000Y-90706113D01*
X127960233Y-91255264D01*
X128271302Y-91720811D01*
X128401000Y-91807473D01*
X128401000Y-95127000D01*
X125080579Y-95127000D01*
X124441580Y-94488000D01*
X126355787Y-92573792D01*
X126355790Y-92573790D01*
X126547633Y-92286675D01*
X126615000Y-91948000D01*
X126615000Y-89536171D01*
X126945824Y-89205923D01*
X127164750Y-88678691D01*
X127165248Y-88107813D01*
X126947243Y-87580200D01*
X126543923Y-87176176D01*
X126016691Y-86957250D01*
X125445813Y-86956752D01*
X124918200Y-87174757D01*
X124514176Y-87578077D01*
X124295250Y-88105309D01*
X124294752Y-88676187D01*
X124512757Y-89203800D01*
X124845000Y-89536623D01*
X124845000Y-91581421D01*
X123166570Y-93259850D01*
X123020675Y-93162367D01*
X122934824Y-93145290D01*
X122682000Y-93094999D01*
X122681995Y-93095000D01*
X121679310Y-93095000D01*
X121592648Y-92965302D01*
X121214293Y-92712493D01*
X121646500Y-92364896D01*
X121916367Y-91871819D01*
X121933904Y-91789039D01*
X121811915Y-91567000D01*
X120269000Y-91567000D01*
X120269000Y-91587000D01*
X120015000Y-91587000D01*
X120015000Y-91567000D01*
X118472085Y-91567000D01*
X118350096Y-91789039D01*
X118367633Y-91871819D01*
X118637500Y-92364896D01*
X119069707Y-92712493D01*
X118691352Y-92965302D01*
X118604690Y-93095000D01*
X118540079Y-93095000D01*
X117338790Y-91893710D01*
X117338787Y-91893708D01*
X116259290Y-90814210D01*
X116201000Y-90775262D01*
X116201000Y-82408580D01*
X118481787Y-80127792D01*
X118481790Y-80127790D01*
X118673633Y-79840675D01*
X118690877Y-79753986D01*
X118691352Y-79754698D01*
X119073438Y-80010000D01*
X118691352Y-80265302D01*
X118380283Y-80730849D01*
X118271050Y-81280000D01*
X118380283Y-81829151D01*
X118691352Y-82294698D01*
X119073438Y-82550000D01*
X118691352Y-82805302D01*
X118380283Y-83270849D01*
X118271050Y-83820000D01*
X118380283Y-84369151D01*
X118691352Y-84834698D01*
X119073438Y-85090000D01*
X118691352Y-85345302D01*
X118380283Y-85810849D01*
X118271050Y-86360000D01*
X118380283Y-86909151D01*
X118691352Y-87374698D01*
X119073438Y-87630000D01*
X118691352Y-87885302D01*
X118380283Y-88350849D01*
X118271050Y-88900000D01*
X118380283Y-89449151D01*
X118691352Y-89914698D01*
X119069707Y-90167507D01*
X118637500Y-90515104D01*
X118367633Y-91008181D01*
X118350096Y-91090961D01*
X118472085Y-91313000D01*
X120015000Y-91313000D01*
X120015000Y-91293000D01*
X120269000Y-91293000D01*
X120269000Y-91313000D01*
X121811915Y-91313000D01*
X121933904Y-91090961D01*
X121916367Y-91008181D01*
X121646500Y-90515104D01*
X121214293Y-90167507D01*
X121592648Y-89914698D01*
X121903717Y-89449151D01*
X122012950Y-88900000D01*
X121903717Y-88350849D01*
X121592648Y-87885302D01*
X121210562Y-87630000D01*
X121592648Y-87374698D01*
X121903717Y-86909151D01*
X122012950Y-86360000D01*
X121903717Y-85810849D01*
X121592648Y-85345302D01*
X121210562Y-85090000D01*
X121592648Y-84834698D01*
X121903717Y-84369151D01*
X122012950Y-83820000D01*
X121903717Y-83270849D01*
X121592648Y-82805302D01*
X121210562Y-82550000D01*
X121592648Y-82294698D01*
X121903717Y-81829151D01*
X122012950Y-81280000D01*
X121903717Y-80730849D01*
X121592648Y-80265302D01*
X121210562Y-80010000D01*
X121592648Y-79754698D01*
X121903717Y-79289151D01*
X122012950Y-78740000D01*
X121903717Y-78190849D01*
X121592648Y-77725302D01*
X121210562Y-77470000D01*
X121592648Y-77214698D01*
X121679310Y-77085000D01*
X123569387Y-77085000D01*
X123646077Y-77161824D01*
X124173309Y-77380750D01*
X124744187Y-77381248D01*
X125271800Y-77163243D01*
X125675824Y-76759923D01*
X125894750Y-76232691D01*
X125895000Y-75946000D01*
X133156887Y-75946000D01*
X133266120Y-76495151D01*
X133577189Y-76960698D01*
X134042736Y-77271767D01*
X134591887Y-77381000D01*
X134648113Y-77381000D01*
X134777653Y-77355233D01*
X136280208Y-78857787D01*
X136280210Y-78857790D01*
X136484064Y-78994000D01*
X136567325Y-79049633D01*
X136906000Y-79117001D01*
X136906005Y-79117000D01*
X137504221Y-79117000D01*
X137633946Y-79311147D01*
X137917101Y-79500345D01*
X137917076Y-79500355D01*
X137488817Y-79890642D01*
X137242514Y-80415108D01*
X137363181Y-80645000D01*
X138557000Y-80645000D01*
X138557000Y-80625000D01*
X138811000Y-80625000D01*
X138811000Y-80645000D01*
X141097000Y-80645000D01*
X141097000Y-80625000D01*
X141351000Y-80625000D01*
X141351000Y-80645000D01*
X143637000Y-80645000D01*
X143637000Y-80625000D01*
X143891000Y-80625000D01*
X143891000Y-80645000D01*
X146177000Y-80645000D01*
X146177000Y-80625000D01*
X146431000Y-80625000D01*
X146431000Y-80645000D01*
X147624819Y-80645000D01*
X147745486Y-80415108D01*
X147499183Y-79890642D01*
X147293496Y-79703192D01*
X147389317Y-79685162D01*
X147605441Y-79546090D01*
X147750431Y-79333890D01*
X147801440Y-79082000D01*
X147801440Y-77382000D01*
X147757162Y-77146683D01*
X147618090Y-76930559D01*
X147405890Y-76785569D01*
X147189000Y-76741648D01*
X147189000Y-73773473D01*
X147318698Y-73686811D01*
X147629767Y-73221264D01*
X147739000Y-72672113D01*
X147739000Y-72615887D01*
X147629767Y-72066736D01*
X147318698Y-71601189D01*
X146853151Y-71290120D01*
X146304000Y-71180887D01*
X145754849Y-71290120D01*
X145289302Y-71601189D01*
X144978233Y-72066736D01*
X144869000Y-72615887D01*
X144869000Y-72672113D01*
X144978233Y-73221264D01*
X145289302Y-73686811D01*
X145419000Y-73773473D01*
X145419000Y-76741146D01*
X145218683Y-76778838D01*
X145002559Y-76917910D01*
X144857569Y-77130110D01*
X144843914Y-77197541D01*
X144814054Y-77152853D01*
X144649000Y-77042568D01*
X144649000Y-74168000D01*
X144581633Y-73829325D01*
X144389790Y-73542210D01*
X144389787Y-73542208D01*
X143649233Y-72801653D01*
X143675000Y-72672113D01*
X143675000Y-72615887D01*
X143565767Y-72066736D01*
X143254698Y-71601189D01*
X142789151Y-71290120D01*
X142240000Y-71180887D01*
X141690849Y-71290120D01*
X141225302Y-71601189D01*
X140914233Y-72066736D01*
X140805000Y-72615887D01*
X140805000Y-72672113D01*
X140914233Y-73221264D01*
X141225302Y-73686811D01*
X141690849Y-73997880D01*
X142240000Y-74107113D01*
X142416438Y-74072017D01*
X142879000Y-74534579D01*
X142879000Y-77042568D01*
X142713946Y-77152853D01*
X142494000Y-77482026D01*
X142274054Y-77152853D01*
X141880160Y-76889662D01*
X141849790Y-76844210D01*
X141849787Y-76844208D01*
X139061000Y-74055420D01*
X139061000Y-73773473D01*
X139190698Y-73686811D01*
X139501767Y-73221264D01*
X139611000Y-72672113D01*
X139611000Y-72615887D01*
X139501767Y-72066736D01*
X139190698Y-71601189D01*
X138725151Y-71290120D01*
X138176000Y-71180887D01*
X137626849Y-71290120D01*
X137161302Y-71601189D01*
X136850233Y-72066736D01*
X136741000Y-72615887D01*
X136741000Y-72672113D01*
X136850233Y-73221264D01*
X137161302Y-73686811D01*
X137291000Y-73773473D01*
X137291000Y-74421995D01*
X137290999Y-74422000D01*
X137318094Y-74558211D01*
X137358367Y-74760675D01*
X137496377Y-74967223D01*
X137550210Y-75047790D01*
X139496637Y-76994216D01*
X139252285Y-76830946D01*
X138684000Y-76717907D01*
X138115715Y-76830946D01*
X137633946Y-77152853D01*
X137504221Y-77347000D01*
X137272579Y-77347000D01*
X136048017Y-76122438D01*
X136083113Y-75946000D01*
X135973880Y-75396849D01*
X135662811Y-74931302D01*
X135197264Y-74620233D01*
X134648113Y-74511000D01*
X134591887Y-74511000D01*
X134042736Y-74620233D01*
X133577189Y-74931302D01*
X133266120Y-75396849D01*
X133156887Y-75946000D01*
X125895000Y-75946000D01*
X125895248Y-75661813D01*
X125677243Y-75134200D01*
X125273923Y-74730176D01*
X124746691Y-74511250D01*
X124175813Y-74510752D01*
X123648200Y-74728757D01*
X123244176Y-75132077D01*
X123168220Y-75315000D01*
X121679310Y-75315000D01*
X121592648Y-75185302D01*
X121127101Y-74874233D01*
X120577950Y-74765000D01*
X119706050Y-74765000D01*
X119156899Y-74874233D01*
X118741000Y-75152128D01*
X118741000Y-72502580D01*
X119479047Y-71764532D01*
X126131073Y-71764532D01*
X126229736Y-72031387D01*
X126839461Y-72257908D01*
X127489460Y-72233856D01*
X127978264Y-72031387D01*
X128076927Y-71764532D01*
X132631073Y-71764532D01*
X132729736Y-72031387D01*
X133339461Y-72257908D01*
X133989460Y-72233856D01*
X134478264Y-72031387D01*
X134576927Y-71764532D01*
X133604000Y-70791605D01*
X132631073Y-71764532D01*
X128076927Y-71764532D01*
X127104000Y-70791605D01*
X126131073Y-71764532D01*
X119479047Y-71764532D01*
X120767787Y-70475792D01*
X120767790Y-70475790D01*
X120853536Y-70347461D01*
X125458092Y-70347461D01*
X125482144Y-70997460D01*
X125684613Y-71486264D01*
X125951468Y-71584927D01*
X126924395Y-70612000D01*
X127283605Y-70612000D01*
X128256532Y-71584927D01*
X128523387Y-71486264D01*
X128749908Y-70876539D01*
X128730331Y-70347461D01*
X131958092Y-70347461D01*
X131982144Y-70997460D01*
X132184613Y-71486264D01*
X132451468Y-71584927D01*
X133424395Y-70612000D01*
X133783605Y-70612000D01*
X134756532Y-71584927D01*
X135023387Y-71486264D01*
X135249908Y-70876539D01*
X135225856Y-70226540D01*
X135023387Y-69737736D01*
X134756532Y-69639073D01*
X133783605Y-70612000D01*
X133424395Y-70612000D01*
X132451468Y-69639073D01*
X132184613Y-69737736D01*
X131958092Y-70347461D01*
X128730331Y-70347461D01*
X128725856Y-70226540D01*
X128523387Y-69737736D01*
X128256532Y-69639073D01*
X127283605Y-70612000D01*
X126924395Y-70612000D01*
X125951468Y-69639073D01*
X125684613Y-69737736D01*
X125458092Y-70347461D01*
X120853536Y-70347461D01*
X120959633Y-70188675D01*
X120965410Y-70159633D01*
X121027001Y-69850000D01*
X121027000Y-69849995D01*
X121027000Y-69459468D01*
X126131073Y-69459468D01*
X127104000Y-70432395D01*
X128076927Y-69459468D01*
X132631073Y-69459468D01*
X133604000Y-70432395D01*
X134576927Y-69459468D01*
X134478264Y-69192613D01*
X133868539Y-68966092D01*
X133218540Y-68990144D01*
X132729736Y-69192613D01*
X132631073Y-69459468D01*
X128076927Y-69459468D01*
X127978264Y-69192613D01*
X127368539Y-68966092D01*
X126718540Y-68990144D01*
X126229736Y-69192613D01*
X126131073Y-69459468D01*
X121027000Y-69459468D01*
X121027000Y-68499432D01*
X121192054Y-68389147D01*
X121419702Y-68048447D01*
X121486817Y-68191358D01*
X121915076Y-68581645D01*
X122325110Y-68751476D01*
X122555000Y-68630155D01*
X122555000Y-67437000D01*
X122809000Y-67437000D01*
X122809000Y-68630155D01*
X123038890Y-68751476D01*
X123448924Y-68581645D01*
X123877183Y-68191358D01*
X124123486Y-67666892D01*
X124002819Y-67437000D01*
X122809000Y-67437000D01*
X122555000Y-67437000D01*
X122535000Y-67437000D01*
X122535000Y-67183000D01*
X122555000Y-67183000D01*
X122555000Y-65989845D01*
X122809000Y-65989845D01*
X122809000Y-67183000D01*
X124002819Y-67183000D01*
X124123486Y-66953108D01*
X123877183Y-66428642D01*
X123448924Y-66038355D01*
X123038890Y-65868524D01*
X122809000Y-65989845D01*
X122555000Y-65989845D01*
X122325110Y-65868524D01*
X121915076Y-66038355D01*
X121486817Y-66428642D01*
X121419702Y-66571553D01*
X121192054Y-66230853D01*
X120710285Y-65908946D01*
X120142000Y-65795907D01*
X119573715Y-65908946D01*
X119091946Y-66230853D01*
X118872000Y-66560026D01*
X118652054Y-66230853D01*
X118170285Y-65908946D01*
X117602000Y-65795907D01*
X117033715Y-65908946D01*
X116551946Y-66230853D01*
X116524150Y-66272452D01*
X116515162Y-66224683D01*
X116376090Y-66008559D01*
X116163890Y-65863569D01*
X115912000Y-65812560D01*
X114212000Y-65812560D01*
X113976683Y-65856838D01*
X113760559Y-65995910D01*
X113615569Y-66208110D01*
X113564560Y-66460000D01*
X113564560Y-68160000D01*
X113608838Y-68395317D01*
X113747910Y-68611441D01*
X113960110Y-68756431D01*
X114177000Y-68800352D01*
X114177000Y-74942348D01*
X113973890Y-74803569D01*
X113722000Y-74752560D01*
X112326140Y-74752560D01*
X112137000Y-74563420D01*
X112137000Y-67160144D01*
X112294811Y-67054698D01*
X112605880Y-66589151D01*
X112715113Y-66040000D01*
X112680017Y-65863562D01*
X113650579Y-64893000D01*
X124633420Y-64893000D01*
X125485858Y-65745437D01*
X125469284Y-65785352D01*
X125468716Y-66435795D01*
X125717106Y-67036943D01*
X126176637Y-67497278D01*
X126777352Y-67746716D01*
X127427795Y-67747284D01*
X128028943Y-67498894D01*
X128489278Y-67039363D01*
X128506869Y-66997000D01*
X132200602Y-66997000D01*
X132217106Y-67036943D01*
X132676637Y-67497278D01*
X133277352Y-67746716D01*
X133927795Y-67747284D01*
X134528943Y-67498894D01*
X134989278Y-67039363D01*
X135238716Y-66438648D01*
X135239284Y-65788205D01*
X134990894Y-65187057D01*
X134531363Y-64726722D01*
X133930648Y-64477284D01*
X133280205Y-64476716D01*
X132679057Y-64725106D01*
X132218722Y-65184637D01*
X132201131Y-65227000D01*
X128507398Y-65227000D01*
X128490894Y-65187057D01*
X128031363Y-64726722D01*
X127430648Y-64477284D01*
X126780205Y-64476716D01*
X126737812Y-64494232D01*
X126120580Y-63877000D01*
X137667995Y-63877000D01*
X137668000Y-63877001D01*
X137749652Y-63860759D01*
X137889309Y-63918750D01*
X138460187Y-63919248D01*
X138987800Y-63701243D01*
X139391824Y-63297923D01*
X139610750Y-62770691D01*
X139611248Y-62199813D01*
X139393243Y-61672200D01*
X139058627Y-61337000D01*
X139841420Y-61337000D01*
X140805160Y-62300739D01*
X140804752Y-62768187D01*
X141022757Y-63295800D01*
X141426077Y-63699824D01*
X141953309Y-63918750D01*
X142524187Y-63919248D01*
X143051800Y-63701243D01*
X143455824Y-63297923D01*
X143674750Y-62770691D01*
X143674872Y-62630451D01*
X144154208Y-63109787D01*
X144154210Y-63109790D01*
X144432595Y-63295800D01*
X144441325Y-63301633D01*
X144780000Y-63369001D01*
X144780005Y-63369000D01*
X145159829Y-63369000D01*
X145490077Y-63699824D01*
X146017309Y-63918750D01*
X146588187Y-63919248D01*
X147115800Y-63701243D01*
X147519824Y-63297923D01*
X147738750Y-62770691D01*
X147738849Y-62656266D01*
X153028405Y-62656266D01*
X153550250Y-63919229D01*
X154515688Y-64886354D01*
X155777739Y-65410403D01*
X157144266Y-65411595D01*
X158407229Y-64889750D01*
X159374354Y-63924312D01*
X159898403Y-62662261D01*
X159899595Y-61295734D01*
X159377750Y-60032771D01*
X158412312Y-59065646D01*
X157150261Y-58541597D01*
X155783734Y-58540405D01*
X154520771Y-59062250D01*
X153553646Y-60027688D01*
X153029597Y-61289739D01*
X153028405Y-62656266D01*
X147738849Y-62656266D01*
X147739248Y-62199813D01*
X147521243Y-61672200D01*
X147117923Y-61268176D01*
X146590691Y-61049250D01*
X146019813Y-61048752D01*
X145492200Y-61266757D01*
X145159377Y-61599000D01*
X145146579Y-61599000D01*
X142103790Y-58556210D01*
X142080136Y-58540405D01*
X141816675Y-58364367D01*
X141760484Y-58353190D01*
X141478000Y-58296999D01*
X141477995Y-58297000D01*
X136398005Y-58297000D01*
X136398000Y-58296999D01*
X136059325Y-58364367D01*
X135772210Y-58556210D01*
X135772208Y-58556213D01*
X134761420Y-59567000D01*
X110236005Y-59567000D01*
X110236000Y-59566999D01*
X109897325Y-59634367D01*
X109610210Y-59826210D01*
X109610208Y-59826213D01*
X106308210Y-63128210D01*
X106116367Y-63415325D01*
X106116367Y-63415326D01*
X106048999Y-63754000D01*
X106049000Y-63754005D01*
X106049000Y-68833995D01*
X106048999Y-68834000D01*
X106080059Y-68990144D01*
X106116367Y-69172675D01*
X106265780Y-69396289D01*
X106303000Y-69451993D01*
X106303000Y-82957780D01*
X104898000Y-81655585D01*
X104898000Y-71247005D01*
X104898001Y-71247000D01*
X104898000Y-71246995D01*
X104898000Y-68961005D01*
X104898001Y-68961000D01*
X104830633Y-68622326D01*
X104830633Y-68622325D01*
X104638790Y-68335210D01*
X104638787Y-68335208D01*
X104448290Y-68144710D01*
X104448287Y-68144708D01*
X102526840Y-66223261D01*
X102527248Y-65755813D01*
X102309243Y-65228200D01*
X101905923Y-64824176D01*
X101378691Y-64605250D01*
X100807813Y-64604752D01*
X100280200Y-64822757D01*
X99876176Y-65226077D01*
X99657250Y-65753309D01*
X99656752Y-66324187D01*
X99874757Y-66851800D01*
X100278077Y-67255824D01*
X100805309Y-67474750D01*
X101275581Y-67475160D01*
X102929522Y-69129101D01*
X102743000Y-69091999D01*
X102742995Y-69092000D01*
X102490171Y-69092000D01*
X102159923Y-68761176D01*
X101632691Y-68542250D01*
X101061813Y-68541752D01*
X100534200Y-68759757D01*
X100201377Y-69092000D01*
X93027505Y-69092000D01*
X93027500Y-69091999D01*
X92688825Y-69159367D01*
X92401710Y-69351210D01*
X92401708Y-69351213D01*
X90687210Y-71065710D01*
X90495367Y-71352825D01*
X90495367Y-71352826D01*
X90427999Y-71691500D01*
X90428000Y-71691505D01*
X90428000Y-73752554D01*
X90277683Y-73780838D01*
X90061559Y-73919910D01*
X89916569Y-74132110D01*
X89865560Y-74384000D01*
X89865560Y-75379860D01*
X89549420Y-75696000D01*
X84741911Y-75696000D01*
X84587909Y-75465519D01*
X84089919Y-75132773D01*
X83502500Y-75015928D01*
X82915081Y-75132773D01*
X82417091Y-75465519D01*
X82084345Y-75963509D01*
X81967500Y-76550928D01*
X74624000Y-76550928D01*
X74624000Y-62656266D01*
X77590405Y-62656266D01*
X78112250Y-63919229D01*
X79077688Y-64886354D01*
X80339739Y-65410403D01*
X81706266Y-65411595D01*
X82969229Y-64889750D01*
X83936354Y-63924312D01*
X84460403Y-62662261D01*
X84461595Y-61295734D01*
X83939750Y-60032771D01*
X82974312Y-59065646D01*
X81712261Y-58541597D01*
X80345734Y-58540405D01*
X79082771Y-59062250D01*
X78115646Y-60027688D01*
X77591597Y-61289739D01*
X77590405Y-62656266D01*
X74624000Y-62656266D01*
X74624000Y-56590000D01*
X161925000Y-56590000D01*
X161925000Y-134747000D01*
M02*
